<?xml version="1.0" standalone="no"?>
<!DOCTYPE svg PUBLIC "-//W3C//DTD SVG 1.1//EN" "http://www.w3.org/Graphics/SVG/1.1/DTD/svg11.dtd" >
<svg xmlns="http://www.w3.org/2000/svg" xmlns:xlink="http://www.w3.org/1999/xlink" version="1.1">
<metadata>
Created by FontForge 20160407 at Mon Jun 13 18:52:08 2016
 By Jimmy Wärting
Copyright (c) 2016 by Fernando Haro. All rights reserved.
</metadata>
<defs>
<font id="AngeliqueRose-FFP" horiz-adv-x="820" >
  <font-face 
    font-family="Angelique Rose"
    font-weight="400"
    font-stretch="normal"
    units-per-em="1000"
    panose-1="3 5 4 0 0 0 0 0 0 0"
    ascent="662"
    descent="-338"
    x-height="360"
    cap-height="645"
    bbox="-136 -343 772 836"
    underline-thickness="39"
    underline-position="-87"
    unicode-range="U+000D-F8FF"
  />
<missing-glyph horiz-adv-x="500" 
 />
    <glyph glyph-name=".notdef" horiz-adv-x="500" 
 />
    <glyph glyph-name="NULL" horiz-adv-x="0" 
 />
    <glyph glyph-name="NULL" horiz-adv-x="0" 
 />
    <glyph glyph-name="nonmarkingreturn" unicode="&#xd;" horiz-adv-x="210" 
 />
    <glyph glyph-name="space" unicode=" " horiz-adv-x="210" 
 />
    <glyph glyph-name="exclam" unicode="!" horiz-adv-x="201" 
d="M108 645q0 7 5 12t11 5q8 0 12 -5t5 -12q1 -21 2.5 -43.5t3 -48t2 -55t0.5 -66.5q0 -83 -5.5 -165t-17.5 -164q-1 -6 -6 -9t-10 -3h-4q-12 4 -12 21q11 78 16.5 158t5.5 171q0 51 -1.5 102t-6.5 102zM133 23q0 -34 -23 -34q-37 0 -37 39q0 29 29 29q31 0 31 -34z" />
    <glyph glyph-name="quotedbl" unicode="&#x22;" horiz-adv-x="248" 
d="M98 694q1 5 5.5 8t9.5 3q8 0 11 -6t3 -13q-10 -45 -20.5 -89t-27.5 -87q-4 -11 -14 -11q-5 0 -10.5 4t-5.5 11l1 4q17 43 27.5 87t20.5 89zM156 683q1 5 5 8t9 3q14 0 14 -19q-9 -51 -21.5 -101t-30.5 -99q-4 -11 -14 -11q-5 0 -10.5 4t-5.5 11l1 4q18 49 30.5 99
t22.5 101z" />
    <glyph glyph-name="numbersign" unicode="#" horiz-adv-x="352" 
d="M257 306q38 0 59 -2t21 -15q0 -5 -3.5 -9.5t-11.5 -5.5q-21 0 -36.5 0.5t-29.5 1.5q-1 -20 -1.5 -40t-0.5 -40t0.5 -39.5t1.5 -39.5q14 2 28.5 3t28.5 1q7 0 11 -4.5t4 -10.5q0 -14 -21 -15.5t-50 -3.5q2 -45 6.5 -81.5t12.5 -82.5q0 -8 -4.5 -11.5t-10.5 -3.5
q-10 0 -16.5 19t-10 46.5t-5 58t-2.5 52.5q-55 -5 -107 -15q1 -34 4 -67t6 -69q0 -8 -4.5 -11.5t-9.5 -3.5q-10 0 -15.5 17t-7.5 40.5t-2.5 47.5t-0.5 39q-16 -4 -32.5 -11t-34.5 -7q-6 0 -10 4.5t-4 10.5q0 7 9 12t21.5 9.5t26 7.5t23.5 5q0 57 1.5 95t3.5 73
q-14 -5 -30 -10t-28 -5q-14 0 -14 13q0 7 8 12.5t19.5 9t24 6.5t22.5 5q1 9 1 28.5t1.5 44t3.5 50.5t6 47.5t10.5 35t15.5 13.5q8 0 11 -5t3 -10l-8 -58q-5 -35 -9.5 -70.5t-4.5 -70.5q51 8 101 9q0 52 4 107.5t12 107.5q1 8 5 11.5t9 3.5q6 0 11 -4t5 -11q-3 -55 -9.5 -108
t-6.5 -107zM119 99q55 11 107 15q-1 20 -1.5 40.5t-0.5 40.5t0.5 40.5t1.5 40.5q-51 -2 -102 -9q-3 -42 -4 -84t-1 -84z" />
    <glyph glyph-name="dollar" unicode="$" horiz-adv-x="312" 
d="M118 560q-20 -4 -35 -16.5t-25 -29.5t-15.5 -37.5t-5.5 -40.5q0 -40 18.5 -64t46.5 -41q1 57 4.5 114.5t11.5 114.5zM135 313q20 -10 42 -21.5t40 -27t29.5 -36t11.5 -48.5q0 -23 -9.5 -39t-24.5 -27t-34 -17t-39 -7q2 -19 6 -36.5t8 -32t7 -24t3 -12.5q0 -7 -5.5 -11.5
t-11.5 -4.5q-9 0 -16 14t-12 33.5t-8 40t-5 34.5q-6 0 -25 4t-39.5 11.5t-36.5 18.5t-16 25q0 6 4.5 11.5t11.5 5.5q5 0 12 -5q19 -17 39.5 -25.5t45.5 -12.5q-6 42 -8.5 84.5t-2.5 84.5q-20 11 -37.5 24t-31 30t-21 38t-7.5 49q0 31 7.5 59t22.5 49.5t37 35t51 15.5
q1 10 3 25.5t5.5 29.5t9 24t14.5 10q6 0 11 -4t5 -12q0 -17 -6 -37t-8 -38q52 -10 81.5 -47t29.5 -83q0 -9 -3 -24.5t-8 -30t-13 -25.5t-18 -11q-8 0 -12 5t-4 12q0 4 4 11.5t8.5 18t8.5 22.5t4 24q0 36 -24 62t-59 34q-9 -62 -13 -123t-4 -123zM146 123q13 1 27 4t25.5 10
t19 17.5t7.5 25.5q-1 19 -9.5 33.5t-21.5 26t-28.5 19.5t-30.5 16q1 -38 3.5 -76t7.5 -76z" />
    <glyph glyph-name="percent" unicode="%" horiz-adv-x="431" 
d="M170 520q0 6 -1 17t-4 22.5t-9 20t-16 8.5q-7 0 -10 -8t-3 -19q0 -42 31 -42zM202 531q49 21 88 55t76 71q7 5 11 5q7 0 12 -5t5 -12q0 -6 -4.5 -13t-8.5 -13q-65 -111 -115.5 -199t-88 -160t-63 -132.5t-41.5 -117.5q-3 -12 -15 -12q-7 0 -12 4.5t-5 11.5l1 5
q6 35 22 78.5t38.5 91.5t49 98t54 98t53.5 92t47 79q-24 -18 -49.5 -34t-54.5 -27q-2 -23 -8.5 -50t-19.5 -50t-33.5 -38.5t-48.5 -15.5q-24 0 -41.5 10t-28 25.5t-15.5 34.5t-5 38q0 27 6.5 54.5t14.5 49.5q4 10 10.5 25.5t15 29.5t18 24.5t18.5 10.5q6 0 11 -4t5 -11
q0 -5 -5 -12q-11 -13 -22 -32t-20 -41.5t-14.5 -46.5t-5.5 -46q0 -32 15 -54.5t44 -22.5q18 0 31.5 12.5t22.5 30.5t14 37.5t7 33.5q-3 0 -6 -0.5t-5 -0.5q-17 0 -29.5 6.5t-20 16.5t-11 22.5t-3.5 25.5q0 26 12.5 45.5t33.5 19.5q17 0 28.5 -9t19 -23t11 -30t4.5 -29z
M300 300q24 0 41 -14t27.5 -35.5t15 -46.5t4.5 -46q0 -23 -4 -48t-14 -46t-26 -35t-40 -14q-27 0 -47 11.5t-32.5 29.5t-18.5 41t-6 46q0 20 6.5 47t19 51.5t31 41.5t43.5 17zM355 154q0 13 -2.5 32.5t-8.5 37.5t-17 30.5t-27 12.5q-15 0 -27.5 -13t-21.5 -32.5t-14 -41.5
t-5 -39q0 -16 4 -32.5t12 -30t21.5 -22t32.5 -8.5q14 0 24 11t16.5 27t9.5 34.5t3 33.5z" />
    <glyph glyph-name="ampersand" unicode="&#x26;" horiz-adv-x="554" 
d="M354 579q0 19 -12.5 28t-34.5 9q-26 0 -54.5 -11t-52 -30.5t-39 -46t-15.5 -57.5q0 -33 12 -65.5t27 -60.5q19 21 46.5 48t53.5 57t45.5 62.5t23.5 66.5zM365 123q37 -35 78 -66l36 -26q8 -5 8 -14q0 -6 -4 -11.5t-11 -5.5q-6 0 -10 3q-13 7 -28.5 18.5t-31 24.5
t-30.5 26t-26 24q-15 -21 -34.5 -41t-43.5 -35t-51 -24.5t-57 -9.5q-23 0 -43.5 8t-35.5 23t-24 35.5t-9 44.5q0 32 9 61.5t25 56.5t36 53t43 51q-19 33 -33.5 72t-14.5 78q0 34 16 66.5t43 58t61.5 40.5t71.5 15q33 0 57.5 -17.5t24.5 -54.5q0 -35 -20 -70.5t-48.5 -69
t-60.5 -64.5t-56 -58q29 -46 64.5 -88t73.5 -80q18 32 28.5 71.5t15.5 77.5q1 6 5.5 9t10.5 3q10 0 13 -6.5t3 -14.5q-5 -41 -17.5 -85t-33.5 -79zM179 290q-18 -20 -35.5 -41t-31.5 -44.5t-22.5 -50.5t-8.5 -58q0 -42 24 -59t56 -17q50 0 89.5 28.5t71.5 69.5
q-40 39 -76.5 81.5t-66.5 90.5z" />
    <glyph glyph-name="quotesingle" unicode="'" horiz-adv-x="150" 
d="M105 695q3 11 14 11q6 0 10 -4.5t5 -10.5v-4q-11 -45 -25 -87.5t-30 -85.5q-4 -11 -14 -11q-14 0 -16 15l1 4q16 43 30 85.5t25 87.5z" />
    <glyph glyph-name="parenleft" unicode="(" horiz-adv-x="192" 
d="M162 37q5 -7 5 -12q0 -16 -16 -16q-7 0 -12 5q-32 28 -51.5 69t-31 88t-15.5 95t-4 90q0 89 22 175t76 166q5 8 14 8q6 0 11 -4.5t5 -11.5q0 -6 -2 -9q-42 -75 -68 -151t-26 -168q0 -41 4.5 -85.5t15.5 -87.5t28.5 -82t44.5 -69z" />
    <glyph glyph-name="parenright" unicode=")" horiz-adv-x="192" 
d="M30 37q27 30 44.5 69t28.5 82t15.5 87.5t4.5 85.5q0 92 -26 168t-68 151q-2 3 -2 9q0 7 5 11.5t11 4.5q9 0 14 -8q54 -80 76 -166t22 -175q0 -42 -4 -90t-15.5 -95t-31.5 -88t-51 -69q-5 -5 -12 -5q-16 0 -16 16q0 5 5 12z" />
    <glyph glyph-name="asterisk" unicode="*" horiz-adv-x="217" 
d="M113 576q16 -10 31.5 -19.5t32.5 -17.5l28 -12q5 -3 5 -8q0 -11 -10 -11q-4 0 -6 1q-21 8 -42 19.5t-41 24.5q1 -32 6 -67q0 -2 0.5 -4t0.5 -4q0 -12 -10 -12q-6 0 -9 9t-5 22t-3 27.5t-1 25.5v9q-12 -10 -24.5 -19.5t-23.5 -21.5l-18 -19q-3 -3 -6 -3q-11 0 -11 10
q0 6 7.5 15t18 18.5t22 18t19.5 14.5l5 4q-20 15 -40 33t-36 38q-3 4 -3 8q0 10 10 10q3 0 7 -4l10 -10q14 -17 30 -30.5t33 -27.5q0 13 1 35.5t4 44.5t8 38.5t13 16.5q10 0 10 -12q-8 -32 -11.5 -58.5t-3.5 -59.5q17 11 36 22t39 18q1 1 3 1q9 0 9 -11q0 -6 -8 -10
q-20 -9 -39 -19.5t-38 -22.5z" />
    <glyph glyph-name="comma" unicode="," horiz-adv-x="119" 
d="M47 51q0 8 5 11.5t10 3.5q13 0 15.5 -16t2.5 -30q0 -13 -2.5 -30.5t-7.5 -33.5t-12 -27.5t-17 -11.5q-6 0 -10 4.5t-4 9.5q0 4 2 8q11 21 16 38.5t5 37.5q0 14 -3 32v4z" />
    <glyph glyph-name="hyphen" unicode="-" horiz-adv-x="342" 
d="M248 207q6 0 10.5 -4t4.5 -11q0 -6 -5 -10.5t-10 -4.5q-29 3 -57 3q-62 0 -126 -12q-6 0 -11.5 4t-5.5 11q0 9 16.5 14.5t39 8t45.5 3.5t37 1q30 0 62 -3z" />
    <glyph glyph-name="period" unicode="." horiz-adv-x="126" 
d="M87 23q0 -34 -23 -34q-37 0 -37 39q0 29 29 29q31 0 31 -34z" />
    <glyph glyph-name="slash" unicode="/" horiz-adv-x="357" 
d="M339 705q6 0 11 -3.5t5 -11.5q0 -7 -9 -22.5t-16 -26.5q-79 -133 -150.5 -283t-121.5 -307q-4 -13 -9.5 -30.5t-11 -34t-11.5 -28t-10 -11.5q-6 0 -11 5t-5 16q1 9 5.5 25.5t10.5 35t12 35.5t9 27q47 137 108 266t130 254q6 12 14.5 28t17.5 30.5t17.5 25t14.5 10.5z" />
    <glyph glyph-name="zero" unicode="0" 
d="M638 55q4 0 6 -0.5t8 -0.5q23 0 32 10.5t9 25.5q0 17 -7.5 40.5t-9.5 41.5q-12 -11 -25 -15t-29 -5q13 -13 21.5 -28t8.5 -32q0 -20 -14 -37zM343 197q9 -18 14 -28.5t9.5 -17.5t10 -13t13.5 -15q12 -13 30.5 -29t40 -30.5t44 -24t43.5 -9.5q15 0 31 5.5t29 14t21.5 20
t8.5 23.5q0 14 -11.5 29.5t-26.5 28.5h-27q-9 0 -18.5 1t-16.5 3q-31 -14 -58 -14q-28 0 -53 13.5t-44 39.5q-12 5 -23.5 10t-23.5 11v-4zM282 52q8 -8 18 -18.5t21.5 -20t23.5 -16t24 -6.5t23 6.5t21 16t17.5 21.5t13.5 23q-23 17 -45 35.5t-38 41.5q-10 -18 -26 -29.5
t-34 -19.5q-2 -8 -8 -17.5t-11 -16.5zM117 136q0 -19 9.5 -36t24.5 -30.5t34 -21.5t37 -8q21 0 35.5 11t24.5 28q-15 -4 -32 -4q-39 0 -72 19.5t-61 45.5v-4zM50 350q-5 -14 -8.5 -31.5t-3.5 -34.5q0 -24 8.5 -52t29.5 -44q5 -4 9 -5.5t7 -2.5t6 -2.5t8 -5.5
q32 -32 65.5 -57t74.5 -25q13 0 28.5 3t30 10t26.5 18.5t20 27.5q-6 10 -11.5 20t-10.5 21l-5 -9q0 -4 0.5 -6t0.5 -8q0 -35 -20 -50.5t-48 -15.5t-57 13t-53 32.5t-39.5 42.5t-15.5 43q0 14 7 27.5t20 24.5q-23 8 -40.5 26.5t-28.5 39.5zM239 501q-8 4 -19.5 10t-24.5 11.5
t-27 9.5t-26 4h-4q-50 0 -72.5 -30t-22.5 -69q0 -23 6.5 -45.5t18.5 -42t29 -34t38 -20.5q9 5 18 7t19 4l-7 3q-8 5 -14 17t-9.5 26t-5.5 27.5t-2 22.5q0 39 26 64t81 30zM317 638q-7 9 -27 17t-34 8h-4q-11 0 -39 -13t-57.5 -32.5t-53 -41.5t-24.5 -40q27 15 57 15
q24 0 49 -8.5t47 -19.5l-4 16t-2 16q0 18 12.5 29.5t38.5 11.5q10 0 18 -2q5 12 10 23t13 21zM464 606q0 1 -0.5 1.5t-0.5 1.5l-2 4q-4 8 -10 17.5t-14 18t-18.5 14t-24.5 5.5q-21 0 -38 -12.5t-29.5 -31t-19 -40t-6.5 -40.5q9 25 28 41.5t44 16.5q18 0 36 -9l17 -9
q3 5 17.5 12.5t20.5 9.5zM513 617q-6 25 -17 43t-33 18q-14 0 -29 -7q18 -11 26.5 -27t18.5 -33q17 5 34 6zM573 552q1 4 1 11q0 22 -14.5 30.5t-34.5 8.5q-23 0 -47 -8t-38 -17q2 0 5 -1.5t5 -1.5q6 0 9.5 1.5t11.5 1.5q18 0 34.5 -10t30.5 -21l16 4t16 2h5zM393 317
q5 -17 5 -29q0 -14 -5.5 -26t-16.5 -26l15 -3q7 16 22.5 25.5t34.5 16t39 12.5t37 15t27.5 23.5t10.5 38.5q0 11 -4 28q-9 0 -16 3q-3 -6 -10 -15t-17 -18t-23 -15t-28 -6q-2 0 -3 0.5t-3 0.5q-15 -9 -31.5 -14.5t-33.5 -10.5zM428 344q0 3 0.5 4t0.5 5q0 12 -7 21.5t-18 16
t-24.5 10.5t-25.5 5q8 -19 16.5 -37t16.5 -38q11 3 21 5.5t20 7.5zM480 390q-9 -3 -17 -3q-11 0 -21.5 3.5t-22.5 6.5q11 -8 18 -19.5t7 -26.5q12 6 22 15.5t14 23.5zM481 361q23 10 40 28.5t17 47.5q0 15 -6.5 24.5t-26.5 9.5q-4 -19 -5 -37t-9 -33q5 -3 5 -9q0 -8 -6 -18
t-9 -13zM409 488q15 5 28 5q15 0 29 -6t23 -20q1 2 1 6.5v8.5q0 13 -10 22.5t-24 9.5q-13 0 -25 -8.5t-22 -17.5zM274 465q5 -11 9.5 -20t4.5 -27q0 -25 -6.5 -40t-6.5 -26q0 -9 7 -26.5t18.5 -35.5t27 -33t32.5 -18l3 4q8 12 14 22.5t6 21.5t-6.5 30t-15.5 39.5t-18 39.5
t-14 31q-2 6 -6 14.5t-9.5 16.5t-11.5 14t-12 6q-9 0 -16 -13zM585 424q-2 -8 -4.5 -15t-8.5 -12q5 -18 5 -36q0 -25 -9.5 -40.5t-25 -26t-34 -17t-37.5 -12.5t-36 -14t-28 -21q19 -4 31.5 -10.5t33.5 -6.5q28 0 54 14t46.5 36.5t33 51t12.5 57.5q0 18 -6.5 34.5t-26.5 17.5
zM290 580q-4 0 -6 0.5t-8 0.5q-14 0 -25 -5.5t-11 -22.5q0 -9 3 -19.5t7.5 -21t8.5 -19t7 -12.5q4 5 9.5 9t13.5 4q11 0 20.5 -9t16.5 -20.5t12 -23t8 -16.5l2 -4h4q8 0 16.5 -2t16.5 -4q0 1 5.5 10t14 19t19 18t21.5 8q12 0 20.5 -11t8.5 -25v-4q-2 -7 -5.5 -13.5
t-7.5 -6.5q-8 0 -8 8q0 5 3.5 8t3.5 8q0 2 -3.5 12t-11.5 10q-5 0 -11 -5t-12.5 -12t-11.5 -14t-8 -11q2 0 3 0.5t4 0.5q11 0 26.5 -6.5t27.5 -6.5q14 0 17.5 9.5t3.5 18.5q0 20 -11.5 33.5t-34.5 13.5q-14 0 -30 -6t-23 -18l-3 -9q-2 -6 -7 -6q-7 0 -7 9q2 12 11 26.5
t21.5 26.5t27 20t29.5 8q18 0 31.5 -12t18.5 -30q24 0 35 -14.5t11 -34.5q0 -13 -5 -28q6 -2 9 -2q8 0 11.5 13.5t3.5 23.5q0 17 -8 36t-21.5 36.5t-30.5 30t-35 15.5h-6q-11 0 -27.5 -6t-33.5 -18t-32.5 -30.5t-24.5 -43.5q-3 -8 -8 -8q-7 0 -7 10q0 12 8.5 26.5t21.5 28.5
t29.5 26t31.5 19q-12 5 -26.5 13t-28.5 8h-5q-27 -5 -41.5 -25.5t-18.5 -45.5q0 -4 -3.5 -7t-7.5 -3q-8 0 -10 13t-2 24t1 20t3 17zM189 468q1 -1 1 -4q-3 -20 -3 -38q0 -39 13.5 -72.5t45.5 -63.5q33 -32 68.5 -48.5t69.5 -31.5q10 -5 25.5 -10.5t26.5 -5.5h4l4 2t2 3
q-14 11 -22.5 13t-10.5 2q-27 4 -44.5 8t-30 10t-23 16t-22.5 27q-11 16 -22 36t-11 37q0 16 7 33t7 33q0 15 -7.5 30.5t-18.5 37.5q-15 -1 -30 -4t-29 -10zM213 304q-1 -4 -11 -15.5t-10 -32.5q0 -15 7 -30t18.5 -27t26.5 -20t32 -8q15 0 23.5 6t13 14.5t6 16.5t3.5 13
q-31 15 -59.5 35t-49.5 48zM174 459q-14 -11 -19.5 -26t-5.5 -32q0 -16 3.5 -32.5t10.5 -30.5l7 -14q5 -5 12.5 -7.5t14.5 -2.5l10 -2q-18 26 -26.5 54.5t-8.5 58.5q0 9 0.5 17.5t1.5 16.5zM187 293q-14 0 -28 -4.5t-25.5 -12t-19 -18.5t-7.5 -24q0 -19 14.5 -40t37 -38
t49.5 -28.5t51 -11.5q23 0 36.5 11.5t14.5 39.5q-8 -6 -17.5 -8.5t-18.5 -2.5q-18 0 -35.5 8.5t-31 23t-21.5 32.5t-8 37q0 18 9 36zM412 183q30 -27 68 -27q27 0 50.5 11.5t43.5 31t35.5 43.5t26.5 50q-8 -7 -17 -12t-19 -9q-10 -14 -25 -26.5t-32.5 -23t-36.5 -16.5
t-37 -6l-9 -2q0 -11 -7.5 -14.5t-16.5 -3.5q-7 0 -13 1t-11 3zM614 295q23 14 37 35t14 58q0 24 -6.5 50.5t-18.5 48.5t-29.5 36.5t-39.5 14.5q-9 0 -24 -4q17 -19 28.5 -41.5t11.5 -48.5v-5q26 -2 35.5 -21t9.5 -44q0 -22 -5.5 -43.5t-12.5 -35.5zM681 391q14 -1 29.5 -6
t29 -13.5t22.5 -21.5t9 -30t-8.5 -36t-21 -37.5t-26.5 -34.5t-24 -26q2 -14 3.5 -26.5t5.5 -26.5q0 -10 4.5 -22t4.5 -25q0 -20 -16.5 -33.5t-43.5 -13.5q-6 0 -12.5 0.5t-12.5 1.5q-35 -26 -72 -26q-24 0 -48.5 9.5t-47.5 24.5q-6 -13 -15.5 -26t-21 -23.5t-25 -17
t-26.5 -6.5q-14 0 -27 7t-25.5 17t-23.5 21.5t-21 20.5q-21 -17 -50 -17q-22 0 -43 9t-38 24.5t-27.5 35.5t-10.5 41q0 5 0.5 9t1.5 9l-13 13q-16 1 -28.5 12.5t-21 28t-13 37t-4.5 41.5q0 22 5 44t13 40q-14 34 -14 71q0 24 7.5 46t27.5 39v4q0 18 12 36.5t31 35t42.5 30.5
t45.5 24t40.5 16t27.5 6q5 0 13.5 -2t18 -5.5t18.5 -8.5t14 -11q14 15 31 24.5t35 9.5q11 0 26 -5q24 14 45 14q26 0 42 -20.5t23 -55.5q27 -2 44 -15.5t17 -39.5q0 -8 -1 -12q23 -6 40.5 -23t29 -40t17.5 -48.5t6 -47.5zM558 167q7 -1 15.5 -1.5t18.5 -0.5q17 0 32 2t21 4
q12 4 31 21.5t37 40t30.5 46t12.5 40.5q0 20 -21 37t-55 17q1 -3 1 -9q0 -7 -3 -12.5t-6.5 -10.5t-6.5 -10.5t-3 -12.5q-13 -45 -39.5 -85t-64.5 -66zM202 -250v186h117v-28h-86v-49h55v-28h-55v-81h-31zM344 -250v186h117v-28h-86v-49h55v-28h-55v-81h-31zM517 -92v-66h17
q16 0 28 7.5t13 26.5q-1 17 -11.5 24.5t-26.5 7.5h-20zM486 -64h47q29 0 51 -12.5t22 -46.5q0 -31 -19.5 -47t-47.5 -16h-22v-64h-31v186z" />
    <glyph glyph-name="one" unicode="1" 
d="M638 55q4 0 6 -0.5t8 -0.5q23 0 32 10.5t9 25.5q0 17 -7.5 40.5t-9.5 41.5q-12 -11 -25 -15t-29 -5q13 -13 21.5 -28t8.5 -32q0 -20 -14 -37zM343 197q9 -18 14 -28.5t9.5 -17.5t10 -13t13.5 -15q12 -13 30.5 -29t40 -30.5t44 -24t43.5 -9.5q15 0 31 5.5t29 14t21.5 20
t8.5 23.5q0 14 -11.5 29.5t-26.5 28.5h-27q-9 0 -18.5 1t-16.5 3q-31 -14 -58 -14q-28 0 -53 13.5t-44 39.5q-12 5 -23.5 10t-23.5 11v-4zM282 52q8 -8 18 -18.5t21.5 -20t23.5 -16t24 -6.5t23 6.5t21 16t17.5 21.5t13.5 23q-23 17 -45 35.5t-38 41.5q-10 -18 -26 -29.5
t-34 -19.5q-2 -8 -8 -17.5t-11 -16.5zM117 136q0 -19 9.5 -36t24.5 -30.5t34 -21.5t37 -8q21 0 35.5 11t24.5 28q-15 -4 -32 -4q-39 0 -72 19.5t-61 45.5v-4zM50 350q-5 -14 -8.5 -31.5t-3.5 -34.5q0 -24 8.5 -52t29.5 -44q5 -4 9 -5.5t7 -2.5t6 -2.5t8 -5.5
q32 -32 65.5 -57t74.5 -25q13 0 28.5 3t30 10t26.5 18.5t20 27.5q-6 10 -11.5 20t-10.5 21l-5 -9q0 -4 0.5 -6t0.5 -8q0 -35 -20 -50.5t-48 -15.5t-57 13t-53 32.5t-39.5 42.5t-15.5 43q0 14 7 27.5t20 24.5q-23 8 -40.5 26.5t-28.5 39.5zM239 501q-8 4 -19.5 10t-24.5 11.5
t-27 9.5t-26 4h-4q-50 0 -72.5 -30t-22.5 -69q0 -23 6.5 -45.5t18.5 -42t29 -34t38 -20.5q9 5 18 7t19 4l-7 3q-8 5 -14 17t-9.5 26t-5.5 27.5t-2 22.5q0 39 26 64t81 30zM317 638q-7 9 -27 17t-34 8h-4q-11 0 -39 -13t-57.5 -32.5t-53 -41.5t-24.5 -40q27 15 57 15
q24 0 49 -8.5t47 -19.5l-4 16t-2 16q0 18 12.5 29.5t38.5 11.5q10 0 18 -2q5 12 10 23t13 21zM464 606q0 1 -0.5 1.5t-0.5 1.5l-2 4q-4 8 -10 17.5t-14 18t-18.5 14t-24.5 5.5q-21 0 -38 -12.5t-29.5 -31t-19 -40t-6.5 -40.5q9 25 28 41.5t44 16.5q18 0 36 -9l17 -9
q3 5 17.5 12.5t20.5 9.5zM513 617q-6 25 -17 43t-33 18q-14 0 -29 -7q18 -11 26.5 -27t18.5 -33q17 5 34 6zM573 552q1 4 1 11q0 22 -14.5 30.5t-34.5 8.5q-23 0 -47 -8t-38 -17q2 0 5 -1.5t5 -1.5q6 0 9.5 1.5t11.5 1.5q18 0 34.5 -10t30.5 -21l16 4t16 2h5zM393 317
q5 -17 5 -29q0 -14 -5.5 -26t-16.5 -26l15 -3q7 16 22.5 25.5t34.5 16t39 12.5t37 15t27.5 23.5t10.5 38.5q0 11 -4 28q-9 0 -16 3q-3 -6 -10 -15t-17 -18t-23 -15t-28 -6q-2 0 -3 0.5t-3 0.5q-15 -9 -31.5 -14.5t-33.5 -10.5zM428 344q0 3 0.5 4t0.5 5q0 12 -7 21.5t-18 16
t-24.5 10.5t-25.5 5q8 -19 16.5 -37t16.5 -38q11 3 21 5.5t20 7.5zM480 390q-9 -3 -17 -3q-11 0 -21.5 3.5t-22.5 6.5q11 -8 18 -19.5t7 -26.5q12 6 22 15.5t14 23.5zM481 361q23 10 40 28.5t17 47.5q0 15 -6.5 24.5t-26.5 9.5q-4 -19 -5 -37t-9 -33q5 -3 5 -9q0 -8 -6 -18
t-9 -13zM409 488q15 5 28 5q15 0 29 -6t23 -20q1 2 1 6.5v8.5q0 13 -10 22.5t-24 9.5q-13 0 -25 -8.5t-22 -17.5zM274 465q5 -11 9.5 -20t4.5 -27q0 -25 -6.5 -40t-6.5 -26q0 -9 7 -26.5t18.5 -35.5t27 -33t32.5 -18l3 4q8 12 14 22.5t6 21.5t-6.5 30t-15.5 39.5t-18 39.5
t-14 31q-2 6 -6 14.5t-9.5 16.5t-11.5 14t-12 6q-9 0 -16 -13zM585 424q-2 -8 -4.5 -15t-8.5 -12q5 -18 5 -36q0 -25 -9.5 -40.5t-25 -26t-34 -17t-37.5 -12.5t-36 -14t-28 -21q19 -4 31.5 -10.5t33.5 -6.5q28 0 54 14t46.5 36.5t33 51t12.5 57.5q0 18 -6.5 34.5t-26.5 17.5
zM290 580q-4 0 -6 0.5t-8 0.5q-14 0 -25 -5.5t-11 -22.5q0 -9 3 -19.5t7.5 -21t8.5 -19t7 -12.5q4 5 9.5 9t13.5 4q11 0 20.5 -9t16.5 -20.5t12 -23t8 -16.5l2 -4h4q8 0 16.5 -2t16.5 -4q0 1 5.5 10t14 19t19 18t21.5 8q12 0 20.5 -11t8.5 -25v-4q-2 -7 -5.5 -13.5
t-7.5 -6.5q-8 0 -8 8q0 5 3.5 8t3.5 8q0 2 -3.5 12t-11.5 10q-5 0 -11 -5t-12.5 -12t-11.5 -14t-8 -11q2 0 3 0.5t4 0.5q11 0 26.5 -6.5t27.5 -6.5q14 0 17.5 9.5t3.5 18.5q0 20 -11.5 33.5t-34.5 13.5q-14 0 -30 -6t-23 -18l-3 -9q-2 -6 -7 -6q-7 0 -7 9q2 12 11 26.5
t21.5 26.5t27 20t29.5 8q18 0 31.5 -12t18.5 -30q24 0 35 -14.5t11 -34.5q0 -13 -5 -28q6 -2 9 -2q8 0 11.5 13.5t3.5 23.5q0 17 -8 36t-21.5 36.5t-30.5 30t-35 15.5h-6q-11 0 -27.5 -6t-33.5 -18t-32.5 -30.5t-24.5 -43.5q-3 -8 -8 -8q-7 0 -7 10q0 12 8.5 26.5t21.5 28.5
t29.5 26t31.5 19q-12 5 -26.5 13t-28.5 8h-5q-27 -5 -41.5 -25.5t-18.5 -45.5q0 -4 -3.5 -7t-7.5 -3q-8 0 -10 13t-2 24t1 20t3 17zM189 468q1 -1 1 -4q-3 -20 -3 -38q0 -39 13.5 -72.5t45.5 -63.5q33 -32 68.5 -48.5t69.5 -31.5q10 -5 25.5 -10.5t26.5 -5.5h4l4 2t2 3
q-14 11 -22.5 13t-10.5 2q-27 4 -44.5 8t-30 10t-23 16t-22.5 27q-11 16 -22 36t-11 37q0 16 7 33t7 33q0 15 -7.5 30.5t-18.5 37.5q-15 -1 -30 -4t-29 -10zM213 304q-1 -4 -11 -15.5t-10 -32.5q0 -15 7 -30t18.5 -27t26.5 -20t32 -8q15 0 23.5 6t13 14.5t6 16.5t3.5 13
q-31 15 -59.5 35t-49.5 48zM174 459q-14 -11 -19.5 -26t-5.5 -32q0 -16 3.5 -32.5t10.5 -30.5l7 -14q5 -5 12.5 -7.5t14.5 -2.5l10 -2q-18 26 -26.5 54.5t-8.5 58.5q0 9 0.5 17.5t1.5 16.5zM187 293q-14 0 -28 -4.5t-25.5 -12t-19 -18.5t-7.5 -24q0 -19 14.5 -40t37 -38
t49.5 -28.5t51 -11.5q23 0 36.5 11.5t14.5 39.5q-8 -6 -17.5 -8.5t-18.5 -2.5q-18 0 -35.5 8.5t-31 23t-21.5 32.5t-8 37q0 18 9 36zM412 183q30 -27 68 -27q27 0 50.5 11.5t43.5 31t35.5 43.5t26.5 50q-8 -7 -17 -12t-19 -9q-10 -14 -25 -26.5t-32.5 -23t-36.5 -16.5
t-37 -6l-9 -2q0 -11 -7.5 -14.5t-16.5 -3.5q-7 0 -13 1t-11 3zM614 295q23 14 37 35t14 58q0 24 -6.5 50.5t-18.5 48.5t-29.5 36.5t-39.5 14.5q-9 0 -24 -4q17 -19 28.5 -41.5t11.5 -48.5v-5q26 -2 35.5 -21t9.5 -44q0 -22 -5.5 -43.5t-12.5 -35.5zM681 391q14 -1 29.5 -6
t29 -13.5t22.5 -21.5t9 -30t-8.5 -36t-21 -37.5t-26.5 -34.5t-24 -26q2 -14 3.5 -26.5t5.5 -26.5q0 -10 4.5 -22t4.5 -25q0 -20 -16.5 -33.5t-43.5 -13.5q-6 0 -12.5 0.5t-12.5 1.5q-35 -26 -72 -26q-24 0 -48.5 9.5t-47.5 24.5q-6 -13 -15.5 -26t-21 -23.5t-25 -17
t-26.5 -6.5q-14 0 -27 7t-25.5 17t-23.5 21.5t-21 20.5q-21 -17 -50 -17q-22 0 -43 9t-38 24.5t-27.5 35.5t-10.5 41q0 5 0.5 9t1.5 9l-13 13q-16 1 -28.5 12.5t-21 28t-13 37t-4.5 41.5q0 22 5 44t13 40q-14 34 -14 71q0 24 7.5 46t27.5 39v4q0 18 12 36.5t31 35t42.5 30.5
t45.5 24t40.5 16t27.5 6q5 0 13.5 -2t18 -5.5t18.5 -8.5t14 -11q14 15 31 24.5t35 9.5q11 0 26 -5q24 14 45 14q26 0 42 -20.5t23 -55.5q27 -2 44 -15.5t17 -39.5q0 -8 -1 -12q23 -6 40.5 -23t29 -40t17.5 -48.5t6 -47.5zM558 167q7 -1 15.5 -1.5t18.5 -0.5q17 0 32 2t21 4
q12 4 31 21.5t37 40t30.5 46t12.5 40.5q0 20 -21 37t-55 17q1 -3 1 -9q0 -7 -3 -12.5t-6.5 -10.5t-6.5 -10.5t-3 -12.5q-13 -45 -39.5 -85t-64.5 -66zM202 -250v186h117v-28h-86v-49h55v-28h-55v-81h-31zM344 -250v186h117v-28h-86v-49h55v-28h-55v-81h-31zM517 -92v-66h17
q16 0 28 7.5t13 26.5q-1 17 -11.5 24.5t-26.5 7.5h-20zM486 -64h47q29 0 51 -12.5t22 -46.5q0 -31 -19.5 -47t-47.5 -16h-22v-64h-31v186z" />
    <glyph glyph-name="two" unicode="2" 
d="M638 55q4 0 6 -0.5t8 -0.5q23 0 32 10.5t9 25.5q0 17 -7.5 40.5t-9.5 41.5q-12 -11 -25 -15t-29 -5q13 -13 21.5 -28t8.5 -32q0 -20 -14 -37zM343 197q9 -18 14 -28.5t9.5 -17.5t10 -13t13.5 -15q12 -13 30.5 -29t40 -30.5t44 -24t43.5 -9.5q15 0 31 5.5t29 14t21.5 20
t8.5 23.5q0 14 -11.5 29.5t-26.5 28.5h-27q-9 0 -18.5 1t-16.5 3q-31 -14 -58 -14q-28 0 -53 13.5t-44 39.5q-12 5 -23.5 10t-23.5 11v-4zM282 52q8 -8 18 -18.5t21.5 -20t23.5 -16t24 -6.5t23 6.5t21 16t17.5 21.5t13.5 23q-23 17 -45 35.5t-38 41.5q-10 -18 -26 -29.5
t-34 -19.5q-2 -8 -8 -17.5t-11 -16.5zM117 136q0 -19 9.5 -36t24.5 -30.5t34 -21.5t37 -8q21 0 35.5 11t24.5 28q-15 -4 -32 -4q-39 0 -72 19.5t-61 45.5v-4zM50 350q-5 -14 -8.5 -31.5t-3.5 -34.5q0 -24 8.5 -52t29.5 -44q5 -4 9 -5.5t7 -2.5t6 -2.5t8 -5.5
q32 -32 65.5 -57t74.5 -25q13 0 28.5 3t30 10t26.5 18.5t20 27.5q-6 10 -11.5 20t-10.5 21l-5 -9q0 -4 0.5 -6t0.5 -8q0 -35 -20 -50.5t-48 -15.5t-57 13t-53 32.5t-39.5 42.5t-15.5 43q0 14 7 27.5t20 24.5q-23 8 -40.5 26.5t-28.5 39.5zM239 501q-8 4 -19.5 10t-24.5 11.5
t-27 9.5t-26 4h-4q-50 0 -72.5 -30t-22.5 -69q0 -23 6.5 -45.5t18.5 -42t29 -34t38 -20.5q9 5 18 7t19 4l-7 3q-8 5 -14 17t-9.5 26t-5.5 27.5t-2 22.5q0 39 26 64t81 30zM317 638q-7 9 -27 17t-34 8h-4q-11 0 -39 -13t-57.5 -32.5t-53 -41.5t-24.5 -40q27 15 57 15
q24 0 49 -8.5t47 -19.5l-4 16t-2 16q0 18 12.5 29.5t38.5 11.5q10 0 18 -2q5 12 10 23t13 21zM464 606q0 1 -0.5 1.5t-0.5 1.5l-2 4q-4 8 -10 17.5t-14 18t-18.5 14t-24.5 5.5q-21 0 -38 -12.5t-29.5 -31t-19 -40t-6.5 -40.5q9 25 28 41.5t44 16.5q18 0 36 -9l17 -9
q3 5 17.5 12.5t20.5 9.5zM513 617q-6 25 -17 43t-33 18q-14 0 -29 -7q18 -11 26.5 -27t18.5 -33q17 5 34 6zM573 552q1 4 1 11q0 22 -14.5 30.5t-34.5 8.5q-23 0 -47 -8t-38 -17q2 0 5 -1.5t5 -1.5q6 0 9.5 1.5t11.5 1.5q18 0 34.5 -10t30.5 -21l16 4t16 2h5zM393 317
q5 -17 5 -29q0 -14 -5.5 -26t-16.5 -26l15 -3q7 16 22.5 25.5t34.5 16t39 12.5t37 15t27.5 23.5t10.5 38.5q0 11 -4 28q-9 0 -16 3q-3 -6 -10 -15t-17 -18t-23 -15t-28 -6q-2 0 -3 0.5t-3 0.5q-15 -9 -31.5 -14.5t-33.5 -10.5zM428 344q0 3 0.5 4t0.5 5q0 12 -7 21.5t-18 16
t-24.5 10.5t-25.5 5q8 -19 16.5 -37t16.5 -38q11 3 21 5.5t20 7.5zM480 390q-9 -3 -17 -3q-11 0 -21.5 3.5t-22.5 6.5q11 -8 18 -19.5t7 -26.5q12 6 22 15.5t14 23.5zM481 361q23 10 40 28.5t17 47.5q0 15 -6.5 24.5t-26.5 9.5q-4 -19 -5 -37t-9 -33q5 -3 5 -9q0 -8 -6 -18
t-9 -13zM409 488q15 5 28 5q15 0 29 -6t23 -20q1 2 1 6.5v8.5q0 13 -10 22.5t-24 9.5q-13 0 -25 -8.5t-22 -17.5zM274 465q5 -11 9.5 -20t4.5 -27q0 -25 -6.5 -40t-6.5 -26q0 -9 7 -26.5t18.5 -35.5t27 -33t32.5 -18l3 4q8 12 14 22.5t6 21.5t-6.5 30t-15.5 39.5t-18 39.5
t-14 31q-2 6 -6 14.5t-9.5 16.5t-11.5 14t-12 6q-9 0 -16 -13zM585 424q-2 -8 -4.5 -15t-8.5 -12q5 -18 5 -36q0 -25 -9.5 -40.5t-25 -26t-34 -17t-37.5 -12.5t-36 -14t-28 -21q19 -4 31.5 -10.5t33.5 -6.5q28 0 54 14t46.5 36.5t33 51t12.5 57.5q0 18 -6.5 34.5t-26.5 17.5
zM290 580q-4 0 -6 0.5t-8 0.5q-14 0 -25 -5.5t-11 -22.5q0 -9 3 -19.5t7.5 -21t8.5 -19t7 -12.5q4 5 9.5 9t13.5 4q11 0 20.5 -9t16.5 -20.5t12 -23t8 -16.5l2 -4h4q8 0 16.5 -2t16.5 -4q0 1 5.5 10t14 19t19 18t21.5 8q12 0 20.5 -11t8.5 -25v-4q-2 -7 -5.5 -13.5
t-7.5 -6.5q-8 0 -8 8q0 5 3.5 8t3.5 8q0 2 -3.5 12t-11.5 10q-5 0 -11 -5t-12.5 -12t-11.5 -14t-8 -11q2 0 3 0.5t4 0.5q11 0 26.5 -6.5t27.5 -6.5q14 0 17.5 9.5t3.5 18.5q0 20 -11.5 33.5t-34.5 13.5q-14 0 -30 -6t-23 -18l-3 -9q-2 -6 -7 -6q-7 0 -7 9q2 12 11 26.5
t21.5 26.5t27 20t29.5 8q18 0 31.5 -12t18.5 -30q24 0 35 -14.5t11 -34.5q0 -13 -5 -28q6 -2 9 -2q8 0 11.5 13.5t3.5 23.5q0 17 -8 36t-21.5 36.5t-30.5 30t-35 15.5h-6q-11 0 -27.5 -6t-33.5 -18t-32.5 -30.5t-24.5 -43.5q-3 -8 -8 -8q-7 0 -7 10q0 12 8.5 26.5t21.5 28.5
t29.5 26t31.5 19q-12 5 -26.5 13t-28.5 8h-5q-27 -5 -41.5 -25.5t-18.5 -45.5q0 -4 -3.5 -7t-7.5 -3q-8 0 -10 13t-2 24t1 20t3 17zM189 468q1 -1 1 -4q-3 -20 -3 -38q0 -39 13.5 -72.5t45.5 -63.5q33 -32 68.5 -48.5t69.5 -31.5q10 -5 25.5 -10.5t26.5 -5.5h4l4 2t2 3
q-14 11 -22.5 13t-10.5 2q-27 4 -44.5 8t-30 10t-23 16t-22.5 27q-11 16 -22 36t-11 37q0 16 7 33t7 33q0 15 -7.5 30.5t-18.5 37.5q-15 -1 -30 -4t-29 -10zM213 304q-1 -4 -11 -15.5t-10 -32.5q0 -15 7 -30t18.5 -27t26.5 -20t32 -8q15 0 23.5 6t13 14.5t6 16.5t3.5 13
q-31 15 -59.5 35t-49.5 48zM174 459q-14 -11 -19.5 -26t-5.5 -32q0 -16 3.5 -32.5t10.5 -30.5l7 -14q5 -5 12.5 -7.5t14.5 -2.5l10 -2q-18 26 -26.5 54.5t-8.5 58.5q0 9 0.5 17.5t1.5 16.5zM187 293q-14 0 -28 -4.5t-25.5 -12t-19 -18.5t-7.5 -24q0 -19 14.5 -40t37 -38
t49.5 -28.5t51 -11.5q23 0 36.5 11.5t14.5 39.5q-8 -6 -17.5 -8.5t-18.5 -2.5q-18 0 -35.5 8.5t-31 23t-21.5 32.5t-8 37q0 18 9 36zM412 183q30 -27 68 -27q27 0 50.5 11.5t43.5 31t35.5 43.5t26.5 50q-8 -7 -17 -12t-19 -9q-10 -14 -25 -26.5t-32.5 -23t-36.5 -16.5
t-37 -6l-9 -2q0 -11 -7.5 -14.5t-16.5 -3.5q-7 0 -13 1t-11 3zM614 295q23 14 37 35t14 58q0 24 -6.5 50.5t-18.5 48.5t-29.5 36.5t-39.5 14.5q-9 0 -24 -4q17 -19 28.5 -41.5t11.5 -48.5v-5q26 -2 35.5 -21t9.5 -44q0 -22 -5.5 -43.5t-12.5 -35.5zM681 391q14 -1 29.5 -6
t29 -13.5t22.5 -21.5t9 -30t-8.5 -36t-21 -37.5t-26.5 -34.5t-24 -26q2 -14 3.5 -26.5t5.5 -26.5q0 -10 4.5 -22t4.5 -25q0 -20 -16.5 -33.5t-43.5 -13.5q-6 0 -12.5 0.5t-12.5 1.5q-35 -26 -72 -26q-24 0 -48.5 9.5t-47.5 24.5q-6 -13 -15.5 -26t-21 -23.5t-25 -17
t-26.5 -6.5q-14 0 -27 7t-25.5 17t-23.5 21.5t-21 20.5q-21 -17 -50 -17q-22 0 -43 9t-38 24.5t-27.5 35.5t-10.5 41q0 5 0.5 9t1.5 9l-13 13q-16 1 -28.5 12.5t-21 28t-13 37t-4.5 41.5q0 22 5 44t13 40q-14 34 -14 71q0 24 7.5 46t27.5 39v4q0 18 12 36.5t31 35t42.5 30.5
t45.5 24t40.5 16t27.5 6q5 0 13.5 -2t18 -5.5t18.5 -8.5t14 -11q14 15 31 24.5t35 9.5q11 0 26 -5q24 14 45 14q26 0 42 -20.5t23 -55.5q27 -2 44 -15.5t17 -39.5q0 -8 -1 -12q23 -6 40.5 -23t29 -40t17.5 -48.5t6 -47.5zM558 167q7 -1 15.5 -1.5t18.5 -0.5q17 0 32 2t21 4
q12 4 31 21.5t37 40t30.5 46t12.5 40.5q0 20 -21 37t-55 17q1 -3 1 -9q0 -7 -3 -12.5t-6.5 -10.5t-6.5 -10.5t-3 -12.5q-13 -45 -39.5 -85t-64.5 -66zM202 -250v186h117v-28h-86v-49h55v-28h-55v-81h-31zM344 -250v186h117v-28h-86v-49h55v-28h-55v-81h-31zM517 -92v-66h17
q16 0 28 7.5t13 26.5q-1 17 -11.5 24.5t-26.5 7.5h-20zM486 -64h47q29 0 51 -12.5t22 -46.5q0 -31 -19.5 -47t-47.5 -16h-22v-64h-31v186z" />
    <glyph glyph-name="three" unicode="3" 
d="M638 55q4 0 6 -0.5t8 -0.5q23 0 32 10.5t9 25.5q0 17 -7.5 40.5t-9.5 41.5q-12 -11 -25 -15t-29 -5q13 -13 21.5 -28t8.5 -32q0 -20 -14 -37zM343 197q9 -18 14 -28.5t9.5 -17.5t10 -13t13.5 -15q12 -13 30.5 -29t40 -30.5t44 -24t43.5 -9.5q15 0 31 5.5t29 14t21.5 20
t8.5 23.5q0 14 -11.5 29.5t-26.5 28.5h-27q-9 0 -18.5 1t-16.5 3q-31 -14 -58 -14q-28 0 -53 13.5t-44 39.5q-12 5 -23.5 10t-23.5 11v-4zM282 52q8 -8 18 -18.5t21.5 -20t23.5 -16t24 -6.5t23 6.5t21 16t17.5 21.5t13.5 23q-23 17 -45 35.5t-38 41.5q-10 -18 -26 -29.5
t-34 -19.5q-2 -8 -8 -17.5t-11 -16.5zM117 136q0 -19 9.5 -36t24.5 -30.5t34 -21.5t37 -8q21 0 35.5 11t24.5 28q-15 -4 -32 -4q-39 0 -72 19.5t-61 45.5v-4zM50 350q-5 -14 -8.5 -31.5t-3.5 -34.5q0 -24 8.5 -52t29.5 -44q5 -4 9 -5.5t7 -2.5t6 -2.5t8 -5.5
q32 -32 65.5 -57t74.5 -25q13 0 28.5 3t30 10t26.5 18.5t20 27.5q-6 10 -11.5 20t-10.5 21l-5 -9q0 -4 0.5 -6t0.5 -8q0 -35 -20 -50.5t-48 -15.5t-57 13t-53 32.5t-39.5 42.5t-15.5 43q0 14 7 27.5t20 24.5q-23 8 -40.5 26.5t-28.5 39.5zM239 501q-8 4 -19.5 10t-24.5 11.5
t-27 9.5t-26 4h-4q-50 0 -72.5 -30t-22.5 -69q0 -23 6.5 -45.5t18.5 -42t29 -34t38 -20.5q9 5 18 7t19 4l-7 3q-8 5 -14 17t-9.5 26t-5.5 27.5t-2 22.5q0 39 26 64t81 30zM317 638q-7 9 -27 17t-34 8h-4q-11 0 -39 -13t-57.5 -32.5t-53 -41.5t-24.5 -40q27 15 57 15
q24 0 49 -8.5t47 -19.5l-4 16t-2 16q0 18 12.5 29.5t38.5 11.5q10 0 18 -2q5 12 10 23t13 21zM464 606q0 1 -0.5 1.5t-0.5 1.5l-2 4q-4 8 -10 17.5t-14 18t-18.5 14t-24.5 5.5q-21 0 -38 -12.5t-29.5 -31t-19 -40t-6.5 -40.5q9 25 28 41.5t44 16.5q18 0 36 -9l17 -9
q3 5 17.5 12.5t20.5 9.5zM513 617q-6 25 -17 43t-33 18q-14 0 -29 -7q18 -11 26.5 -27t18.5 -33q17 5 34 6zM573 552q1 4 1 11q0 22 -14.5 30.5t-34.5 8.5q-23 0 -47 -8t-38 -17q2 0 5 -1.5t5 -1.5q6 0 9.5 1.5t11.5 1.5q18 0 34.5 -10t30.5 -21l16 4t16 2h5zM393 317
q5 -17 5 -29q0 -14 -5.5 -26t-16.5 -26l15 -3q7 16 22.5 25.5t34.5 16t39 12.5t37 15t27.5 23.5t10.5 38.5q0 11 -4 28q-9 0 -16 3q-3 -6 -10 -15t-17 -18t-23 -15t-28 -6q-2 0 -3 0.5t-3 0.5q-15 -9 -31.5 -14.5t-33.5 -10.5zM428 344q0 3 0.5 4t0.5 5q0 12 -7 21.5t-18 16
t-24.5 10.5t-25.5 5q8 -19 16.5 -37t16.5 -38q11 3 21 5.5t20 7.5zM480 390q-9 -3 -17 -3q-11 0 -21.5 3.5t-22.5 6.5q11 -8 18 -19.5t7 -26.5q12 6 22 15.5t14 23.5zM481 361q23 10 40 28.5t17 47.5q0 15 -6.5 24.5t-26.5 9.5q-4 -19 -5 -37t-9 -33q5 -3 5 -9q0 -8 -6 -18
t-9 -13zM409 488q15 5 28 5q15 0 29 -6t23 -20q1 2 1 6.5v8.5q0 13 -10 22.5t-24 9.5q-13 0 -25 -8.5t-22 -17.5zM274 465q5 -11 9.5 -20t4.5 -27q0 -25 -6.5 -40t-6.5 -26q0 -9 7 -26.5t18.5 -35.5t27 -33t32.5 -18l3 4q8 12 14 22.5t6 21.5t-6.5 30t-15.5 39.5t-18 39.5
t-14 31q-2 6 -6 14.5t-9.5 16.5t-11.5 14t-12 6q-9 0 -16 -13zM585 424q-2 -8 -4.5 -15t-8.5 -12q5 -18 5 -36q0 -25 -9.5 -40.5t-25 -26t-34 -17t-37.5 -12.5t-36 -14t-28 -21q19 -4 31.5 -10.5t33.5 -6.5q28 0 54 14t46.5 36.5t33 51t12.5 57.5q0 18 -6.5 34.5t-26.5 17.5
zM290 580q-4 0 -6 0.5t-8 0.5q-14 0 -25 -5.5t-11 -22.5q0 -9 3 -19.5t7.5 -21t8.5 -19t7 -12.5q4 5 9.5 9t13.5 4q11 0 20.5 -9t16.5 -20.5t12 -23t8 -16.5l2 -4h4q8 0 16.5 -2t16.5 -4q0 1 5.5 10t14 19t19 18t21.5 8q12 0 20.5 -11t8.5 -25v-4q-2 -7 -5.5 -13.5
t-7.5 -6.5q-8 0 -8 8q0 5 3.5 8t3.5 8q0 2 -3.5 12t-11.5 10q-5 0 -11 -5t-12.5 -12t-11.5 -14t-8 -11q2 0 3 0.5t4 0.5q11 0 26.5 -6.5t27.5 -6.5q14 0 17.5 9.5t3.5 18.5q0 20 -11.5 33.5t-34.5 13.5q-14 0 -30 -6t-23 -18l-3 -9q-2 -6 -7 -6q-7 0 -7 9q2 12 11 26.5
t21.5 26.5t27 20t29.5 8q18 0 31.5 -12t18.5 -30q24 0 35 -14.5t11 -34.5q0 -13 -5 -28q6 -2 9 -2q8 0 11.5 13.5t3.5 23.5q0 17 -8 36t-21.5 36.5t-30.5 30t-35 15.5h-6q-11 0 -27.5 -6t-33.5 -18t-32.5 -30.5t-24.5 -43.5q-3 -8 -8 -8q-7 0 -7 10q0 12 8.5 26.5t21.5 28.5
t29.5 26t31.5 19q-12 5 -26.5 13t-28.5 8h-5q-27 -5 -41.5 -25.5t-18.5 -45.5q0 -4 -3.5 -7t-7.5 -3q-8 0 -10 13t-2 24t1 20t3 17zM189 468q1 -1 1 -4q-3 -20 -3 -38q0 -39 13.5 -72.5t45.5 -63.5q33 -32 68.5 -48.5t69.5 -31.5q10 -5 25.5 -10.5t26.5 -5.5h4l4 2t2 3
q-14 11 -22.5 13t-10.5 2q-27 4 -44.5 8t-30 10t-23 16t-22.5 27q-11 16 -22 36t-11 37q0 16 7 33t7 33q0 15 -7.5 30.5t-18.5 37.5q-15 -1 -30 -4t-29 -10zM213 304q-1 -4 -11 -15.5t-10 -32.5q0 -15 7 -30t18.5 -27t26.5 -20t32 -8q15 0 23.5 6t13 14.5t6 16.5t3.5 13
q-31 15 -59.5 35t-49.5 48zM174 459q-14 -11 -19.5 -26t-5.5 -32q0 -16 3.5 -32.5t10.5 -30.5l7 -14q5 -5 12.5 -7.5t14.5 -2.5l10 -2q-18 26 -26.5 54.5t-8.5 58.5q0 9 0.5 17.5t1.5 16.5zM187 293q-14 0 -28 -4.5t-25.5 -12t-19 -18.5t-7.5 -24q0 -19 14.5 -40t37 -38
t49.5 -28.5t51 -11.5q23 0 36.5 11.5t14.5 39.5q-8 -6 -17.5 -8.5t-18.5 -2.5q-18 0 -35.5 8.5t-31 23t-21.5 32.5t-8 37q0 18 9 36zM412 183q30 -27 68 -27q27 0 50.5 11.5t43.5 31t35.5 43.5t26.5 50q-8 -7 -17 -12t-19 -9q-10 -14 -25 -26.5t-32.5 -23t-36.5 -16.5
t-37 -6l-9 -2q0 -11 -7.5 -14.5t-16.5 -3.5q-7 0 -13 1t-11 3zM614 295q23 14 37 35t14 58q0 24 -6.5 50.5t-18.5 48.5t-29.5 36.5t-39.5 14.5q-9 0 -24 -4q17 -19 28.5 -41.5t11.5 -48.5v-5q26 -2 35.5 -21t9.5 -44q0 -22 -5.5 -43.5t-12.5 -35.5zM681 391q14 -1 29.5 -6
t29 -13.5t22.5 -21.5t9 -30t-8.5 -36t-21 -37.5t-26.5 -34.5t-24 -26q2 -14 3.5 -26.5t5.5 -26.5q0 -10 4.5 -22t4.5 -25q0 -20 -16.5 -33.5t-43.5 -13.5q-6 0 -12.5 0.5t-12.5 1.5q-35 -26 -72 -26q-24 0 -48.5 9.5t-47.5 24.5q-6 -13 -15.5 -26t-21 -23.5t-25 -17
t-26.5 -6.5q-14 0 -27 7t-25.5 17t-23.5 21.5t-21 20.5q-21 -17 -50 -17q-22 0 -43 9t-38 24.5t-27.5 35.5t-10.5 41q0 5 0.5 9t1.5 9l-13 13q-16 1 -28.5 12.5t-21 28t-13 37t-4.5 41.5q0 22 5 44t13 40q-14 34 -14 71q0 24 7.5 46t27.5 39v4q0 18 12 36.5t31 35t42.5 30.5
t45.5 24t40.5 16t27.5 6q5 0 13.5 -2t18 -5.5t18.5 -8.5t14 -11q14 15 31 24.5t35 9.5q11 0 26 -5q24 14 45 14q26 0 42 -20.5t23 -55.5q27 -2 44 -15.5t17 -39.5q0 -8 -1 -12q23 -6 40.5 -23t29 -40t17.5 -48.5t6 -47.5zM558 167q7 -1 15.5 -1.5t18.5 -0.5q17 0 32 2t21 4
q12 4 31 21.5t37 40t30.5 46t12.5 40.5q0 20 -21 37t-55 17q1 -3 1 -9q0 -7 -3 -12.5t-6.5 -10.5t-6.5 -10.5t-3 -12.5q-13 -45 -39.5 -85t-64.5 -66zM202 -250v186h117v-28h-86v-49h55v-28h-55v-81h-31zM344 -250v186h117v-28h-86v-49h55v-28h-55v-81h-31zM517 -92v-66h17
q16 0 28 7.5t13 26.5q-1 17 -11.5 24.5t-26.5 7.5h-20zM486 -64h47q29 0 51 -12.5t22 -46.5q0 -31 -19.5 -47t-47.5 -16h-22v-64h-31v186z" />
    <glyph glyph-name="four" unicode="4" 
d="M638 55q4 0 6 -0.5t8 -0.5q23 0 32 10.5t9 25.5q0 17 -7.5 40.5t-9.5 41.5q-12 -11 -25 -15t-29 -5q13 -13 21.5 -28t8.5 -32q0 -20 -14 -37zM343 197q9 -18 14 -28.5t9.5 -17.5t10 -13t13.5 -15q12 -13 30.5 -29t40 -30.5t44 -24t43.5 -9.5q15 0 31 5.5t29 14t21.5 20
t8.5 23.5q0 14 -11.5 29.5t-26.5 28.5h-27q-9 0 -18.5 1t-16.5 3q-31 -14 -58 -14q-28 0 -53 13.5t-44 39.5q-12 5 -23.5 10t-23.5 11v-4zM282 52q8 -8 18 -18.5t21.5 -20t23.5 -16t24 -6.5t23 6.5t21 16t17.5 21.5t13.5 23q-23 17 -45 35.5t-38 41.5q-10 -18 -26 -29.5
t-34 -19.5q-2 -8 -8 -17.5t-11 -16.5zM117 136q0 -19 9.5 -36t24.5 -30.5t34 -21.5t37 -8q21 0 35.5 11t24.5 28q-15 -4 -32 -4q-39 0 -72 19.5t-61 45.5v-4zM50 350q-5 -14 -8.5 -31.5t-3.5 -34.5q0 -24 8.5 -52t29.5 -44q5 -4 9 -5.5t7 -2.5t6 -2.5t8 -5.5
q32 -32 65.5 -57t74.5 -25q13 0 28.5 3t30 10t26.5 18.5t20 27.5q-6 10 -11.5 20t-10.5 21l-5 -9q0 -4 0.5 -6t0.5 -8q0 -35 -20 -50.5t-48 -15.5t-57 13t-53 32.5t-39.5 42.5t-15.5 43q0 14 7 27.5t20 24.5q-23 8 -40.5 26.5t-28.5 39.5zM239 501q-8 4 -19.5 10t-24.5 11.5
t-27 9.5t-26 4h-4q-50 0 -72.5 -30t-22.5 -69q0 -23 6.5 -45.5t18.5 -42t29 -34t38 -20.5q9 5 18 7t19 4l-7 3q-8 5 -14 17t-9.5 26t-5.5 27.5t-2 22.5q0 39 26 64t81 30zM317 638q-7 9 -27 17t-34 8h-4q-11 0 -39 -13t-57.5 -32.5t-53 -41.5t-24.5 -40q27 15 57 15
q24 0 49 -8.5t47 -19.5l-4 16t-2 16q0 18 12.5 29.5t38.5 11.5q10 0 18 -2q5 12 10 23t13 21zM464 606q0 1 -0.5 1.5t-0.5 1.5l-2 4q-4 8 -10 17.5t-14 18t-18.5 14t-24.5 5.5q-21 0 -38 -12.5t-29.5 -31t-19 -40t-6.5 -40.5q9 25 28 41.5t44 16.5q18 0 36 -9l17 -9
q3 5 17.5 12.5t20.5 9.5zM513 617q-6 25 -17 43t-33 18q-14 0 -29 -7q18 -11 26.5 -27t18.5 -33q17 5 34 6zM573 552q1 4 1 11q0 22 -14.5 30.5t-34.5 8.5q-23 0 -47 -8t-38 -17q2 0 5 -1.5t5 -1.5q6 0 9.5 1.5t11.5 1.5q18 0 34.5 -10t30.5 -21l16 4t16 2h5zM393 317
q5 -17 5 -29q0 -14 -5.5 -26t-16.5 -26l15 -3q7 16 22.5 25.5t34.5 16t39 12.5t37 15t27.5 23.5t10.5 38.5q0 11 -4 28q-9 0 -16 3q-3 -6 -10 -15t-17 -18t-23 -15t-28 -6q-2 0 -3 0.5t-3 0.5q-15 -9 -31.5 -14.5t-33.5 -10.5zM428 344q0 3 0.5 4t0.5 5q0 12 -7 21.5t-18 16
t-24.5 10.5t-25.5 5q8 -19 16.5 -37t16.5 -38q11 3 21 5.5t20 7.5zM480 390q-9 -3 -17 -3q-11 0 -21.5 3.5t-22.5 6.5q11 -8 18 -19.5t7 -26.5q12 6 22 15.5t14 23.5zM481 361q23 10 40 28.5t17 47.5q0 15 -6.5 24.5t-26.5 9.5q-4 -19 -5 -37t-9 -33q5 -3 5 -9q0 -8 -6 -18
t-9 -13zM409 488q15 5 28 5q15 0 29 -6t23 -20q1 2 1 6.5v8.5q0 13 -10 22.5t-24 9.5q-13 0 -25 -8.5t-22 -17.5zM274 465q5 -11 9.5 -20t4.5 -27q0 -25 -6.5 -40t-6.5 -26q0 -9 7 -26.5t18.5 -35.5t27 -33t32.5 -18l3 4q8 12 14 22.5t6 21.5t-6.5 30t-15.5 39.5t-18 39.5
t-14 31q-2 6 -6 14.5t-9.5 16.5t-11.5 14t-12 6q-9 0 -16 -13zM585 424q-2 -8 -4.5 -15t-8.5 -12q5 -18 5 -36q0 -25 -9.5 -40.5t-25 -26t-34 -17t-37.5 -12.5t-36 -14t-28 -21q19 -4 31.5 -10.5t33.5 -6.5q28 0 54 14t46.5 36.5t33 51t12.5 57.5q0 18 -6.5 34.5t-26.5 17.5
zM290 580q-4 0 -6 0.5t-8 0.5q-14 0 -25 -5.5t-11 -22.5q0 -9 3 -19.5t7.5 -21t8.5 -19t7 -12.5q4 5 9.5 9t13.5 4q11 0 20.5 -9t16.5 -20.5t12 -23t8 -16.5l2 -4h4q8 0 16.5 -2t16.5 -4q0 1 5.5 10t14 19t19 18t21.5 8q12 0 20.5 -11t8.5 -25v-4q-2 -7 -5.5 -13.5
t-7.5 -6.5q-8 0 -8 8q0 5 3.5 8t3.5 8q0 2 -3.5 12t-11.5 10q-5 0 -11 -5t-12.5 -12t-11.5 -14t-8 -11q2 0 3 0.5t4 0.5q11 0 26.5 -6.5t27.5 -6.5q14 0 17.5 9.5t3.5 18.5q0 20 -11.5 33.5t-34.5 13.5q-14 0 -30 -6t-23 -18l-3 -9q-2 -6 -7 -6q-7 0 -7 9q2 12 11 26.5
t21.5 26.5t27 20t29.5 8q18 0 31.5 -12t18.5 -30q24 0 35 -14.5t11 -34.5q0 -13 -5 -28q6 -2 9 -2q8 0 11.5 13.5t3.5 23.5q0 17 -8 36t-21.5 36.5t-30.5 30t-35 15.5h-6q-11 0 -27.5 -6t-33.5 -18t-32.5 -30.5t-24.5 -43.5q-3 -8 -8 -8q-7 0 -7 10q0 12 8.5 26.5t21.5 28.5
t29.5 26t31.5 19q-12 5 -26.5 13t-28.5 8h-5q-27 -5 -41.5 -25.5t-18.5 -45.5q0 -4 -3.5 -7t-7.5 -3q-8 0 -10 13t-2 24t1 20t3 17zM189 468q1 -1 1 -4q-3 -20 -3 -38q0 -39 13.5 -72.5t45.5 -63.5q33 -32 68.5 -48.5t69.5 -31.5q10 -5 25.5 -10.5t26.5 -5.5h4l4 2t2 3
q-14 11 -22.5 13t-10.5 2q-27 4 -44.5 8t-30 10t-23 16t-22.5 27q-11 16 -22 36t-11 37q0 16 7 33t7 33q0 15 -7.5 30.5t-18.5 37.5q-15 -1 -30 -4t-29 -10zM213 304q-1 -4 -11 -15.5t-10 -32.5q0 -15 7 -30t18.5 -27t26.5 -20t32 -8q15 0 23.5 6t13 14.5t6 16.5t3.5 13
q-31 15 -59.5 35t-49.5 48zM174 459q-14 -11 -19.5 -26t-5.5 -32q0 -16 3.5 -32.5t10.5 -30.5l7 -14q5 -5 12.5 -7.5t14.5 -2.5l10 -2q-18 26 -26.5 54.5t-8.5 58.5q0 9 0.5 17.5t1.5 16.5zM187 293q-14 0 -28 -4.5t-25.5 -12t-19 -18.5t-7.5 -24q0 -19 14.5 -40t37 -38
t49.5 -28.5t51 -11.5q23 0 36.5 11.5t14.5 39.5q-8 -6 -17.5 -8.5t-18.5 -2.5q-18 0 -35.5 8.5t-31 23t-21.5 32.5t-8 37q0 18 9 36zM412 183q30 -27 68 -27q27 0 50.5 11.5t43.5 31t35.5 43.5t26.5 50q-8 -7 -17 -12t-19 -9q-10 -14 -25 -26.5t-32.5 -23t-36.5 -16.5
t-37 -6l-9 -2q0 -11 -7.5 -14.5t-16.5 -3.5q-7 0 -13 1t-11 3zM614 295q23 14 37 35t14 58q0 24 -6.5 50.5t-18.5 48.5t-29.5 36.5t-39.5 14.5q-9 0 -24 -4q17 -19 28.5 -41.5t11.5 -48.5v-5q26 -2 35.5 -21t9.5 -44q0 -22 -5.5 -43.5t-12.5 -35.5zM681 391q14 -1 29.5 -6
t29 -13.5t22.5 -21.5t9 -30t-8.5 -36t-21 -37.5t-26.5 -34.5t-24 -26q2 -14 3.5 -26.5t5.5 -26.5q0 -10 4.5 -22t4.5 -25q0 -20 -16.5 -33.5t-43.5 -13.5q-6 0 -12.5 0.5t-12.5 1.5q-35 -26 -72 -26q-24 0 -48.5 9.5t-47.5 24.5q-6 -13 -15.5 -26t-21 -23.5t-25 -17
t-26.5 -6.5q-14 0 -27 7t-25.5 17t-23.5 21.5t-21 20.5q-21 -17 -50 -17q-22 0 -43 9t-38 24.5t-27.5 35.5t-10.5 41q0 5 0.5 9t1.5 9l-13 13q-16 1 -28.5 12.5t-21 28t-13 37t-4.5 41.5q0 22 5 44t13 40q-14 34 -14 71q0 24 7.5 46t27.5 39v4q0 18 12 36.5t31 35t42.5 30.5
t45.5 24t40.5 16t27.5 6q5 0 13.5 -2t18 -5.5t18.5 -8.5t14 -11q14 15 31 24.5t35 9.5q11 0 26 -5q24 14 45 14q26 0 42 -20.5t23 -55.5q27 -2 44 -15.5t17 -39.5q0 -8 -1 -12q23 -6 40.5 -23t29 -40t17.5 -48.5t6 -47.5zM558 167q7 -1 15.5 -1.5t18.5 -0.5q17 0 32 2t21 4
q12 4 31 21.5t37 40t30.5 46t12.5 40.5q0 20 -21 37t-55 17q1 -3 1 -9q0 -7 -3 -12.5t-6.5 -10.5t-6.5 -10.5t-3 -12.5q-13 -45 -39.5 -85t-64.5 -66zM202 -250v186h117v-28h-86v-49h55v-28h-55v-81h-31zM344 -250v186h117v-28h-86v-49h55v-28h-55v-81h-31zM517 -92v-66h17
q16 0 28 7.5t13 26.5q-1 17 -11.5 24.5t-26.5 7.5h-20zM486 -64h47q29 0 51 -12.5t22 -46.5q0 -31 -19.5 -47t-47.5 -16h-22v-64h-31v186z" />
    <glyph glyph-name="five" unicode="5" 
d="M638 55q4 0 6 -0.5t8 -0.5q23 0 32 10.5t9 25.5q0 17 -7.5 40.5t-9.5 41.5q-12 -11 -25 -15t-29 -5q13 -13 21.5 -28t8.5 -32q0 -20 -14 -37zM343 197q9 -18 14 -28.5t9.5 -17.5t10 -13t13.5 -15q12 -13 30.5 -29t40 -30.5t44 -24t43.5 -9.5q15 0 31 5.5t29 14t21.5 20
t8.5 23.5q0 14 -11.5 29.5t-26.5 28.5h-27q-9 0 -18.5 1t-16.5 3q-31 -14 -58 -14q-28 0 -53 13.5t-44 39.5q-12 5 -23.5 10t-23.5 11v-4zM282 52q8 -8 18 -18.5t21.5 -20t23.5 -16t24 -6.5t23 6.5t21 16t17.5 21.5t13.5 23q-23 17 -45 35.5t-38 41.5q-10 -18 -26 -29.5
t-34 -19.5q-2 -8 -8 -17.5t-11 -16.5zM117 136q0 -19 9.5 -36t24.5 -30.5t34 -21.5t37 -8q21 0 35.5 11t24.5 28q-15 -4 -32 -4q-39 0 -72 19.5t-61 45.5v-4zM50 350q-5 -14 -8.5 -31.5t-3.5 -34.5q0 -24 8.5 -52t29.5 -44q5 -4 9 -5.5t7 -2.5t6 -2.5t8 -5.5
q32 -32 65.5 -57t74.5 -25q13 0 28.5 3t30 10t26.5 18.5t20 27.5q-6 10 -11.5 20t-10.5 21l-5 -9q0 -4 0.5 -6t0.5 -8q0 -35 -20 -50.5t-48 -15.5t-57 13t-53 32.5t-39.5 42.5t-15.5 43q0 14 7 27.5t20 24.5q-23 8 -40.5 26.5t-28.5 39.5zM239 501q-8 4 -19.5 10t-24.5 11.5
t-27 9.5t-26 4h-4q-50 0 -72.5 -30t-22.5 -69q0 -23 6.5 -45.5t18.5 -42t29 -34t38 -20.5q9 5 18 7t19 4l-7 3q-8 5 -14 17t-9.5 26t-5.5 27.5t-2 22.5q0 39 26 64t81 30zM317 638q-7 9 -27 17t-34 8h-4q-11 0 -39 -13t-57.5 -32.5t-53 -41.5t-24.5 -40q27 15 57 15
q24 0 49 -8.5t47 -19.5l-4 16t-2 16q0 18 12.5 29.5t38.5 11.5q10 0 18 -2q5 12 10 23t13 21zM464 606q0 1 -0.5 1.5t-0.5 1.5l-2 4q-4 8 -10 17.5t-14 18t-18.5 14t-24.5 5.5q-21 0 -38 -12.5t-29.5 -31t-19 -40t-6.5 -40.5q9 25 28 41.5t44 16.5q18 0 36 -9l17 -9
q3 5 17.5 12.5t20.5 9.5zM513 617q-6 25 -17 43t-33 18q-14 0 -29 -7q18 -11 26.5 -27t18.5 -33q17 5 34 6zM573 552q1 4 1 11q0 22 -14.5 30.5t-34.5 8.5q-23 0 -47 -8t-38 -17q2 0 5 -1.5t5 -1.5q6 0 9.5 1.5t11.5 1.5q18 0 34.5 -10t30.5 -21l16 4t16 2h5zM393 317
q5 -17 5 -29q0 -14 -5.5 -26t-16.5 -26l15 -3q7 16 22.5 25.5t34.5 16t39 12.5t37 15t27.5 23.5t10.5 38.5q0 11 -4 28q-9 0 -16 3q-3 -6 -10 -15t-17 -18t-23 -15t-28 -6q-2 0 -3 0.5t-3 0.5q-15 -9 -31.5 -14.5t-33.5 -10.5zM428 344q0 3 0.5 4t0.5 5q0 12 -7 21.5t-18 16
t-24.5 10.5t-25.5 5q8 -19 16.5 -37t16.5 -38q11 3 21 5.5t20 7.5zM480 390q-9 -3 -17 -3q-11 0 -21.5 3.5t-22.5 6.5q11 -8 18 -19.5t7 -26.5q12 6 22 15.5t14 23.5zM481 361q23 10 40 28.5t17 47.5q0 15 -6.5 24.5t-26.5 9.5q-4 -19 -5 -37t-9 -33q5 -3 5 -9q0 -8 -6 -18
t-9 -13zM409 488q15 5 28 5q15 0 29 -6t23 -20q1 2 1 6.5v8.5q0 13 -10 22.5t-24 9.5q-13 0 -25 -8.5t-22 -17.5zM274 465q5 -11 9.5 -20t4.5 -27q0 -25 -6.5 -40t-6.5 -26q0 -9 7 -26.5t18.5 -35.5t27 -33t32.5 -18l3 4q8 12 14 22.5t6 21.5t-6.5 30t-15.5 39.5t-18 39.5
t-14 31q-2 6 -6 14.5t-9.5 16.5t-11.5 14t-12 6q-9 0 -16 -13zM585 424q-2 -8 -4.5 -15t-8.5 -12q5 -18 5 -36q0 -25 -9.5 -40.5t-25 -26t-34 -17t-37.5 -12.5t-36 -14t-28 -21q19 -4 31.5 -10.5t33.5 -6.5q28 0 54 14t46.5 36.5t33 51t12.5 57.5q0 18 -6.5 34.5t-26.5 17.5
zM290 580q-4 0 -6 0.5t-8 0.5q-14 0 -25 -5.5t-11 -22.5q0 -9 3 -19.5t7.5 -21t8.5 -19t7 -12.5q4 5 9.5 9t13.5 4q11 0 20.5 -9t16.5 -20.5t12 -23t8 -16.5l2 -4h4q8 0 16.5 -2t16.5 -4q0 1 5.5 10t14 19t19 18t21.5 8q12 0 20.5 -11t8.5 -25v-4q-2 -7 -5.5 -13.5
t-7.5 -6.5q-8 0 -8 8q0 5 3.5 8t3.5 8q0 2 -3.5 12t-11.5 10q-5 0 -11 -5t-12.5 -12t-11.5 -14t-8 -11q2 0 3 0.5t4 0.5q11 0 26.5 -6.5t27.5 -6.5q14 0 17.5 9.5t3.5 18.5q0 20 -11.5 33.5t-34.5 13.5q-14 0 -30 -6t-23 -18l-3 -9q-2 -6 -7 -6q-7 0 -7 9q2 12 11 26.5
t21.5 26.5t27 20t29.5 8q18 0 31.5 -12t18.5 -30q24 0 35 -14.5t11 -34.5q0 -13 -5 -28q6 -2 9 -2q8 0 11.5 13.5t3.5 23.5q0 17 -8 36t-21.5 36.5t-30.5 30t-35 15.5h-6q-11 0 -27.5 -6t-33.5 -18t-32.5 -30.5t-24.5 -43.5q-3 -8 -8 -8q-7 0 -7 10q0 12 8.5 26.5t21.5 28.5
t29.5 26t31.5 19q-12 5 -26.5 13t-28.5 8h-5q-27 -5 -41.5 -25.5t-18.5 -45.5q0 -4 -3.5 -7t-7.5 -3q-8 0 -10 13t-2 24t1 20t3 17zM189 468q1 -1 1 -4q-3 -20 -3 -38q0 -39 13.5 -72.5t45.5 -63.5q33 -32 68.5 -48.5t69.5 -31.5q10 -5 25.5 -10.5t26.5 -5.5h4l4 2t2 3
q-14 11 -22.5 13t-10.5 2q-27 4 -44.5 8t-30 10t-23 16t-22.5 27q-11 16 -22 36t-11 37q0 16 7 33t7 33q0 15 -7.5 30.5t-18.5 37.5q-15 -1 -30 -4t-29 -10zM213 304q-1 -4 -11 -15.5t-10 -32.5q0 -15 7 -30t18.5 -27t26.5 -20t32 -8q15 0 23.5 6t13 14.5t6 16.5t3.5 13
q-31 15 -59.5 35t-49.5 48zM174 459q-14 -11 -19.5 -26t-5.5 -32q0 -16 3.5 -32.5t10.5 -30.5l7 -14q5 -5 12.5 -7.5t14.5 -2.5l10 -2q-18 26 -26.5 54.5t-8.5 58.5q0 9 0.5 17.5t1.5 16.5zM187 293q-14 0 -28 -4.5t-25.5 -12t-19 -18.5t-7.5 -24q0 -19 14.5 -40t37 -38
t49.5 -28.5t51 -11.5q23 0 36.5 11.5t14.5 39.5q-8 -6 -17.5 -8.5t-18.5 -2.5q-18 0 -35.5 8.5t-31 23t-21.5 32.5t-8 37q0 18 9 36zM412 183q30 -27 68 -27q27 0 50.5 11.5t43.5 31t35.5 43.5t26.5 50q-8 -7 -17 -12t-19 -9q-10 -14 -25 -26.5t-32.5 -23t-36.5 -16.5
t-37 -6l-9 -2q0 -11 -7.5 -14.5t-16.5 -3.5q-7 0 -13 1t-11 3zM614 295q23 14 37 35t14 58q0 24 -6.5 50.5t-18.5 48.5t-29.5 36.5t-39.5 14.5q-9 0 -24 -4q17 -19 28.5 -41.5t11.5 -48.5v-5q26 -2 35.5 -21t9.5 -44q0 -22 -5.5 -43.5t-12.5 -35.5zM681 391q14 -1 29.5 -6
t29 -13.5t22.5 -21.5t9 -30t-8.5 -36t-21 -37.5t-26.5 -34.5t-24 -26q2 -14 3.5 -26.5t5.5 -26.5q0 -10 4.5 -22t4.5 -25q0 -20 -16.5 -33.5t-43.5 -13.5q-6 0 -12.5 0.5t-12.5 1.5q-35 -26 -72 -26q-24 0 -48.5 9.5t-47.5 24.5q-6 -13 -15.5 -26t-21 -23.5t-25 -17
t-26.5 -6.5q-14 0 -27 7t-25.5 17t-23.5 21.5t-21 20.5q-21 -17 -50 -17q-22 0 -43 9t-38 24.5t-27.5 35.5t-10.5 41q0 5 0.5 9t1.5 9l-13 13q-16 1 -28.5 12.5t-21 28t-13 37t-4.5 41.5q0 22 5 44t13 40q-14 34 -14 71q0 24 7.5 46t27.5 39v4q0 18 12 36.5t31 35t42.5 30.5
t45.5 24t40.5 16t27.5 6q5 0 13.5 -2t18 -5.5t18.5 -8.5t14 -11q14 15 31 24.5t35 9.5q11 0 26 -5q24 14 45 14q26 0 42 -20.5t23 -55.5q27 -2 44 -15.5t17 -39.5q0 -8 -1 -12q23 -6 40.5 -23t29 -40t17.5 -48.5t6 -47.5zM558 167q7 -1 15.5 -1.5t18.5 -0.5q17 0 32 2t21 4
q12 4 31 21.5t37 40t30.5 46t12.5 40.5q0 20 -21 37t-55 17q1 -3 1 -9q0 -7 -3 -12.5t-6.5 -10.5t-6.5 -10.5t-3 -12.5q-13 -45 -39.5 -85t-64.5 -66zM202 -250v186h117v-28h-86v-49h55v-28h-55v-81h-31zM344 -250v186h117v-28h-86v-49h55v-28h-55v-81h-31zM517 -92v-66h17
q16 0 28 7.5t13 26.5q-1 17 -11.5 24.5t-26.5 7.5h-20zM486 -64h47q29 0 51 -12.5t22 -46.5q0 -31 -19.5 -47t-47.5 -16h-22v-64h-31v186z" />
    <glyph glyph-name="six" unicode="6" 
d="M638 55q4 0 6 -0.5t8 -0.5q23 0 32 10.5t9 25.5q0 17 -7.5 40.5t-9.5 41.5q-12 -11 -25 -15t-29 -5q13 -13 21.5 -28t8.5 -32q0 -20 -14 -37zM343 197q9 -18 14 -28.5t9.5 -17.5t10 -13t13.5 -15q12 -13 30.5 -29t40 -30.5t44 -24t43.5 -9.5q15 0 31 5.5t29 14t21.5 20
t8.5 23.5q0 14 -11.5 29.5t-26.5 28.5h-27q-9 0 -18.5 1t-16.5 3q-31 -14 -58 -14q-28 0 -53 13.5t-44 39.5q-12 5 -23.5 10t-23.5 11v-4zM282 52q8 -8 18 -18.5t21.5 -20t23.5 -16t24 -6.5t23 6.5t21 16t17.5 21.5t13.5 23q-23 17 -45 35.5t-38 41.5q-10 -18 -26 -29.5
t-34 -19.5q-2 -8 -8 -17.5t-11 -16.5zM117 136q0 -19 9.5 -36t24.5 -30.5t34 -21.5t37 -8q21 0 35.5 11t24.5 28q-15 -4 -32 -4q-39 0 -72 19.5t-61 45.5v-4zM50 350q-5 -14 -8.5 -31.5t-3.5 -34.5q0 -24 8.5 -52t29.5 -44q5 -4 9 -5.5t7 -2.5t6 -2.5t8 -5.5
q32 -32 65.5 -57t74.5 -25q13 0 28.5 3t30 10t26.5 18.5t20 27.5q-6 10 -11.5 20t-10.5 21l-5 -9q0 -4 0.5 -6t0.5 -8q0 -35 -20 -50.5t-48 -15.5t-57 13t-53 32.5t-39.5 42.5t-15.5 43q0 14 7 27.5t20 24.5q-23 8 -40.5 26.5t-28.5 39.5zM239 501q-8 4 -19.5 10t-24.5 11.5
t-27 9.5t-26 4h-4q-50 0 -72.5 -30t-22.5 -69q0 -23 6.5 -45.5t18.5 -42t29 -34t38 -20.5q9 5 18 7t19 4l-7 3q-8 5 -14 17t-9.5 26t-5.5 27.5t-2 22.5q0 39 26 64t81 30zM317 638q-7 9 -27 17t-34 8h-4q-11 0 -39 -13t-57.5 -32.5t-53 -41.5t-24.5 -40q27 15 57 15
q24 0 49 -8.5t47 -19.5l-4 16t-2 16q0 18 12.5 29.5t38.5 11.5q10 0 18 -2q5 12 10 23t13 21zM464 606q0 1 -0.5 1.5t-0.5 1.5l-2 4q-4 8 -10 17.5t-14 18t-18.5 14t-24.5 5.5q-21 0 -38 -12.5t-29.5 -31t-19 -40t-6.5 -40.5q9 25 28 41.5t44 16.5q18 0 36 -9l17 -9
q3 5 17.5 12.5t20.5 9.5zM513 617q-6 25 -17 43t-33 18q-14 0 -29 -7q18 -11 26.5 -27t18.5 -33q17 5 34 6zM573 552q1 4 1 11q0 22 -14.5 30.5t-34.5 8.5q-23 0 -47 -8t-38 -17q2 0 5 -1.5t5 -1.5q6 0 9.5 1.5t11.5 1.5q18 0 34.5 -10t30.5 -21l16 4t16 2h5zM393 317
q5 -17 5 -29q0 -14 -5.5 -26t-16.5 -26l15 -3q7 16 22.5 25.5t34.5 16t39 12.5t37 15t27.5 23.5t10.5 38.5q0 11 -4 28q-9 0 -16 3q-3 -6 -10 -15t-17 -18t-23 -15t-28 -6q-2 0 -3 0.5t-3 0.5q-15 -9 -31.5 -14.5t-33.5 -10.5zM428 344q0 3 0.5 4t0.5 5q0 12 -7 21.5t-18 16
t-24.5 10.5t-25.5 5q8 -19 16.5 -37t16.5 -38q11 3 21 5.5t20 7.5zM480 390q-9 -3 -17 -3q-11 0 -21.5 3.5t-22.5 6.5q11 -8 18 -19.5t7 -26.5q12 6 22 15.5t14 23.5zM481 361q23 10 40 28.5t17 47.5q0 15 -6.5 24.5t-26.5 9.5q-4 -19 -5 -37t-9 -33q5 -3 5 -9q0 -8 -6 -18
t-9 -13zM409 488q15 5 28 5q15 0 29 -6t23 -20q1 2 1 6.5v8.5q0 13 -10 22.5t-24 9.5q-13 0 -25 -8.5t-22 -17.5zM274 465q5 -11 9.5 -20t4.5 -27q0 -25 -6.5 -40t-6.5 -26q0 -9 7 -26.5t18.5 -35.5t27 -33t32.5 -18l3 4q8 12 14 22.5t6 21.5t-6.5 30t-15.5 39.5t-18 39.5
t-14 31q-2 6 -6 14.5t-9.5 16.5t-11.5 14t-12 6q-9 0 -16 -13zM585 424q-2 -8 -4.5 -15t-8.5 -12q5 -18 5 -36q0 -25 -9.5 -40.5t-25 -26t-34 -17t-37.5 -12.5t-36 -14t-28 -21q19 -4 31.5 -10.5t33.5 -6.5q28 0 54 14t46.5 36.5t33 51t12.5 57.5q0 18 -6.5 34.5t-26.5 17.5
zM290 580q-4 0 -6 0.5t-8 0.5q-14 0 -25 -5.5t-11 -22.5q0 -9 3 -19.5t7.5 -21t8.5 -19t7 -12.5q4 5 9.5 9t13.5 4q11 0 20.5 -9t16.5 -20.5t12 -23t8 -16.5l2 -4h4q8 0 16.5 -2t16.5 -4q0 1 5.5 10t14 19t19 18t21.5 8q12 0 20.5 -11t8.5 -25v-4q-2 -7 -5.5 -13.5
t-7.5 -6.5q-8 0 -8 8q0 5 3.5 8t3.5 8q0 2 -3.5 12t-11.5 10q-5 0 -11 -5t-12.5 -12t-11.5 -14t-8 -11q2 0 3 0.5t4 0.5q11 0 26.5 -6.5t27.5 -6.5q14 0 17.5 9.5t3.5 18.5q0 20 -11.5 33.5t-34.5 13.5q-14 0 -30 -6t-23 -18l-3 -9q-2 -6 -7 -6q-7 0 -7 9q2 12 11 26.5
t21.5 26.5t27 20t29.5 8q18 0 31.5 -12t18.5 -30q24 0 35 -14.5t11 -34.5q0 -13 -5 -28q6 -2 9 -2q8 0 11.5 13.5t3.5 23.5q0 17 -8 36t-21.5 36.5t-30.5 30t-35 15.5h-6q-11 0 -27.5 -6t-33.5 -18t-32.5 -30.5t-24.5 -43.5q-3 -8 -8 -8q-7 0 -7 10q0 12 8.5 26.5t21.5 28.5
t29.5 26t31.5 19q-12 5 -26.5 13t-28.5 8h-5q-27 -5 -41.5 -25.5t-18.5 -45.5q0 -4 -3.5 -7t-7.5 -3q-8 0 -10 13t-2 24t1 20t3 17zM189 468q1 -1 1 -4q-3 -20 -3 -38q0 -39 13.5 -72.5t45.5 -63.5q33 -32 68.5 -48.5t69.5 -31.5q10 -5 25.5 -10.5t26.5 -5.5h4l4 2t2 3
q-14 11 -22.5 13t-10.5 2q-27 4 -44.5 8t-30 10t-23 16t-22.5 27q-11 16 -22 36t-11 37q0 16 7 33t7 33q0 15 -7.5 30.5t-18.5 37.5q-15 -1 -30 -4t-29 -10zM213 304q-1 -4 -11 -15.5t-10 -32.5q0 -15 7 -30t18.5 -27t26.5 -20t32 -8q15 0 23.5 6t13 14.5t6 16.5t3.5 13
q-31 15 -59.5 35t-49.5 48zM174 459q-14 -11 -19.5 -26t-5.5 -32q0 -16 3.5 -32.5t10.5 -30.5l7 -14q5 -5 12.5 -7.5t14.5 -2.5l10 -2q-18 26 -26.5 54.5t-8.5 58.5q0 9 0.5 17.5t1.5 16.5zM187 293q-14 0 -28 -4.5t-25.5 -12t-19 -18.5t-7.5 -24q0 -19 14.5 -40t37 -38
t49.5 -28.5t51 -11.5q23 0 36.5 11.5t14.5 39.5q-8 -6 -17.5 -8.5t-18.5 -2.5q-18 0 -35.5 8.5t-31 23t-21.5 32.5t-8 37q0 18 9 36zM412 183q30 -27 68 -27q27 0 50.5 11.5t43.5 31t35.5 43.5t26.5 50q-8 -7 -17 -12t-19 -9q-10 -14 -25 -26.5t-32.5 -23t-36.5 -16.5
t-37 -6l-9 -2q0 -11 -7.5 -14.5t-16.5 -3.5q-7 0 -13 1t-11 3zM614 295q23 14 37 35t14 58q0 24 -6.5 50.5t-18.5 48.5t-29.5 36.5t-39.5 14.5q-9 0 -24 -4q17 -19 28.5 -41.5t11.5 -48.5v-5q26 -2 35.5 -21t9.5 -44q0 -22 -5.5 -43.5t-12.5 -35.5zM681 391q14 -1 29.5 -6
t29 -13.5t22.5 -21.5t9 -30t-8.5 -36t-21 -37.5t-26.5 -34.5t-24 -26q2 -14 3.5 -26.5t5.5 -26.5q0 -10 4.5 -22t4.5 -25q0 -20 -16.5 -33.5t-43.5 -13.5q-6 0 -12.5 0.5t-12.5 1.5q-35 -26 -72 -26q-24 0 -48.5 9.5t-47.5 24.5q-6 -13 -15.5 -26t-21 -23.5t-25 -17
t-26.5 -6.5q-14 0 -27 7t-25.5 17t-23.5 21.5t-21 20.5q-21 -17 -50 -17q-22 0 -43 9t-38 24.5t-27.5 35.5t-10.5 41q0 5 0.5 9t1.5 9l-13 13q-16 1 -28.5 12.5t-21 28t-13 37t-4.5 41.5q0 22 5 44t13 40q-14 34 -14 71q0 24 7.5 46t27.5 39v4q0 18 12 36.5t31 35t42.5 30.5
t45.5 24t40.5 16t27.5 6q5 0 13.5 -2t18 -5.5t18.5 -8.5t14 -11q14 15 31 24.5t35 9.5q11 0 26 -5q24 14 45 14q26 0 42 -20.5t23 -55.5q27 -2 44 -15.5t17 -39.5q0 -8 -1 -12q23 -6 40.5 -23t29 -40t17.5 -48.5t6 -47.5zM558 167q7 -1 15.5 -1.5t18.5 -0.5q17 0 32 2t21 4
q12 4 31 21.5t37 40t30.5 46t12.5 40.5q0 20 -21 37t-55 17q1 -3 1 -9q0 -7 -3 -12.5t-6.5 -10.5t-6.5 -10.5t-3 -12.5q-13 -45 -39.5 -85t-64.5 -66zM202 -250v186h117v-28h-86v-49h55v-28h-55v-81h-31zM344 -250v186h117v-28h-86v-49h55v-28h-55v-81h-31zM517 -92v-66h17
q16 0 28 7.5t13 26.5q-1 17 -11.5 24.5t-26.5 7.5h-20zM486 -64h47q29 0 51 -12.5t22 -46.5q0 -31 -19.5 -47t-47.5 -16h-22v-64h-31v186z" />
    <glyph glyph-name="seven" unicode="7" 
d="M638 55q4 0 6 -0.5t8 -0.5q23 0 32 10.5t9 25.5q0 17 -7.5 40.5t-9.5 41.5q-12 -11 -25 -15t-29 -5q13 -13 21.5 -28t8.5 -32q0 -20 -14 -37zM343 197q9 -18 14 -28.5t9.5 -17.5t10 -13t13.5 -15q12 -13 30.5 -29t40 -30.5t44 -24t43.5 -9.5q15 0 31 5.5t29 14t21.5 20
t8.5 23.5q0 14 -11.5 29.5t-26.5 28.5h-27q-9 0 -18.5 1t-16.5 3q-31 -14 -58 -14q-28 0 -53 13.5t-44 39.5q-12 5 -23.5 10t-23.5 11v-4zM282 52q8 -8 18 -18.5t21.5 -20t23.5 -16t24 -6.5t23 6.5t21 16t17.5 21.5t13.5 23q-23 17 -45 35.5t-38 41.5q-10 -18 -26 -29.5
t-34 -19.5q-2 -8 -8 -17.5t-11 -16.5zM117 136q0 -19 9.5 -36t24.5 -30.5t34 -21.5t37 -8q21 0 35.5 11t24.5 28q-15 -4 -32 -4q-39 0 -72 19.5t-61 45.5v-4zM50 350q-5 -14 -8.5 -31.5t-3.5 -34.5q0 -24 8.5 -52t29.5 -44q5 -4 9 -5.5t7 -2.5t6 -2.5t8 -5.5
q32 -32 65.5 -57t74.5 -25q13 0 28.5 3t30 10t26.5 18.5t20 27.5q-6 10 -11.5 20t-10.5 21l-5 -9q0 -4 0.5 -6t0.5 -8q0 -35 -20 -50.5t-48 -15.5t-57 13t-53 32.5t-39.5 42.5t-15.5 43q0 14 7 27.5t20 24.5q-23 8 -40.5 26.5t-28.5 39.5zM239 501q-8 4 -19.5 10t-24.5 11.5
t-27 9.5t-26 4h-4q-50 0 -72.5 -30t-22.5 -69q0 -23 6.5 -45.5t18.5 -42t29 -34t38 -20.5q9 5 18 7t19 4l-7 3q-8 5 -14 17t-9.5 26t-5.5 27.5t-2 22.5q0 39 26 64t81 30zM317 638q-7 9 -27 17t-34 8h-4q-11 0 -39 -13t-57.5 -32.5t-53 -41.5t-24.5 -40q27 15 57 15
q24 0 49 -8.5t47 -19.5l-4 16t-2 16q0 18 12.5 29.5t38.5 11.5q10 0 18 -2q5 12 10 23t13 21zM464 606q0 1 -0.5 1.5t-0.5 1.5l-2 4q-4 8 -10 17.5t-14 18t-18.5 14t-24.5 5.5q-21 0 -38 -12.5t-29.5 -31t-19 -40t-6.5 -40.5q9 25 28 41.5t44 16.5q18 0 36 -9l17 -9
q3 5 17.5 12.5t20.5 9.5zM513 617q-6 25 -17 43t-33 18q-14 0 -29 -7q18 -11 26.5 -27t18.5 -33q17 5 34 6zM573 552q1 4 1 11q0 22 -14.5 30.5t-34.5 8.5q-23 0 -47 -8t-38 -17q2 0 5 -1.5t5 -1.5q6 0 9.5 1.5t11.5 1.5q18 0 34.5 -10t30.5 -21l16 4t16 2h5zM393 317
q5 -17 5 -29q0 -14 -5.5 -26t-16.5 -26l15 -3q7 16 22.5 25.5t34.5 16t39 12.5t37 15t27.5 23.5t10.5 38.5q0 11 -4 28q-9 0 -16 3q-3 -6 -10 -15t-17 -18t-23 -15t-28 -6q-2 0 -3 0.5t-3 0.5q-15 -9 -31.5 -14.5t-33.5 -10.5zM428 344q0 3 0.5 4t0.5 5q0 12 -7 21.5t-18 16
t-24.5 10.5t-25.5 5q8 -19 16.5 -37t16.5 -38q11 3 21 5.5t20 7.5zM480 390q-9 -3 -17 -3q-11 0 -21.5 3.5t-22.5 6.5q11 -8 18 -19.5t7 -26.5q12 6 22 15.5t14 23.5zM481 361q23 10 40 28.5t17 47.5q0 15 -6.5 24.5t-26.5 9.5q-4 -19 -5 -37t-9 -33q5 -3 5 -9q0 -8 -6 -18
t-9 -13zM409 488q15 5 28 5q15 0 29 -6t23 -20q1 2 1 6.5v8.5q0 13 -10 22.5t-24 9.5q-13 0 -25 -8.5t-22 -17.5zM274 465q5 -11 9.5 -20t4.5 -27q0 -25 -6.5 -40t-6.5 -26q0 -9 7 -26.5t18.5 -35.5t27 -33t32.5 -18l3 4q8 12 14 22.5t6 21.5t-6.5 30t-15.5 39.5t-18 39.5
t-14 31q-2 6 -6 14.5t-9.5 16.5t-11.5 14t-12 6q-9 0 -16 -13zM585 424q-2 -8 -4.5 -15t-8.5 -12q5 -18 5 -36q0 -25 -9.5 -40.5t-25 -26t-34 -17t-37.5 -12.5t-36 -14t-28 -21q19 -4 31.5 -10.5t33.5 -6.5q28 0 54 14t46.5 36.5t33 51t12.5 57.5q0 18 -6.5 34.5t-26.5 17.5
zM290 580q-4 0 -6 0.5t-8 0.5q-14 0 -25 -5.5t-11 -22.5q0 -9 3 -19.5t7.5 -21t8.5 -19t7 -12.5q4 5 9.5 9t13.5 4q11 0 20.5 -9t16.5 -20.5t12 -23t8 -16.5l2 -4h4q8 0 16.5 -2t16.5 -4q0 1 5.5 10t14 19t19 18t21.5 8q12 0 20.5 -11t8.5 -25v-4q-2 -7 -5.5 -13.5
t-7.5 -6.5q-8 0 -8 8q0 5 3.5 8t3.5 8q0 2 -3.5 12t-11.5 10q-5 0 -11 -5t-12.5 -12t-11.5 -14t-8 -11q2 0 3 0.5t4 0.5q11 0 26.5 -6.5t27.5 -6.5q14 0 17.5 9.5t3.5 18.5q0 20 -11.5 33.5t-34.5 13.5q-14 0 -30 -6t-23 -18l-3 -9q-2 -6 -7 -6q-7 0 -7 9q2 12 11 26.5
t21.5 26.5t27 20t29.5 8q18 0 31.5 -12t18.5 -30q24 0 35 -14.5t11 -34.5q0 -13 -5 -28q6 -2 9 -2q8 0 11.5 13.5t3.5 23.5q0 17 -8 36t-21.5 36.5t-30.5 30t-35 15.5h-6q-11 0 -27.5 -6t-33.5 -18t-32.5 -30.5t-24.5 -43.5q-3 -8 -8 -8q-7 0 -7 10q0 12 8.5 26.5t21.5 28.5
t29.5 26t31.5 19q-12 5 -26.5 13t-28.5 8h-5q-27 -5 -41.5 -25.5t-18.5 -45.5q0 -4 -3.5 -7t-7.5 -3q-8 0 -10 13t-2 24t1 20t3 17zM189 468q1 -1 1 -4q-3 -20 -3 -38q0 -39 13.5 -72.5t45.5 -63.5q33 -32 68.5 -48.5t69.5 -31.5q10 -5 25.5 -10.5t26.5 -5.5h4l4 2t2 3
q-14 11 -22.5 13t-10.5 2q-27 4 -44.5 8t-30 10t-23 16t-22.5 27q-11 16 -22 36t-11 37q0 16 7 33t7 33q0 15 -7.5 30.5t-18.5 37.5q-15 -1 -30 -4t-29 -10zM213 304q-1 -4 -11 -15.5t-10 -32.5q0 -15 7 -30t18.5 -27t26.5 -20t32 -8q15 0 23.5 6t13 14.5t6 16.5t3.5 13
q-31 15 -59.5 35t-49.5 48zM174 459q-14 -11 -19.5 -26t-5.5 -32q0 -16 3.5 -32.5t10.5 -30.5l7 -14q5 -5 12.5 -7.5t14.5 -2.5l10 -2q-18 26 -26.5 54.5t-8.5 58.5q0 9 0.5 17.5t1.5 16.5zM187 293q-14 0 -28 -4.5t-25.5 -12t-19 -18.5t-7.5 -24q0 -19 14.5 -40t37 -38
t49.5 -28.5t51 -11.5q23 0 36.5 11.5t14.5 39.5q-8 -6 -17.5 -8.5t-18.5 -2.5q-18 0 -35.5 8.5t-31 23t-21.5 32.5t-8 37q0 18 9 36zM412 183q30 -27 68 -27q27 0 50.5 11.5t43.5 31t35.5 43.5t26.5 50q-8 -7 -17 -12t-19 -9q-10 -14 -25 -26.5t-32.5 -23t-36.5 -16.5
t-37 -6l-9 -2q0 -11 -7.5 -14.5t-16.5 -3.5q-7 0 -13 1t-11 3zM614 295q23 14 37 35t14 58q0 24 -6.5 50.5t-18.5 48.5t-29.5 36.5t-39.5 14.5q-9 0 -24 -4q17 -19 28.5 -41.5t11.5 -48.5v-5q26 -2 35.5 -21t9.5 -44q0 -22 -5.5 -43.5t-12.5 -35.5zM681 391q14 -1 29.5 -6
t29 -13.5t22.5 -21.5t9 -30t-8.5 -36t-21 -37.5t-26.5 -34.5t-24 -26q2 -14 3.5 -26.5t5.5 -26.5q0 -10 4.5 -22t4.5 -25q0 -20 -16.5 -33.5t-43.5 -13.5q-6 0 -12.5 0.5t-12.5 1.5q-35 -26 -72 -26q-24 0 -48.5 9.5t-47.5 24.5q-6 -13 -15.5 -26t-21 -23.5t-25 -17
t-26.5 -6.5q-14 0 -27 7t-25.5 17t-23.5 21.5t-21 20.5q-21 -17 -50 -17q-22 0 -43 9t-38 24.5t-27.5 35.5t-10.5 41q0 5 0.5 9t1.5 9l-13 13q-16 1 -28.5 12.5t-21 28t-13 37t-4.5 41.5q0 22 5 44t13 40q-14 34 -14 71q0 24 7.5 46t27.5 39v4q0 18 12 36.5t31 35t42.5 30.5
t45.5 24t40.5 16t27.5 6q5 0 13.5 -2t18 -5.5t18.5 -8.5t14 -11q14 15 31 24.5t35 9.5q11 0 26 -5q24 14 45 14q26 0 42 -20.5t23 -55.5q27 -2 44 -15.5t17 -39.5q0 -8 -1 -12q23 -6 40.5 -23t29 -40t17.5 -48.5t6 -47.5zM558 167q7 -1 15.5 -1.5t18.5 -0.5q17 0 32 2t21 4
q12 4 31 21.5t37 40t30.5 46t12.5 40.5q0 20 -21 37t-55 17q1 -3 1 -9q0 -7 -3 -12.5t-6.5 -10.5t-6.5 -10.5t-3 -12.5q-13 -45 -39.5 -85t-64.5 -66zM202 -250v186h117v-28h-86v-49h55v-28h-55v-81h-31zM344 -250v186h117v-28h-86v-49h55v-28h-55v-81h-31zM517 -92v-66h17
q16 0 28 7.5t13 26.5q-1 17 -11.5 24.5t-26.5 7.5h-20zM486 -64h47q29 0 51 -12.5t22 -46.5q0 -31 -19.5 -47t-47.5 -16h-22v-64h-31v186z" />
    <glyph glyph-name="eight" unicode="8" 
d="M638 55q4 0 6 -0.5t8 -0.5q23 0 32 10.5t9 25.5q0 17 -7.5 40.5t-9.5 41.5q-12 -11 -25 -15t-29 -5q13 -13 21.5 -28t8.5 -32q0 -20 -14 -37zM343 197q9 -18 14 -28.5t9.5 -17.5t10 -13t13.5 -15q12 -13 30.5 -29t40 -30.5t44 -24t43.5 -9.5q15 0 31 5.5t29 14t21.5 20
t8.5 23.5q0 14 -11.5 29.5t-26.5 28.5h-27q-9 0 -18.5 1t-16.5 3q-31 -14 -58 -14q-28 0 -53 13.5t-44 39.5q-12 5 -23.5 10t-23.5 11v-4zM282 52q8 -8 18 -18.5t21.5 -20t23.5 -16t24 -6.5t23 6.5t21 16t17.5 21.5t13.5 23q-23 17 -45 35.5t-38 41.5q-10 -18 -26 -29.5
t-34 -19.5q-2 -8 -8 -17.5t-11 -16.5zM117 136q0 -19 9.5 -36t24.5 -30.5t34 -21.5t37 -8q21 0 35.5 11t24.5 28q-15 -4 -32 -4q-39 0 -72 19.5t-61 45.5v-4zM50 350q-5 -14 -8.5 -31.5t-3.5 -34.5q0 -24 8.5 -52t29.5 -44q5 -4 9 -5.5t7 -2.5t6 -2.5t8 -5.5
q32 -32 65.5 -57t74.5 -25q13 0 28.5 3t30 10t26.5 18.5t20 27.5q-6 10 -11.5 20t-10.5 21l-5 -9q0 -4 0.5 -6t0.5 -8q0 -35 -20 -50.5t-48 -15.5t-57 13t-53 32.5t-39.5 42.5t-15.5 43q0 14 7 27.5t20 24.5q-23 8 -40.5 26.5t-28.5 39.5zM239 501q-8 4 -19.5 10t-24.5 11.5
t-27 9.5t-26 4h-4q-50 0 -72.5 -30t-22.5 -69q0 -23 6.5 -45.5t18.5 -42t29 -34t38 -20.5q9 5 18 7t19 4l-7 3q-8 5 -14 17t-9.5 26t-5.5 27.5t-2 22.5q0 39 26 64t81 30zM317 638q-7 9 -27 17t-34 8h-4q-11 0 -39 -13t-57.5 -32.5t-53 -41.5t-24.5 -40q27 15 57 15
q24 0 49 -8.5t47 -19.5l-4 16t-2 16q0 18 12.5 29.5t38.5 11.5q10 0 18 -2q5 12 10 23t13 21zM464 606q0 1 -0.5 1.5t-0.5 1.5l-2 4q-4 8 -10 17.5t-14 18t-18.5 14t-24.5 5.5q-21 0 -38 -12.5t-29.5 -31t-19 -40t-6.5 -40.5q9 25 28 41.5t44 16.5q18 0 36 -9l17 -9
q3 5 17.5 12.5t20.5 9.5zM513 617q-6 25 -17 43t-33 18q-14 0 -29 -7q18 -11 26.5 -27t18.5 -33q17 5 34 6zM573 552q1 4 1 11q0 22 -14.5 30.5t-34.5 8.5q-23 0 -47 -8t-38 -17q2 0 5 -1.5t5 -1.5q6 0 9.5 1.5t11.5 1.5q18 0 34.5 -10t30.5 -21l16 4t16 2h5zM393 317
q5 -17 5 -29q0 -14 -5.5 -26t-16.5 -26l15 -3q7 16 22.5 25.5t34.5 16t39 12.5t37 15t27.5 23.5t10.5 38.5q0 11 -4 28q-9 0 -16 3q-3 -6 -10 -15t-17 -18t-23 -15t-28 -6q-2 0 -3 0.5t-3 0.5q-15 -9 -31.5 -14.5t-33.5 -10.5zM428 344q0 3 0.5 4t0.5 5q0 12 -7 21.5t-18 16
t-24.5 10.5t-25.5 5q8 -19 16.5 -37t16.5 -38q11 3 21 5.5t20 7.5zM480 390q-9 -3 -17 -3q-11 0 -21.5 3.5t-22.5 6.5q11 -8 18 -19.5t7 -26.5q12 6 22 15.5t14 23.5zM481 361q23 10 40 28.5t17 47.5q0 15 -6.5 24.5t-26.5 9.5q-4 -19 -5 -37t-9 -33q5 -3 5 -9q0 -8 -6 -18
t-9 -13zM409 488q15 5 28 5q15 0 29 -6t23 -20q1 2 1 6.5v8.5q0 13 -10 22.5t-24 9.5q-13 0 -25 -8.5t-22 -17.5zM274 465q5 -11 9.5 -20t4.5 -27q0 -25 -6.5 -40t-6.5 -26q0 -9 7 -26.5t18.5 -35.5t27 -33t32.5 -18l3 4q8 12 14 22.5t6 21.5t-6.5 30t-15.5 39.5t-18 39.5
t-14 31q-2 6 -6 14.5t-9.5 16.5t-11.5 14t-12 6q-9 0 -16 -13zM585 424q-2 -8 -4.5 -15t-8.5 -12q5 -18 5 -36q0 -25 -9.5 -40.5t-25 -26t-34 -17t-37.5 -12.5t-36 -14t-28 -21q19 -4 31.5 -10.5t33.5 -6.5q28 0 54 14t46.5 36.5t33 51t12.5 57.5q0 18 -6.5 34.5t-26.5 17.5
zM290 580q-4 0 -6 0.5t-8 0.5q-14 0 -25 -5.5t-11 -22.5q0 -9 3 -19.5t7.5 -21t8.5 -19t7 -12.5q4 5 9.5 9t13.5 4q11 0 20.5 -9t16.5 -20.5t12 -23t8 -16.5l2 -4h4q8 0 16.5 -2t16.5 -4q0 1 5.5 10t14 19t19 18t21.5 8q12 0 20.5 -11t8.5 -25v-4q-2 -7 -5.5 -13.5
t-7.5 -6.5q-8 0 -8 8q0 5 3.5 8t3.5 8q0 2 -3.5 12t-11.5 10q-5 0 -11 -5t-12.5 -12t-11.5 -14t-8 -11q2 0 3 0.5t4 0.5q11 0 26.5 -6.5t27.5 -6.5q14 0 17.5 9.5t3.5 18.5q0 20 -11.5 33.5t-34.5 13.5q-14 0 -30 -6t-23 -18l-3 -9q-2 -6 -7 -6q-7 0 -7 9q2 12 11 26.5
t21.5 26.5t27 20t29.5 8q18 0 31.5 -12t18.5 -30q24 0 35 -14.5t11 -34.5q0 -13 -5 -28q6 -2 9 -2q8 0 11.5 13.5t3.5 23.5q0 17 -8 36t-21.5 36.5t-30.5 30t-35 15.5h-6q-11 0 -27.5 -6t-33.5 -18t-32.5 -30.5t-24.5 -43.5q-3 -8 -8 -8q-7 0 -7 10q0 12 8.5 26.5t21.5 28.5
t29.5 26t31.5 19q-12 5 -26.5 13t-28.5 8h-5q-27 -5 -41.5 -25.5t-18.5 -45.5q0 -4 -3.5 -7t-7.5 -3q-8 0 -10 13t-2 24t1 20t3 17zM189 468q1 -1 1 -4q-3 -20 -3 -38q0 -39 13.5 -72.5t45.5 -63.5q33 -32 68.5 -48.5t69.5 -31.5q10 -5 25.5 -10.5t26.5 -5.5h4l4 2t2 3
q-14 11 -22.5 13t-10.5 2q-27 4 -44.5 8t-30 10t-23 16t-22.5 27q-11 16 -22 36t-11 37q0 16 7 33t7 33q0 15 -7.5 30.5t-18.5 37.5q-15 -1 -30 -4t-29 -10zM213 304q-1 -4 -11 -15.5t-10 -32.5q0 -15 7 -30t18.5 -27t26.5 -20t32 -8q15 0 23.5 6t13 14.5t6 16.5t3.5 13
q-31 15 -59.5 35t-49.5 48zM174 459q-14 -11 -19.5 -26t-5.5 -32q0 -16 3.5 -32.5t10.5 -30.5l7 -14q5 -5 12.5 -7.5t14.5 -2.5l10 -2q-18 26 -26.5 54.5t-8.5 58.5q0 9 0.5 17.5t1.5 16.5zM187 293q-14 0 -28 -4.5t-25.5 -12t-19 -18.5t-7.5 -24q0 -19 14.5 -40t37 -38
t49.5 -28.5t51 -11.5q23 0 36.5 11.5t14.5 39.5q-8 -6 -17.5 -8.5t-18.5 -2.5q-18 0 -35.5 8.5t-31 23t-21.5 32.5t-8 37q0 18 9 36zM412 183q30 -27 68 -27q27 0 50.5 11.5t43.5 31t35.5 43.5t26.5 50q-8 -7 -17 -12t-19 -9q-10 -14 -25 -26.5t-32.5 -23t-36.5 -16.5
t-37 -6l-9 -2q0 -11 -7.5 -14.5t-16.5 -3.5q-7 0 -13 1t-11 3zM614 295q23 14 37 35t14 58q0 24 -6.5 50.5t-18.5 48.5t-29.5 36.5t-39.5 14.5q-9 0 -24 -4q17 -19 28.5 -41.5t11.5 -48.5v-5q26 -2 35.5 -21t9.5 -44q0 -22 -5.5 -43.5t-12.5 -35.5zM681 391q14 -1 29.5 -6
t29 -13.5t22.5 -21.5t9 -30t-8.5 -36t-21 -37.5t-26.5 -34.5t-24 -26q2 -14 3.5 -26.5t5.5 -26.5q0 -10 4.5 -22t4.5 -25q0 -20 -16.5 -33.5t-43.5 -13.5q-6 0 -12.5 0.5t-12.5 1.5q-35 -26 -72 -26q-24 0 -48.5 9.5t-47.5 24.5q-6 -13 -15.5 -26t-21 -23.5t-25 -17
t-26.5 -6.5q-14 0 -27 7t-25.5 17t-23.5 21.5t-21 20.5q-21 -17 -50 -17q-22 0 -43 9t-38 24.5t-27.5 35.5t-10.5 41q0 5 0.5 9t1.5 9l-13 13q-16 1 -28.5 12.5t-21 28t-13 37t-4.5 41.5q0 22 5 44t13 40q-14 34 -14 71q0 24 7.5 46t27.5 39v4q0 18 12 36.5t31 35t42.5 30.5
t45.5 24t40.5 16t27.5 6q5 0 13.5 -2t18 -5.5t18.5 -8.5t14 -11q14 15 31 24.5t35 9.5q11 0 26 -5q24 14 45 14q26 0 42 -20.5t23 -55.5q27 -2 44 -15.5t17 -39.5q0 -8 -1 -12q23 -6 40.5 -23t29 -40t17.5 -48.5t6 -47.5zM558 167q7 -1 15.5 -1.5t18.5 -0.5q17 0 32 2t21 4
q12 4 31 21.5t37 40t30.5 46t12.5 40.5q0 20 -21 37t-55 17q1 -3 1 -9q0 -7 -3 -12.5t-6.5 -10.5t-6.5 -10.5t-3 -12.5q-13 -45 -39.5 -85t-64.5 -66zM202 -250v186h117v-28h-86v-49h55v-28h-55v-81h-31zM344 -250v186h117v-28h-86v-49h55v-28h-55v-81h-31zM517 -92v-66h17
q16 0 28 7.5t13 26.5q-1 17 -11.5 24.5t-26.5 7.5h-20zM486 -64h47q29 0 51 -12.5t22 -46.5q0 -31 -19.5 -47t-47.5 -16h-22v-64h-31v186z" />
    <glyph glyph-name="nine" unicode="9" 
d="M638 55q4 0 6 -0.5t8 -0.5q23 0 32 10.5t9 25.5q0 17 -7.5 40.5t-9.5 41.5q-12 -11 -25 -15t-29 -5q13 -13 21.5 -28t8.5 -32q0 -20 -14 -37zM343 197q9 -18 14 -28.5t9.5 -17.5t10 -13t13.5 -15q12 -13 30.5 -29t40 -30.5t44 -24t43.5 -9.5q15 0 31 5.5t29 14t21.5 20
t8.5 23.5q0 14 -11.5 29.5t-26.5 28.5h-27q-9 0 -18.5 1t-16.5 3q-31 -14 -58 -14q-28 0 -53 13.5t-44 39.5q-12 5 -23.5 10t-23.5 11v-4zM282 52q8 -8 18 -18.5t21.5 -20t23.5 -16t24 -6.5t23 6.5t21 16t17.5 21.5t13.5 23q-23 17 -45 35.5t-38 41.5q-10 -18 -26 -29.5
t-34 -19.5q-2 -8 -8 -17.5t-11 -16.5zM117 136q0 -19 9.5 -36t24.5 -30.5t34 -21.5t37 -8q21 0 35.5 11t24.5 28q-15 -4 -32 -4q-39 0 -72 19.5t-61 45.5v-4zM50 350q-5 -14 -8.5 -31.5t-3.5 -34.5q0 -24 8.5 -52t29.5 -44q5 -4 9 -5.5t7 -2.5t6 -2.5t8 -5.5
q32 -32 65.5 -57t74.5 -25q13 0 28.5 3t30 10t26.5 18.5t20 27.5q-6 10 -11.5 20t-10.5 21l-5 -9q0 -4 0.5 -6t0.5 -8q0 -35 -20 -50.5t-48 -15.5t-57 13t-53 32.5t-39.5 42.5t-15.5 43q0 14 7 27.5t20 24.5q-23 8 -40.5 26.5t-28.5 39.5zM239 501q-8 4 -19.5 10t-24.5 11.5
t-27 9.5t-26 4h-4q-50 0 -72.5 -30t-22.5 -69q0 -23 6.5 -45.5t18.5 -42t29 -34t38 -20.5q9 5 18 7t19 4l-7 3q-8 5 -14 17t-9.5 26t-5.5 27.5t-2 22.5q0 39 26 64t81 30zM317 638q-7 9 -27 17t-34 8h-4q-11 0 -39 -13t-57.5 -32.5t-53 -41.5t-24.5 -40q27 15 57 15
q24 0 49 -8.5t47 -19.5l-4 16t-2 16q0 18 12.5 29.5t38.5 11.5q10 0 18 -2q5 12 10 23t13 21zM464 606q0 1 -0.5 1.5t-0.5 1.5l-2 4q-4 8 -10 17.5t-14 18t-18.5 14t-24.5 5.5q-21 0 -38 -12.5t-29.5 -31t-19 -40t-6.5 -40.5q9 25 28 41.5t44 16.5q18 0 36 -9l17 -9
q3 5 17.5 12.5t20.5 9.5zM513 617q-6 25 -17 43t-33 18q-14 0 -29 -7q18 -11 26.5 -27t18.5 -33q17 5 34 6zM573 552q1 4 1 11q0 22 -14.5 30.5t-34.5 8.5q-23 0 -47 -8t-38 -17q2 0 5 -1.5t5 -1.5q6 0 9.5 1.5t11.5 1.5q18 0 34.5 -10t30.5 -21l16 4t16 2h5zM393 317
q5 -17 5 -29q0 -14 -5.5 -26t-16.5 -26l15 -3q7 16 22.5 25.5t34.5 16t39 12.5t37 15t27.5 23.5t10.5 38.5q0 11 -4 28q-9 0 -16 3q-3 -6 -10 -15t-17 -18t-23 -15t-28 -6q-2 0 -3 0.5t-3 0.5q-15 -9 -31.5 -14.5t-33.5 -10.5zM428 344q0 3 0.5 4t0.5 5q0 12 -7 21.5t-18 16
t-24.5 10.5t-25.5 5q8 -19 16.5 -37t16.5 -38q11 3 21 5.5t20 7.5zM480 390q-9 -3 -17 -3q-11 0 -21.5 3.5t-22.5 6.5q11 -8 18 -19.5t7 -26.5q12 6 22 15.5t14 23.5zM481 361q23 10 40 28.5t17 47.5q0 15 -6.5 24.5t-26.5 9.5q-4 -19 -5 -37t-9 -33q5 -3 5 -9q0 -8 -6 -18
t-9 -13zM409 488q15 5 28 5q15 0 29 -6t23 -20q1 2 1 6.5v8.5q0 13 -10 22.5t-24 9.5q-13 0 -25 -8.5t-22 -17.5zM274 465q5 -11 9.5 -20t4.5 -27q0 -25 -6.5 -40t-6.5 -26q0 -9 7 -26.5t18.5 -35.5t27 -33t32.5 -18l3 4q8 12 14 22.5t6 21.5t-6.5 30t-15.5 39.5t-18 39.5
t-14 31q-2 6 -6 14.5t-9.5 16.5t-11.5 14t-12 6q-9 0 -16 -13zM585 424q-2 -8 -4.5 -15t-8.5 -12q5 -18 5 -36q0 -25 -9.5 -40.5t-25 -26t-34 -17t-37.5 -12.5t-36 -14t-28 -21q19 -4 31.5 -10.5t33.5 -6.5q28 0 54 14t46.5 36.5t33 51t12.5 57.5q0 18 -6.5 34.5t-26.5 17.5
zM290 580q-4 0 -6 0.5t-8 0.5q-14 0 -25 -5.5t-11 -22.5q0 -9 3 -19.5t7.5 -21t8.5 -19t7 -12.5q4 5 9.5 9t13.5 4q11 0 20.5 -9t16.5 -20.5t12 -23t8 -16.5l2 -4h4q8 0 16.5 -2t16.5 -4q0 1 5.5 10t14 19t19 18t21.5 8q12 0 20.5 -11t8.5 -25v-4q-2 -7 -5.5 -13.5
t-7.5 -6.5q-8 0 -8 8q0 5 3.5 8t3.5 8q0 2 -3.5 12t-11.5 10q-5 0 -11 -5t-12.5 -12t-11.5 -14t-8 -11q2 0 3 0.5t4 0.5q11 0 26.5 -6.5t27.5 -6.5q14 0 17.5 9.5t3.5 18.5q0 20 -11.5 33.5t-34.5 13.5q-14 0 -30 -6t-23 -18l-3 -9q-2 -6 -7 -6q-7 0 -7 9q2 12 11 26.5
t21.5 26.5t27 20t29.5 8q18 0 31.5 -12t18.5 -30q24 0 35 -14.5t11 -34.5q0 -13 -5 -28q6 -2 9 -2q8 0 11.5 13.5t3.5 23.5q0 17 -8 36t-21.5 36.5t-30.5 30t-35 15.5h-6q-11 0 -27.5 -6t-33.5 -18t-32.5 -30.5t-24.5 -43.5q-3 -8 -8 -8q-7 0 -7 10q0 12 8.5 26.5t21.5 28.5
t29.5 26t31.5 19q-12 5 -26.5 13t-28.5 8h-5q-27 -5 -41.5 -25.5t-18.5 -45.5q0 -4 -3.5 -7t-7.5 -3q-8 0 -10 13t-2 24t1 20t3 17zM189 468q1 -1 1 -4q-3 -20 -3 -38q0 -39 13.5 -72.5t45.5 -63.5q33 -32 68.5 -48.5t69.5 -31.5q10 -5 25.5 -10.5t26.5 -5.5h4l4 2t2 3
q-14 11 -22.5 13t-10.5 2q-27 4 -44.5 8t-30 10t-23 16t-22.5 27q-11 16 -22 36t-11 37q0 16 7 33t7 33q0 15 -7.5 30.5t-18.5 37.5q-15 -1 -30 -4t-29 -10zM213 304q-1 -4 -11 -15.5t-10 -32.5q0 -15 7 -30t18.5 -27t26.5 -20t32 -8q15 0 23.5 6t13 14.5t6 16.5t3.5 13
q-31 15 -59.5 35t-49.5 48zM174 459q-14 -11 -19.5 -26t-5.5 -32q0 -16 3.5 -32.5t10.5 -30.5l7 -14q5 -5 12.5 -7.5t14.5 -2.5l10 -2q-18 26 -26.5 54.5t-8.5 58.5q0 9 0.5 17.5t1.5 16.5zM187 293q-14 0 -28 -4.5t-25.5 -12t-19 -18.5t-7.5 -24q0 -19 14.5 -40t37 -38
t49.5 -28.5t51 -11.5q23 0 36.5 11.5t14.5 39.5q-8 -6 -17.5 -8.5t-18.5 -2.5q-18 0 -35.5 8.5t-31 23t-21.5 32.5t-8 37q0 18 9 36zM412 183q30 -27 68 -27q27 0 50.5 11.5t43.5 31t35.5 43.5t26.5 50q-8 -7 -17 -12t-19 -9q-10 -14 -25 -26.5t-32.5 -23t-36.5 -16.5
t-37 -6l-9 -2q0 -11 -7.5 -14.5t-16.5 -3.5q-7 0 -13 1t-11 3zM614 295q23 14 37 35t14 58q0 24 -6.5 50.5t-18.5 48.5t-29.5 36.5t-39.5 14.5q-9 0 -24 -4q17 -19 28.5 -41.5t11.5 -48.5v-5q26 -2 35.5 -21t9.5 -44q0 -22 -5.5 -43.5t-12.5 -35.5zM681 391q14 -1 29.5 -6
t29 -13.5t22.5 -21.5t9 -30t-8.5 -36t-21 -37.5t-26.5 -34.5t-24 -26q2 -14 3.5 -26.5t5.5 -26.5q0 -10 4.5 -22t4.5 -25q0 -20 -16.5 -33.5t-43.5 -13.5q-6 0 -12.5 0.5t-12.5 1.5q-35 -26 -72 -26q-24 0 -48.5 9.5t-47.5 24.5q-6 -13 -15.5 -26t-21 -23.5t-25 -17
t-26.5 -6.5q-14 0 -27 7t-25.5 17t-23.5 21.5t-21 20.5q-21 -17 -50 -17q-22 0 -43 9t-38 24.5t-27.5 35.5t-10.5 41q0 5 0.5 9t1.5 9l-13 13q-16 1 -28.5 12.5t-21 28t-13 37t-4.5 41.5q0 22 5 44t13 40q-14 34 -14 71q0 24 7.5 46t27.5 39v4q0 18 12 36.5t31 35t42.5 30.5
t45.5 24t40.5 16t27.5 6q5 0 13.5 -2t18 -5.5t18.5 -8.5t14 -11q14 15 31 24.5t35 9.5q11 0 26 -5q24 14 45 14q26 0 42 -20.5t23 -55.5q27 -2 44 -15.5t17 -39.5q0 -8 -1 -12q23 -6 40.5 -23t29 -40t17.5 -48.5t6 -47.5zM558 167q7 -1 15.5 -1.5t18.5 -0.5q17 0 32 2t21 4
q12 4 31 21.5t37 40t30.5 46t12.5 40.5q0 20 -21 37t-55 17q1 -3 1 -9q0 -7 -3 -12.5t-6.5 -10.5t-6.5 -10.5t-3 -12.5q-13 -45 -39.5 -85t-64.5 -66zM202 -250v186h117v-28h-86v-49h55v-28h-55v-81h-31zM344 -250v186h117v-28h-86v-49h55v-28h-55v-81h-31zM517 -92v-66h17
q16 0 28 7.5t13 26.5q-1 17 -11.5 24.5t-26.5 7.5h-20zM486 -64h47q29 0 51 -12.5t22 -46.5q0 -31 -19.5 -47t-47.5 -16h-22v-64h-31v186z" />
    <glyph glyph-name="colon" unicode=":" horiz-adv-x="130" 
d="M87 23q0 -34 -23 -34q-37 0 -37 39q0 29 29 29q31 0 31 -34zM87 238q0 -34 -23 -34q-37 0 -37 39q0 29 29 29q31 0 31 -34z" />
    <glyph glyph-name="semicolon" unicode=";" horiz-adv-x="127" 
d="M88 238q0 -34 -23 -34q-37 0 -37 39q0 29 29 29q31 0 31 -34zM47 51q0 8 5 11.5t10 3.5q13 0 15.5 -16t2.5 -30q0 -13 -2.5 -30.5t-7.5 -33.5t-12 -27.5t-17 -11.5q-6 0 -10 4.5t-4 9.5q0 4 2 8q11 21 16 38.5t5 37.5q0 14 -3 32v4z" />
    <glyph glyph-name="less" unicode="&#x3c;" horiz-adv-x="287" 
d="M50 171q27 -14 59 -27q23 -9 46 -17t46 -15q6 -2 9 -6.5t3 -9.5q0 -6 -4 -11t-12 -5l-5 1q-15 3 -41 12t-54 20.5t-52.5 23.5t-36.5 21q-8 6 -8 14q0 10 8 15q21 13 45 23t46 21q22 10 41 21.5t39 23.5q5 3 7.5 3.5t4.5 0.5q6 0 11 -4.5t5 -11.5q0 -10 -8 -15
q-33 -24 -72.5 -41.5t-76.5 -36.5z" />
    <glyph glyph-name="equal" unicode="=" horiz-adv-x="307" 
d="M59 359q-11 0 -15 4.5t-4 10.5q0 9 12.5 14t31.5 7.5t41 3t40 0.5q17 0 35.5 -0.5t34 -2t25.5 -6t10 -11.5t-5 -11t-10 -4q-19 0 -46.5 2.5t-61.5 2.5q-23 0 -44.5 -4t-43.5 -6zM55 260q-8 0 -11.5 5t-3.5 10q0 9 12.5 14t31.5 7.5t41 3t40 0.5q17 0 35.5 -0.5t34 -2
t25.5 -6t10 -11.5q0 -6 -4 -10.5t-11 -4.5q-19 0 -46.5 2.5t-61.5 2.5q-23 0 -45 -4t-47 -6z" />
    <glyph glyph-name="greater" unicode="&#x3e;" horiz-adv-x="287" 
d="M235 171q-37 19 -76.5 36.5t-72.5 41.5q-8 5 -8 15q0 7 5 11.5t11 4.5q2 0 4.5 -0.5t7.5 -3.5q20 -12 39 -23.5t41 -21.5q22 -11 46 -21t45 -23q8 -5 8 -15q0 -8 -8 -14q-12 -9 -36.5 -21t-52.5 -23.5t-54 -20.5t-41 -12l-5 -1q-8 0 -12 5t-4 11q0 5 3 9.5t9 6.5
q23 7 46 15t46 17q32 13 59 27z" />
    <glyph glyph-name="question" unicode="?" horiz-adv-x="337" 
d="M34 520q0 -13 4 -25t8.5 -22t8.5 -17.5t4 -11.5q0 -7 -5.5 -11.5t-12.5 -4.5q-8 0 -15.5 11t-13 26t-8.5 31.5t-3 27.5q0 32 12 60t33 48.5t48.5 32.5t57.5 12q29 0 54 -11t43.5 -31.5t29 -48.5t10.5 -62q0 -32 -11.5 -61.5t-29 -57t-37.5 -54t-37.5 -53.5t-29 -54.5
t-11.5 -56.5q0 -18 4 -34l1 -5q0 -6 -4.5 -11t-13.5 -5q-12 0 -16.5 14.5t-4.5 33.5q0 53 24.5 96.5t54 83.5t54 78t24.5 80q0 21 -6.5 43t-19 40.5t-31 30t-42.5 11.5q-23 0 -45 -9t-39.5 -25.5t-28 -39t-10.5 -49.5zM159 23q0 -34 -23 -34q-37 0 -37 39q0 29 29 29
q31 0 31 -34z" />
    <glyph glyph-name="at" unicode="@" horiz-adv-x="527" 
d="M256 156q21 0 34 13.5t20.5 33t10 42t2.5 40.5q0 33 -3.5 68.5t-10 65t-17 48.5t-24.5 19q-15 0 -27 -12.5t-21 -32.5t-16 -44t-11 -48t-6 -44t-2 -31q0 -21 3 -42t11.5 -38t22 -27.5t34.5 -10.5zM333 180q-11 -23 -29 -38.5t-47 -15.5q-28 0 -47.5 12t-32 32t-18 46
t-5.5 54q0 39 7.5 82t22.5 79.5t36.5 60.5t48.5 24q28 0 44.5 -26.5t25.5 -61t12 -69t3 -49.5q0 -12 -1 -25.5t-1 -30.5q0 -14 2 -31t6.5 -32t11.5 -25t17 -10q13 1 23 22.5t16.5 50t10 58.5t3.5 49q0 46 -9.5 91.5t-30 82.5t-52.5 60t-77 23q-56 0 -97.5 -24.5t-69 -64
t-41 -90.5t-13.5 -104t14 -106t43 -95t75 -68.5t110 -26.5q38 0 77 10.5t69 30.5q7 5 14.5 12.5t14.5 15t12.5 13t9.5 5.5q6 0 10.5 -4.5t4.5 -10.5q0 -5 -2 -8q-17 -27 -42 -45t-54 -29t-59 -15.5t-56 -4.5q-68 0 -119 28t-85 73.5t-51 104t-17 118.5q0 58 16 114.5
t48 101.5t78.5 72.5t108.5 27.5q59 0 97.5 -29t61.5 -72.5t32.5 -94.5t9.5 -96q0 -17 -4 -51t-14 -68.5t-26.5 -60.5t-41.5 -26q-22 0 -35 17t-19 37z" />
    <glyph glyph-name="A" unicode="A" horiz-adv-x="434" 
d="M130 297q81 28 163 41q-12 97 -12 196v32.5t1 32.5q-51 -68 -88.5 -144.5t-63.5 -157.5zM91 282q26 90 66 172.5t93 160.5q4 6 10.5 14t13.5 15.5t14.5 12.5t13.5 5q15 -3 15 -17v-6q0 -22 -1.5 -49.5t-1.5 -65.5q0 -125 16.5 -219.5t37 -161t37 -104.5t16.5 -48
q0 -8 -5.5 -12t-11.5 -4q-9 0 -14 8q-18 34 -32.5 73.5t-25.5 81.5t-20 84.5t-15 82.5q-46 -8 -90 -19.5t-88 -27.5q-11 -39 -21.5 -94.5t-10.5 -137.5q0 -11 -2.5 -18.5t-13.5 -7.5q-15 0 -17 17q0 61 6.5 116t20.5 109q-12 -5 -25.5 -11.5t-26.5 -13t-24 -11t-17 -4.5
q-17 0 -17 14q0 6 14 15t33.5 19t39.5 18.5t33 13.5z" />
    <glyph glyph-name="B" unicode="B" horiz-adv-x="401" 
d="M61 56q26 -10 55 -16.5t58 -6.5q30 0 57.5 10t49.5 29t35 46t13 60q0 44 -21.5 78t-55.5 58t-76 37t-82 16q-7 0 -13 6q-11 -51 -19.5 -109.5t-8.5 -115.5q0 -46 8 -92zM176 386q36 -11 69.5 -29.5t59.5 -44.5t42 -59.5t16 -72.5q0 -42 -16 -75.5t-42 -57t-60 -35.5
t-71 -12q-26 0 -52.5 5t-51.5 13l4 -16q0 -6 -5.5 -10t-11.5 -4q-5 0 -9.5 2.5t-6.5 9.5q-11 32 -15.5 73t-4.5 96q0 44 7.5 100t21 115t32 116t39.5 103q3 8 14 8q6 0 11.5 -4t5.5 -12q0 -3 -2 -9q-19 -47 -35 -93t-28 -95l76 18q22 5 48.5 15.5t50 26t39 38t15.5 51.5
q0 24 -13.5 41t-33.5 27.5t-43.5 15.5t-44.5 5q-47 0 -87.5 -17t-78.5 -46q-6 -5 -13 -5t-11 5t-4 11q0 8 5 12q18 17 40.5 30.5t47.5 23t51 14.5t51 5q33 0 63 -9t53.5 -25t37 -38.5t13.5 -49.5q0 -34 -16 -60t-41 -45.5t-55.5 -33t-60.5 -22.5z" />
    <glyph glyph-name="C" unicode="C" horiz-adv-x="366" 
d="M172 21q36 0 62 28t43 67t27.5 80t15.5 68q3 12 16 12q6 0 11 -4t5 -13v-4q-9 -48 -22 -95.5t-34 -86t-52.5 -62t-78.5 -23.5q-49 0 -80.5 27t-50 66.5t-26 85.5t-7.5 84q0 35 7.5 80t21.5 93t35.5 94t48.5 82t60.5 58t72.5 22q22 0 38.5 -10t27.5 -26.5t16.5 -37
t5.5 -40.5q0 -52 -26 -101.5t-68 -84.5q-5 -5 -12 -5t-11.5 5.5t-4.5 11.5q0 7 5 11q15 13 30 31t26.5 38t19 41.5t7.5 42.5q0 10 -2 26t-7.5 30t-16 24.5t-26.5 10.5q-33 0 -62 -22t-53 -57.5t-42.5 -79.5t-31.5 -88.5t-19.5 -85t-6.5 -68.5q0 -32 6.5 -71t22 -73.5
t42 -57.5t67.5 -23z" />
    <glyph glyph-name="D" unicode="D" horiz-adv-x="427" 
d="M124 13q55 18 101.5 55t80 85t52.5 104t19 113q0 43 -15 90.5t-43.5 87t-68.5 65t-91 25.5q-31 0 -54.5 -12t-42 -32.5t-31.5 -46.5t-23 -54q-3 -12 -15 -12q-7 0 -12 4.5t-5 12.5q0 5 1 7q9 30 25 60t38.5 53.5t52 38t65.5 14.5q56 0 102 -26t79 -68.5t51 -97t18 -110.5
q0 -65 -21 -127t-59.5 -114.5t-92 -92t-118.5 -59.5h-4q-13 0 -17 12q-14 51 -20 103.5t-6 106.5q0 105 16.5 203.5t48.5 204.5q3 12 16 12q6 0 11.5 -4.5t5.5 -11.5l-1 -5q-13 -50 -24.5 -97t-20 -95t-13.5 -98t-5 -104q0 -48 4.5 -96t15.5 -94z" />
    <glyph glyph-name="E" unicode="E" horiz-adv-x="374" 
d="M96 600q-7 -2 -18 -6.5t-20 -4.5q-7 0 -12 4.5t-5 12.5q0 10 12 15q54 23 121.5 32.5t130.5 9.5h27t26 -2q16 -2 16 -17q0 -16 -16 -16q-17 1 -33.5 1h-45.5q-36 -1 -72 -5.5t-71 -13.5q-26 -56 -43 -115t-29 -119q81 26 164 26q22 0 45 -3q16 -2 16 -17q0 -16 -16 -16
q-16 1 -31.5 1.5t-31.5 0.5q-78 -1 -153 -28q-11 -64 -18 -128t-7 -130v-17.5t1 -17.5q44 32 102.5 49.5t115.5 17.5h20t19 -2q7 -2 12 -5.5t5 -11.5q0 -6 -4.5 -11t-12.5 -5q-9 1 -18 1.5t-19 0.5q-59 0 -116.5 -18.5t-106.5 -61.5q-7 -5 -11 -5q-6 0 -11 4.5t-6 11.5
q-2 14 -2 30v42q0 129 22.5 260t73.5 256z" />
    <glyph glyph-name="F" unicode="F" horiz-adv-x="276" 
d="M88 589q-9 -3 -19.5 -7t-18.5 -4q-7 0 -10.5 5t-3.5 11q0 5 2.5 9.5t9.5 6.5q58 23 122 34t126 16q12 1 24.5 1.5t24.5 0.5q16 0 16 -16q0 -15 -16 -17q-56 -4 -107 -9t-112 -20q-18 -57 -33.5 -114t-26.5 -115q35 11 79 19.5t84 8.5h14t13 -1q16 -2 16 -16
q0 -15 -16 -17h-14q-46 0 -90.5 -7t-92.5 -25q-11 -63 -17.5 -126.5t-6.5 -128.5q0 -32 7 -64q0 -7 -4 -12.5t-13 -5.5q-12 0 -15 12q-5 20 -6.5 41t-1.5 43q0 14 0.5 27.5t1.5 27.5q5 112 28 223.5t56 218.5z" />
    <glyph glyph-name="G" unicode="G" horiz-adv-x="378" 
d="M290 250q-26 -31 -39 -69.5t-17 -78.5q30 28 43 68t13 80zM199 46q-26 -8 -51 -8q-38 0 -66 14.5t-46 39.5t-27 58.5t-9 71.5q0 37 7.5 84t22 95.5t36 95.5t50 83.5t63 59t75.5 22.5q22 0 40 -10.5t31 -27.5t19.5 -38t6.5 -43q0 -27 -8.5 -55t-23 -53.5t-33 -47.5
t-37.5 -39q-7 -5 -12 -5t-10.5 4t-5.5 11q0 8 11.5 20t19.5 20q27 27 46.5 65t19.5 83q0 37 -18.5 59.5t-47.5 22.5q-34 0 -63.5 -22.5t-53.5 -58t-42.5 -80.5t-31.5 -89.5t-19.5 -84.5t-6.5 -67q0 -26 5.5 -54t18.5 -50.5t35 -37t54 -14.5q27 0 52 10q2 61 23.5 118.5
t68.5 99.5q5 5 13 5q13 0 15.5 -16.5t2.5 -39.5q0 -27 -5.5 -54t-16.5 -52t-28 -46t-41 -35q0 -71 12 -132t39 -123q1 -2 1 -5q0 -7 -5.5 -11.5t-11.5 -4.5q-11 0 -15 12q-20 59 -35.5 123.5t-17.5 126.5z" />
    <glyph glyph-name="H" unicode="H" horiz-adv-x="429" 
d="M332 376q16 4 35.5 6.5t39.5 2.5q8 0 12 -5t4 -11q0 -5 -4 -11t-12 -6q-20 -1 -40 -3t-40 -7q-6 -42 -10 -84.5t-4 -86.5q0 -42 4.5 -81t13.5 -81v-4q0 -8 -5 -12.5t-11 -4.5q-5 0 -9.5 3t-6.5 9q-12 38 -15 81t-3 88q0 84 12 167q-112 -23 -215 -69q-2 -28 -3.5 -55.5
t-1.5 -55.5q0 -42 2.5 -83.5t13.5 -87.5v-4q0 -8 -5 -12.5t-11 -4.5t-9 4.5t-7 19.5q-10 42 -13.5 85t-3.5 88t3 90q-11 -5 -21 -11t-21 -12q-3 -2 -8 -2q-8 0 -12.5 5t-4.5 12q0 9 8 14q14 10 31 18t32 14q11 96 28.5 192t49.5 194q3 13 16 13q6 0 11 -4.5t5 -13.5
q0 -5 -1 -8q-26 -88 -44.5 -177t-29.5 -180q52 22 106 38.5t110 26.5q11 68 29.5 143.5t46.5 137.5q5 12 16 12q7 0 12 -4.5t5 -11.5q0 -5 -3.5 -13t-6.5 -14q-11 -26 -21 -58t-18.5 -65t-15 -64.5t-10.5 -56.5z" />
    <glyph glyph-name="I" unicode="I" horiz-adv-x="208" 
d="M61 155q0 -30 2.5 -52.5t6 -38.5t7 -27t5.5 -18l1 -5q0 -8 -5 -12t-12 -4q-5 0 -9.5 2.5t-6.5 9.5q-13 32 -17.5 68t-4.5 76q0 61 8.5 125t24.5 127t39 122t51 109q5 8 14 8q7 0 12 -4t5 -12q0 -6 -2 -9q-24 -42 -45 -97t-37 -116t-26 -126t-11 -126z" />
    <glyph glyph-name="J" unicode="J" horiz-adv-x="360" 
d="M279 613q-43 -5 -80.5 -17.5t-75.5 -31.5q-6 -2 -9 -2q-5 0 -10.5 4t-5.5 12q0 10 8 15q48 29 98.5 42.5t113.5 13.5q23 0 55 -4t56 -12q12 -4 12 -15q0 -6 -4 -11.5t-12 -5.5q-3 0 -14.5 2.5t-27.5 5t-34.5 5t-35.5 2.5l-9 -186q-1 -30 -3.5 -73.5t-8.5 -91.5t-17 -95.5
t-29 -85t-44.5 -61t-63.5 -23.5q-35 0 -61 20.5t-43 51t-25.5 66t-8.5 65.5q0 22 2.5 50t9.5 56t18.5 53.5t28.5 42.5q5 5 11 5q7 0 12 -5t5 -12q0 -5 -5 -12q-28 -35 -38.5 -82.5t-10.5 -94.5q0 -23 6.5 -52t19.5 -55.5t33 -44.5t46 -18q28 0 48.5 21.5t34.5 57t23 80.5
t15 91.5t8.5 90.5t4.5 78z" />
    <glyph glyph-name="K" unicode="K" horiz-adv-x="416" 
d="M156 643q-17 -61 -30 -110q-6 -21 -11 -42t-9.5 -38t-7 -30t-2.5 -17q66 53 134.5 103t148.5 91q6 2 8 2q5 0 11 -4t6 -12q0 -9 -8 -14q-63 -36 -116.5 -72t-104.5 -75q0 -11 2 -44.5t7.5 -77t14 -91.5t21.5 -87.5t31 -65.5t41 -26q14 0 25.5 20t19.5 45t13.5 48t7.5 28
q2 6 6.5 9t9.5 3q6 0 11 -4.5t5 -12.5v-4q-3 -18 -9.5 -46.5t-18.5 -54.5t-29 -45t-41 -19q-32 0 -55.5 24t-40.5 62t-27.5 84t-16.5 90t-8.5 81t-2.5 57l-55 -45q-7 -27 -14 -61t-12 -71.5t-8.5 -76t-3.5 -75.5q0 -21 1.5 -42.5t6.5 -42.5l1 -5q0 -6 -4.5 -11t-12.5 -5
q-13 0 -16 12q-5 16 -7 36.5t-2 43.5q0 75 9 152t24 153t35 150t41 142q4 12 16 12q6 0 11 -4.5t5 -12.5v-4z" />
    <glyph glyph-name="L" unicode="L" horiz-adv-x="284" 
d="M33 36q35 25 75 41.5t85 16.5q10 0 22 -1t22.5 -4t17.5 -8t7 -13q0 -6 -4 -11t-13 -5q-16 5 -28 7t-26 2q-39 0 -78.5 -19t-86.5 -52q-6 -2 -8 -2q-12 0 -15 10t-3 24q0 131 30.5 258t78.5 252q4 11 11 27.5t15.5 32.5t16 27t13.5 11q8 0 12 -5t4 -10q-24 -48 -49.5 -116
t-47 -145.5t-36 -159.5t-15.5 -158z" />
    <glyph glyph-name="M" unicode="M" horiz-adv-x="470" 
d="M206 164q16 51 38 120.5t49.5 141t59 136.5t66.5 107q6 8 15 8q6 0 10.5 -4t4.5 -12v-4q-13 -63 -24 -120.5t-19.5 -112t-13 -108.5t-4.5 -110q0 -45 5.5 -92t24.5 -92q2 -6 5 -11.5t6 -11.5q2 -6 2 -8q0 -6 -4.5 -11t-12.5 -5q-9 0 -14 8q-15 22 -24 49.5t-13.5 57.5
t-6 60.5t-1.5 59.5q0 46 3.5 94.5t9.5 95.5t14 91.5t17 83.5q-29 -57 -52.5 -113t-44 -112.5t-39 -114t-37.5 -116.5q-3 -12 -16 -12q-8 0 -12 5q-14 15 -22.5 40t-13 53t-6 56.5t-1.5 51.5q0 65 7 131.5t16 123.5q-76 -134 -110.5 -287.5t-34.5 -314.5q0 -7 -5 -12t-11 -5
q-7 0 -12 5t-5 12q0 75 8 163t30 179t59.5 180.5t97.5 167.5q2 3 6 4t7 1q7 0 10.5 -5t4.5 -12v-4q-14 -82 -24.5 -162.5t-10.5 -168.5q0 -42 4 -79.5t14 -65.5z" />
    <glyph glyph-name="N" unicode="N" horiz-adv-x="423" 
d="M279 86q0 62 5 136t17 151.5t30.5 154t45.5 142.5q5 12 16 12q5 0 11 -4t6 -12q-26 -64 -44.5 -151.5t-30.5 -177.5t-17.5 -172.5t-5.5 -137.5q0 -10 -2.5 -22.5t-16.5 -12.5q-9 0 -13 8q-30 54 -55 127.5t-43.5 152.5t-28.5 156t-10 139q-50 -122 -75 -256.5t-25 -271.5
q0 -11 0.5 -22t0.5 -24q0 -17 -15 -17t-17 17q-1 8 -1.5 18.5t-0.5 22.5q0 152 29.5 307t103.5 301q6 12 16 12q5 0 10 -4t6 -12q1 -5 1 -9v-9q0 -59 7.5 -129t21.5 -142t32.5 -142.5t41.5 -128.5z" />
    <glyph glyph-name="O" unicode="O" horiz-adv-x="385" 
d="M172 628q-25 0 -46.5 -9t-39 -20.5t-30.5 -20.5t-21 -9q-5 0 -10.5 5t-5.5 12q0 5 5 12q30 28 69.5 46t79.5 18q44 0 78.5 -18t58 -50t36 -77t12.5 -100q0 -79 -16 -155.5t-46 -137t-71.5 -98t-92.5 -37.5q-39 0 -64.5 23t-40.5 60t-21 82t-6 89q0 63 13 118.5t38 108.5
q6 13 19 37t27.5 47.5t29 40.5t25.5 17q8 0 13 -5t5 -10q0 -7 -5.5 -13t-10.5 -13q-25 -30 -46.5 -70t-37 -82t-24.5 -83t-9 -73q0 -47 6 -90t17 -77t28 -54t38 -20q42 0 78.5 37.5t63.5 94.5t42 125t15 129q0 33 -8 71.5t-26 71.5t-47.5 55t-71.5 22z" />
    <glyph glyph-name="P" unicode="P" horiz-adv-x="331" 
d="M105 334q10 -3 20.5 -4t21.5 -1q39 0 75.5 13t65.5 37.5t46.5 59.5t17.5 79q0 22 -9 42.5t-25.5 35.5t-38.5 24t-47 9q-27 0 -54.5 -7.5t-50.5 -18.5q1 -9 1 -18.5v-18.5q0 -57 -6.5 -114t-16.5 -118zM124 638q26 11 53.5 17.5t55.5 6.5q29 0 56.5 -10.5t48.5 -29.5
t33.5 -45.5t12.5 -58.5q0 -51 -18.5 -92t-51 -70t-75.5 -44.5t-92 -15.5q-12 0 -23.5 1t-22.5 4q-7 -42 -12 -89.5t-5 -91.5q0 -23 2 -47t7 -49l1 -6q0 -7 -4 -12.5t-13 -5.5q-12 0 -15 12q-6 20 -8.5 46t-2.5 52q0 58 6.5 116.5t14.5 117.5t14.5 119t7.5 123
q-17 -10 -32 -21t-31 -23q-6 -5 -13 -5t-11 5t-4 12q0 6 5 11q17 17 40.5 32.5t43.5 25.5q0 10 -1.5 20t-2.5 21q0 7 5 12t12 5t11 -5t5.5 -11.5t2 -14t0.5 -12.5z" />
    <glyph glyph-name="Q" unicode="Q" horiz-adv-x="400" 
d="M191 56q28 30 52.5 75.5t43 97t29 105t10.5 98.5q0 33 -9.5 68t-28.5 63t-48.5 46t-68.5 18q-23 0 -45.5 -9t-40.5 -20q-21 -12 -40 -28q-7 -5 -12 -5q-7 0 -12 5t-5 12q0 6 5 11q30 29 69.5 48.5t81.5 19.5q44 0 79 -20t59 -53t36.5 -74.5t12.5 -84.5q0 -47 -11 -104
t-31 -112.5t-48 -104.5t-61 -82q15 -22 33 -39.5t39 -33.5q8 -6 8 -15q0 -16 -17 -16q-6 0 -8 2q-23 16 -44 37.5t-36 44.5q-9 -5 -18.5 -8.5t-19.5 -3.5q-39 0 -65.5 27t-43 66t-23.5 82t-7 75q0 41 10 89.5t27.5 97t42 92.5t53.5 77q4 5 11 5q6 0 11.5 -4.5t5.5 -11.5
t-4 -12q-26 -33 -49 -71.5t-39.5 -80.5t-26 -87t-9.5 -90q0 -21 4.5 -58t16 -73.5t32 -63t52.5 -26.5q11 0 21 7q-13 26 -23.5 56t-10.5 59q0 6 5 11t11 5q8 0 12 -5t5 -12q5 -49 27 -92z" />
    <glyph glyph-name="R" unicode="R" horiz-adv-x="342" 
d="M67 314q25 -36 52.5 -71t60 -70.5t70.5 -72.5t83 -76q5 -5 5 -11t-4.5 -11.5t-11.5 -5.5q-5 0 -12 5q-69 48 -131 118.5t-117 145.5q-6 -65 -6 -120q0 -30 1.5 -60.5t5.5 -65.5q0 -8 -4 -14.5t-14 -6.5q-8 0 -12.5 13.5t-6.5 32t-2.5 39.5t-0.5 36q0 55 1.5 99.5
t6.5 88.5q-8 10 -19.5 27t-11.5 27q0 16 17 16q8 -2 13.5 -3t10.5 -2q7 49 15 97.5t19 96.5q-17 -12 -31 -25q-7 -5 -12 -5q-7 0 -11.5 5t-4.5 11q0 5 5 12q11 13 30 27t34 23l11 49q2 6 6.5 9t9.5 3q11 0 13.5 -6t2.5 -11v-4l-4 -18q23 12 49 19t52 7q69 0 107.5 -42
t38.5 -108q0 -34 -13 -67.5t-40.5 -60t-70 -43t-101.5 -16.5q-18 0 -37 1.5t-40 5.5zM73 365q17 -3 35.5 -5t37.5 -2q39 0 73.5 9.5t60.5 29.5t41 51t16 74q-3 51 -33 79.5t-77 28.5q-30 0 -58.5 -10t-54.5 -27q-13 -57 -23 -113.5t-18 -114.5z" />
    <glyph glyph-name="S" unicode="S" horiz-adv-x="376" 
d="M250 179q-29 38 -63 67.5t-62.5 61.5t-47.5 71.5t-19 98.5q0 35 16.5 68.5t43.5 59t62 41t73 15.5q47 0 74.5 -27t27.5 -70q0 -37 -15.5 -69.5t-38 -57t-49 -38.5t-48.5 -14q-6 0 -12 4.5t-6 12.5q0 11 13 15q21 3 42.5 17.5t39.5 35t29.5 45t11.5 47.5q0 27 -18.5 47
t-47.5 20q-32 0 -62 -13t-52.5 -34.5t-36 -50.5t-13.5 -61q0 -44 18 -78.5t45 -65t58 -59t57 -60.5q17 -21 28 -47.5t11 -58.5q0 -27 -10 -46.5t-26.5 -31.5t-39 -18t-46.5 -6q-42 0 -76 10t-59 28.5t-38.5 44t-13.5 56.5q0 26 16 49t33 37q7 5 14 5t11 -5t4 -11t-6 -12
q-38 -38 -38 -66q0 -21 12 -40t33.5 -32.5t51.5 -21.5t66 -8q13 0 27 4.5t26 13.5t19.5 21.5t7.5 28.5q0 26 -6.5 43t-20.5 34z" />
    <glyph glyph-name="T" unicode="T" horiz-adv-x="353" 
d="M227 615q-49 -7 -97 -20.5t-94 -32.5q-11 -5 -21 -10.5t-22 -5.5q-8 0 -11.5 5t-3.5 11q0 9 8 14q96 49 200.5 67.5t230.5 18.5q6 0 18 -0.5t26 -1.5t26 -2t18 -2t9 -6t3 -10q0 -6 -4.5 -11t-15.5 -5q-23 4 -47 5.5t-48 1.5q-34 0 -68.5 -1.5t-69.5 -8.5
q-26 -86 -49 -174.5t-33 -178.5q-3 -28 -6 -57t-3 -63q0 -31 3 -66.5t11 -79.5q0 -2 0.5 -3t0.5 -2q0 -12 -12 -15q-2 -1 -5 -1q-12 0 -15 12q-9 42 -13 82t-4 79q0 62 7.5 121.5t20 116.5t28.5 113t32 110z" />
    <glyph glyph-name="U" unicode="U" horiz-adv-x="442" 
d="M328 216q0 42 2 77.5t5.5 69.5t9 66.5t13.5 68.5q-3 -11 -14 -52.5t-28.5 -97.5t-40.5 -118.5t-50.5 -115t-58 -87t-62.5 -34.5q-29 0 -46 23.5t-26.5 56t-12.5 67t-3 55.5q0 117 34 236.5t101 222.5q6 8 15 8q6 0 11 -4t5 -12q0 -3 -2 -9q-67 -112 -99.5 -219.5
t-32.5 -218.5q0 -9 2 -37t8 -58.5t17 -54t29 -23.5q21 0 42.5 24.5t43 66t42.5 96t41.5 114.5t40 121.5t38.5 117.5q2 7 7 21t12.5 27.5t18 24t22.5 10.5q7 0 12 -4.5t5 -11.5l-1 -5q-3 -12 -7 -23.5t-7 -22.5q-23 -87 -38 -179.5t-15 -180.5q0 -32 1.5 -58.5t5.5 -51.5
t10 -50.5t14 -54.5q1 -2 1 -5q0 -8 -5 -12t-12 -4q-5 0 -9.5 3t-6.5 9q-17 51 -24.5 101.5t-7.5 116.5z" />
    <glyph glyph-name="V" unicode="V" horiz-adv-x="367" 
d="M134 19q8 73 24 157.5t40 169t55.5 164t70.5 144.5q5 8 14 8q6 0 11 -4t5 -12q0 -2 -0.5 -4t-0.5 -3l-1 -2q-42 -72 -72 -149.5t-51.5 -158.5t-37 -165t-27.5 -169q-2 -16 -18 -17q-31 5 -52.5 41t-36.5 88.5t-23.5 115.5t-13 121.5t-5.5 107t-1 72.5q0 33 1 69.5t7 76.5
q1 6 4.5 11t11.5 5t12.5 -5t4.5 -11q-5 -35 -6.5 -72.5t-1.5 -84.5q0 -37 2 -83.5t6.5 -95.5t11.5 -98t16.5 -91.5t22 -75.5t28.5 -50z" />
    <glyph glyph-name="W" unicode="W" horiz-adv-x="454" 
d="M310 31q3 77 10.5 160.5t22.5 167t38.5 164t57.5 152.5q5 8 14 8q6 0 11 -4t5 -12q0 -3 -2 -9q-36 -91 -58 -173.5t-34.5 -162.5t-19.5 -162t-13 -173q-1 -8 -6 -12.5t-11 -4.5t-11 5q-27 28 -48 59t-35.5 72t-22.5 96t-8 131q-22 -46 -37 -91.5t-25.5 -88t-17.5 -82
t-13 -74.5l-6 -31q-2 -12 -15 -12q-11 0 -16 12q-20 56 -32.5 105.5t-19.5 96.5t-9.5 93.5t-2.5 96.5q0 71 4.5 144.5t21.5 145.5q3 12 16 12h4q12 -4 12 -20q-25 -128 -25 -276q0 -83 9.5 -166t32.5 -161q4 44 15 96t28 105t39 104t47 93q5 8 14 8q6 0 11.5 -4t5.5 -12
q-5 -35 -7.5 -69t-2.5 -72q0 -26 3.5 -58t12.5 -66t24 -67.5t39 -63.5z" />
    <glyph glyph-name="X" unicode="X" horiz-adv-x="416" 
d="M206 355q27 -67 50 -122.5t45.5 -102t45 -86t49.5 -73.5q5 -7 14 -17t9 -18q0 -7 -5.5 -11.5t-11.5 -4.5q-5 0 -9.5 4t-9.5 9t-10 13q-32 41 -58.5 87t-49 93.5t-42 96.5t-37.5 96q-37 -66 -69 -131t-62 -134q-5 -11 -11.5 -26.5t-13 -30t-12.5 -25t-10 -10.5
q-7 0 -12 4.5t-5 11.5q0 4 3.5 14.5t8.5 23t11 26t11 24.5q32 75 67.5 147t77.5 145q-27 64 -57.5 129t-62.5 122q-3 5 -8 12.5t-9.5 15t-8 14t-3.5 8.5q0 7 4.5 12t11.5 5q10 0 26.5 -24.5t34 -57.5t33.5 -66.5t24 -52.5l36 -83q33 53 67.5 102.5t71.5 97.5l15 20t18.5 23
t18.5 18.5t16 7.5q6 0 11 -4t5 -11q0 -3 -6 -11.5t-14.5 -19t-18 -21.5t-16.5 -19q-41 -52 -79 -107t-74 -113z" />
    <glyph glyph-name="Y" unicode="Y" horiz-adv-x="364" 
d="M181 598q-62 -60 -99 -136t-37 -158q0 -12 2 -25t7.5 -24t15.5 -19.5t26 -11.5q20 0 41.5 16t41.5 41.5t38.5 57t34 62t27.5 57t19 42.5q15 37 28.5 73.5t26.5 73.5q4 12 17 12q6 0 11 -4t5 -12q-16 -72 -40.5 -149t-48 -155t-40.5 -154.5t-17 -145.5q0 -26 4.5 -52
t15.5 -50q2 -6 2 -8q0 -6 -4.5 -11.5t-12.5 -5.5q-10 0 -17.5 16t-12 37t-6.5 42.5t-2 32.5q0 41 6 83.5t16 84.5t21.5 83t23.5 80q-12 -23 -30 -53.5t-41 -59t-50.5 -48t-57.5 -19.5q-23 0 -39 10.5t-25.5 27t-14 37t-4.5 40.5q0 38 11 84t31.5 91t48.5 83.5t61 61.5
q3 2 8 2q7 0 12 -4.5t5 -11.5t-8 -14z" />
    <glyph glyph-name="Z" unicode="Z" horiz-adv-x="342" 
d="M330 618q-37 -7 -91.5 -15.5t-106.5 -8.5q-29 0 -55 3.5t-46 12.5q-12 5 -12 15q0 15 17 17h4q15 -5 29.5 -9t30.5 -4q51 0 87.5 3.5t67 8.5t59.5 10.5t66 10.5q5 0 7 -1q8 -5 8 -14q0 -7 -5 -12q-55 -58 -110.5 -132.5t-103.5 -156t-84.5 -166t-54.5 -163.5
q44 3 79.5 11.5t68.5 22t66 30.5t72 36q6 2 8 2q9 0 14 -8q3 -5 3 -9q0 -9 -10 -14.5t-17 -9.5q-35 -18 -71 -35.5t-74.5 -30.5t-78 -21t-81.5 -8q-8 0 -12 5t-4 13q10 74 43.5 157.5t80.5 166t101 158.5t105 135z" />
    <glyph glyph-name="bracketleft" unicode="[" horiz-adv-x="291" 
d="M130 637q-6 -87 -11 -181t-5 -184q0 -68 2 -139t15 -133q19 2 35.5 8t33.5 14q3 2 6.5 3.5t7.5 1.5q6 0 11 -4.5t5 -11.5q0 -9 -12 -17t-29.5 -14t-36.5 -10t-33 -4q-9 0 -14 8q-4 7 -8 29t-6.5 53t-4.5 67t-3 71.5t-1.5 67.5t-0.5 54q0 45 1.5 94t4.5 96.5t6.5 90.5
t6.5 77q0 8 9.5 13.5t23 9t29.5 5t30 1.5q40 0 40 -17q0 -6 -4.5 -11.5t-12.5 -5.5q-36 0 -52 -1t-31 -6z" />
    <glyph glyph-name="backslash" unicode="\" horiz-adv-x="357" 
d="M16 705q6 0 14.5 -10.5t17.5 -25t17.5 -30.5t14.5 -28q69 -125 130 -254t108 -266q3 -10 9 -27t12 -35.5t10.5 -35t5.5 -25.5q0 -11 -5 -16t-11 -5q-5 0 -10.5 11.5t-11 28t-11 34t-9.5 30.5q-50 157 -121.5 307t-150.5 283q-7 11 -16 26.5t-9 22.5q0 8 5 11.5t11 3.5z
" />
    <glyph glyph-name="bracketright" unicode="]" horiz-adv-x="291" 
d="M181 662q-15 5 -31 6t-52 1q-8 0 -12.5 5.5t-4.5 11.5q0 17 40 17q13 0 29.5 -1.5t30 -5t23 -9t9.5 -13.5q3 -34 6.5 -77t6.5 -90.5t4.5 -96.5t1.5 -94q0 -22 -0.5 -54t-1.5 -67.5t-3 -71.5t-4.5 -67t-6.5 -53t-8 -29q-5 -8 -14 -8q-14 0 -33 4t-36.5 10t-29.5 14t-12 17
q0 7 5 11.5t11 4.5q4 0 7.5 -1.5t6.5 -3.5q17 -8 33.5 -14t35.5 -8q13 62 15 133t2 139q0 90 -5 184t-11 181z" />
    <glyph glyph-name="asciicircum" unicode="^" horiz-adv-x="296" 
d="M139 624q-9 -17 -17 -38.5t-15.5 -45t-14 -47t-12.5 -44.5q-2 -6 -6.5 -9t-9.5 -3q-6 0 -11 4t-5 12q4 17 13 48t20.5 63.5t23.5 61t21 40.5q6 8 14 8q5 0 9 -2t6 -6q20 -48 41.5 -96t47.5 -99q3 -5 3.5 -7.5t0.5 -4.5q0 -6 -4.5 -11t-11.5 -5q-10 0 -15 8
q-21 37 -42.5 85t-35.5 88z" />
    <glyph glyph-name="underscore" unicode="_" horiz-adv-x="500" 
d="M489 -76q14 -2 14 -16q0 -5 -5 -9.5t-11 -4.5q-44 2 -104.5 3t-125.5 1q-70 0 -134.5 -1t-106.5 -4q-16 0 -16 11q0 3 2 5q4 7 25 11.5t52.5 7t70.5 3.5t80 1q42 0 84 -1t77.5 -2t61 -2.5t36.5 -2.5z" />
    <glyph glyph-name="grave" unicode="`" horiz-adv-x="234" 
d="M16 505q0 17 16 17q4 0 8 -2t9 -9q11 -16 29 -34.5t38 -26.5q13 -5 17.5 -11t4.5 -12q0 -4 -5 -9.5t-17 -5.5q-9 0 -25 10.5t-32.5 25t-29 30.5t-13.5 27z" />
    <glyph glyph-name="a" unicode="a" horiz-adv-x="260" 
d="M132 33q-9 -22 -24.5 -38t-42.5 -16q-23 0 -39.5 12t-27.5 32t-16.5 46.5t-5.5 56.5q0 40 8 83.5t21 78.5t30.5 58t37.5 23q21 0 35.5 -19.5t23 -47.5t12.5 -59.5t5 -55.5q0 -12 0.5 -41.5t4 -60t11 -54t21.5 -23.5t23.5 21t16 47.5t10 51l4.5 31.5q2 11 15 11
q14 0 14 -15v-4q-2 -24 -7 -53.5t-14.5 -56t-25 -44.5t-37.5 -18q-23 0 -35 17t-18 37zM61 9q20 1 31.5 16.5t17.5 36.5t8 44t2 38q0 21 -2.5 54.5t-8.5 64.5t-14.5 53.5t-20.5 22.5q-3 0 -6 -3t-6 -7q-4 -4 -7 -9q-26 -42 -37.5 -93.5t-11.5 -98.5q0 -19 2.5 -39.5t8.5 -38
t16.5 -29t27.5 -12.5z" />
    <glyph glyph-name="b" unicode="b" horiz-adv-x="234" 
d="M35 230q4 16 12.5 39.5t20.5 45.5t26 37.5t31 15.5q31 0 45.5 -49t14.5 -129q0 -41 -5 -79.5t-16.5 -68.5t-30.5 -48t-46 -18q-18 0 -31 8q-2 -14 -15 -14q-11 0 -18 22.5t-11.5 55t-6.5 68t-2 61.5q0 28 3 75.5t8.5 101t13.5 108.5t17.5 99.5t20 72.5t22.5 28
q6 0 10.5 -4.5t4.5 -12.5q-13 -41 -24.5 -91t-20.5 -104.5t-15 -110.5t-8 -109zM84 6q24 1 38.5 23.5t22 53t9.5 62t2 50.5q0 14 -1.5 38t-5.5 47.5t-9.5 40.5t-13.5 17q-10 0 -20 -13t-19.5 -34.5t-18 -48.5t-14.5 -54t-9.5 -52t-3.5 -42q0 -14 1.5 -29.5t6.5 -28t13 -21
t22 -9.5z" />
    <glyph glyph-name="c" unicode="c" horiz-adv-x="165" 
d="M79 26q7 0 14 6t13.5 14.5t12 18.5t9.5 18q7 16 12 33t9.5 31.5t9 23.5t10.5 11q6 0 7.5 -5.5t1.5 -10.5q-1 -21 -8 -50t-20.5 -56t-33 -46t-43.5 -19q-30 0 -46.5 24.5t-24.5 56t-9.5 61t-1.5 40.5q0 31 4.5 67t15 67t26 51t38.5 20q19 0 32.5 -16t13.5 -41
q0 -22 -15 -22q-9 0 -11 7.5t-2.5 16.5t-3 16.5t-12.5 7.5q-12 0 -21.5 -11t-15.5 -28.5t-10 -39t-6 -42t-3 -37.5t-1 -26q0 -12 3 -35.5t9.5 -47t18 -41t28.5 -17.5z" />
    <glyph glyph-name="d" unicode="d" horiz-adv-x="249" 
d="M49 20q11 0 23.5 21.5t24 49t19.5 54.5t10 39q5 31 7.5 62t4.5 63q-8 15 -18.5 30.5t-26.5 15.5q-17 0 -32 -23.5t-26 -58.5t-17.5 -77t-6.5 -79q0 -41 9 -68.5t29 -28.5zM143 356q11 72 23 144.5t27 150.5q1 5 5.5 8t9.5 3t9.5 -3.5t4.5 -11.5v-4q-21 -136 -42 -271.5
t-28 -278.5q0 -3 0.5 -13t3 -20t6 -18t9.5 -8q10 0 21.5 24.5t21.5 56t18 61.5t11 41t14 11q1 0 2 -0.5t2 -0.5q11 -3 11 -18q-2 -9 -6 -28t-10.5 -41.5t-15 -46.5t-19.5 -44t-23.5 -32.5t-27.5 -12.5q-14 0 -22.5 8t-13.5 19.5t-7.5 25t-3.5 25.5q-4 -10 -10.5 -25.5
t-16.5 -30.5t-22 -25.5t-26 -10.5q-23 0 -36 14.5t-20 35.5t-9 44.5t-2 42.5q0 15 2 39.5t6.5 53t12.5 58t20.5 53.5t29.5 39t40 15q16 0 28.5 -8.5t22.5 -20.5z" />
    <glyph glyph-name="e" unicode="e" horiz-adv-x="179" 
d="M28 105q14 16 26.5 37t22.5 43.5t15.5 45.5t5.5 44q0 8 -1 19t-3.5 21.5t-6.5 18t-10 7.5q-10 0 -19.5 -20.5t-17 -49.5t-12 -62t-4.5 -58q0 -13 1 -24.5t3 -21.5zM194 150q-10 -31 -22.5 -60.5t-27.5 -52t-32 -36.5t-36 -14q-23 0 -38.5 18.5t-25.5 45t-14 54.5t-4 47
q0 32 5 70.5t15.5 71.5t26 55t36.5 22q16 0 26 -11.5t15.5 -27t7.5 -31t2 -23.5q0 -28 -8 -57t-20.5 -57t-29 -52t-33.5 -41q2 -7 5.5 -16t8 -17.5t11 -14t14.5 -5.5q12 0 24 11t23 29.5t20.5 42t18.5 48.5q3 13 7.5 17.5t9.5 4.5q6 0 10.5 -4.5t4.5 -16.5z" />
    <glyph glyph-name="f" unicode="f" horiz-adv-x="189" 
d="M34 288q17 28 39 70.5t41.5 88t32.5 89t13 75.5q0 20 -7 20q-20 0 -36.5 -20t-30 -51.5t-23 -70.5t-16 -77.5t-10 -71.5t-3.5 -52zM92 86q-1 6 -4.5 21.5t-9 31.5t-13.5 28.5t-17 12.5q-8 0 -11.5 -8t-3.5 -19q0 -10 2.5 -22t8.5 -22.5t15 -17.5t22 -7q7 0 11 2zM118 107
q33 43 51.5 90.5t29.5 102.5q2 12 15 12q14 0 14 -16v-4q-3 -27 -12 -59t-23 -63t-31.5 -57.5t-36.5 -41.5q7 -38 10.5 -86.5t3.5 -99.5q0 -13 -0.5 -35.5t-2 -47.5t-6 -51t-12 -47t-19 -34t-28.5 -13t-30 16t-22 42.5t-14.5 61t-9 70.5t-4.5 71t-1 63v37.5t1 24.5
q1 18 1.5 54.5t1.5 83.5t4.5 100.5t10.5 107t18.5 103t29 87.5t42.5 60.5t58 22.5q20 0 26.5 -14.5t6.5 -33.5q0 -52 -16 -106.5t-40 -105.5t-52.5 -96.5t-53.5 -79.5l-1 -21q7 5 20 5q18 0 30 -11t20 -26.5t13 -33.5t8 -32zM22 86q-1 -16 -1 -33.5v-36.5q0 -10 0.5 -38.5
t2.5 -65.5t5 -76.5t9 -72.5t14 -54.5t20 -21.5q13 0 20.5 29t11.5 65.5t5 69t1 40.5q0 42 -3.5 83t-9.5 82q-5 -2 -8.5 -2h-8.5q-17 0 -32.5 9t-25.5 23z" />
    <glyph glyph-name="g" unicode="g" horiz-adv-x="232" 
d="M169 -24q10 0 23.5 -3t26 -8t21.5 -11.5t9 -13.5t-4.5 -11.5t-10.5 -4.5q-4 0 -11 3.5t-15.5 8t-18.5 8t-20 3.5q0 -54 -5.5 -106t-18 -92.5t-33 -65.5t-50.5 -25q-23 0 -36 13.5t-19.5 32.5t-8.5 39t-2 33q0 34 9 66t26.5 58.5t44.5 45.5t63 27q0 12 0.5 24t0.5 25
t-0.5 26.5t-0.5 28.5q-7 -17 -16.5 -35t-22.5 -32.5t-29.5 -24t-36.5 -9.5q-31 0 -44.5 24.5t-13.5 69.5q0 23 3.5 51t9 56t12.5 54.5t14.5 47t14.5 33t13 12.5q16 0 16 -14q0 -5 -1 -7q-21 -55 -37 -115.5t-16 -123.5q0 -26 5.5 -42t22.5 -16q28 0 47.5 25t32.5 60t19 74
t6 67q0 8 -1.5 25t-7.5 34.5t-17 31t-30 13.5q-8 0 -13.5 -0.5t-7.5 -0.5q-6 0 -11.5 3t-5.5 11q0 10 11 13.5t24 3.5q33 0 51 -17.5t26.5 -43t10 -54t1.5 -49.5q1 -39 1.5 -78t0.5 -78zM138 -58q-59 -17 -85.5 -62.5t-26.5 -101.5q0 -6 1 -21t4.5 -30.5t10.5 -27t19 -11.5
q18 0 32 20.5t24 55.5t15.5 81t5.5 97z" />
    <glyph glyph-name="h" unicode="h" horiz-adv-x="247" 
d="M58 191q2 25 5 54.5t11 55t22.5 43t39.5 17.5q20 0 32.5 -14.5t19.5 -37t9.5 -49t2.5 -50.5v-18t-0.5 -32t-1 -61.5t-1.5 -105.5q-1 -6 -5 -10.5t-10 -4.5q-7 0 -11 4.5t-4 10.5v7q0 10 0.5 27.5t1.5 39t1.5 46.5t0.5 51q0 33 -1.5 63t-5.5 53.5t-11.5 37t-18.5 13.5
t-19 -15t-13.5 -38.5t-9.5 -51.5t-6 -53t-3.5 -44t-1.5 -24q-1 -14 -3 -35.5t-5.5 -42t-9 -35t-13.5 -14.5q-11 0 -14 11q-17 64 -24.5 137t-7.5 139q0 29 2.5 69t6.5 83t10 85.5t13 77t15.5 57t17.5 26.5q9 0 12 -4.5t3 -9.5q-23 -101 -36.5 -196t-13.5 -189q0 -91 15 -185
z" />
    <glyph glyph-name="i" unicode="i" horiz-adv-x="132" 
d="M72 409q0 -34 -23 -34q-37 0 -37 39q0 29 29 29q31 0 31 -34zM44 30q9 0 18.5 10.5t17 24.5t13 29t7.5 23q2 6 6 8.5t8 2.5q5 0 10.5 -4t5.5 -11q0 -9 -7 -27.5t-18.5 -37.5t-27 -33.5t-32.5 -14.5q-18 0 -28.5 14.5t-15 34.5t-5.5 41.5t-1 35.5q0 27 2 55.5t5 54.5
t7 47.5t8 35.5q3 11 15 11q8 0 11.5 -5t3.5 -10q-12 -48 -17 -93t-5 -92q0 -11 0.5 -28t2 -33t5.5 -27.5t11 -11.5z" />
    <glyph glyph-name="j" unicode="j" horiz-adv-x="136" 
d="M106 409q0 -34 -23 -34q-37 0 -37 39q0 29 29 29q31 0 31 -34zM69 -109q10 0 26.5 -1.5t31.5 -4.5t26 -8t11 -12q0 -5 -4 -10t-11 -5q-14 0 -38.5 5t-44.5 6q-5 -32 -13 -68t-22.5 -66t-37 -50t-56.5 -20t-53.5 27.5t-19.5 64.5q0 25 9.5 50t30.5 45t54.5 33.5t80.5 14.5
q8 78 9 156l2 156v47.5t1.5 39t5 26t10.5 9.5t11 -4.5t4 -10.5v-8q0 -98 -2 -199t-11 -213zM-106 -252q0 -9 2.5 -19.5t7.5 -19.5t13 -15t20 -6q25 0 42 16.5t28 42t18 56t11 59.5q-24 0 -49 -6t-46 -19.5t-34 -35t-13 -53.5z" />
    <glyph glyph-name="k" unicode="k" horiz-adv-x="224" 
d="M177 30q11 0 19 13t13 31t8 38t4 35q1 2 2 5q2 5 8 5q5 0 9.5 -4t4.5 -10q0 -25 -4.5 -50.5t-13.5 -46t-22.5 -33.5t-30.5 -13q-22 0 -32 19t-15.5 44.5l-11 51t-18.5 38.5q-4 -16 -10.5 -43.5t-14 -54t-16 -46t-17.5 -19.5q-13 0 -21.5 23.5t-13 56.5t-6.5 67.5t-2 57.5
q0 32 3 79t8.5 98.5t13 103.5t16.5 93t19 67t21 26q15 0 15 -13q0 -4 -1 -6q-9 -21 -17 -55t-15 -75t-13 -85.5t-10.5 -86.5t-7 -79t-2.5 -63q0 -37 3 -73t11 -71q14 48 25.5 95t25.5 94q4 12 12 32.5t18 41t22 35t23 14.5q6 0 10 -4.5t4 -10.5t-4 -11q-29 -35 -44 -72.5
t-26 -81.5q19 -14 28.5 -40t15 -52t10.5 -45.5t17 -19.5z" />
    <glyph glyph-name="l" unicode="l" horiz-adv-x="181" 
d="M31 238q22 39 43.5 86.5t38.5 96.5t27.5 95t10.5 83q0 10 -1.5 21.5t-8.5 11.5q-12 0 -25.5 -22t-25.5 -57t-23 -79t-19 -88t-12.5 -83t-4.5 -65zM103 26q18 0 30.5 21.5t22 47.5t17 47.5t14.5 21.5q15 0 15 -11l-1 -8q-5 -20 -12.5 -46t-19.5 -49t-29 -38.5t-41 -15.5
q-27 0 -44.5 14.5t-28 37t-15.5 48t-7 48.5q-4 -4 -9 -4q-6 0 -11 4.5t-5 10.5q0 8 7 17t15 18v21q0 17 3 57t9.5 90t17 103.5t26 98t36.5 73.5t48 29q22 0 31 -18t9 -46q0 -47 -13.5 -103t-35.5 -112.5t-48.5 -109t-52.5 -92.5q1 -20 3.5 -46.5t10 -50.5t21.5 -41t37 -17z
" />
    <glyph glyph-name="m" unicode="m" horiz-adv-x="483" 
d="M286 202q3 15 8.5 33.5t14.5 34.5t22 27t31 11q23 0 38.5 -10.5t24.5 -27.5t13 -39t4 -46q0 -46 -9 -92.5t-17 -91.5q-1 -5 -5 -8t-9 -3t-10 3.5t-5 11.5v4q2 12 6.5 32t8.5 44.5t7 51t3 50.5q0 19 -2 35.5t-7.5 29t-15.5 19.5t-26 7q-14 0 -24.5 -18.5t-17.5 -46.5
t-10.5 -59.5t-3.5 -58.5q0 -11 -2.5 -19.5t-13.5 -8.5t-15 24t-7.5 53t-10 53t-22.5 24q-11 0 -18 -13.5t-11.5 -34.5t-7.5 -46t-6 -47.5t-7.5 -39t-10.5 -21.5l-3 -1q-12 0 -12 16q2 11 3 23t1 23q0 27 -4.5 51.5t-12 43t-17 29.5t-18.5 11q-20 0 -33 -26t-21.5 -60
t-12.5 -67t-5 -47q-2 -15 -15 -15q-6 0 -10.5 4.5t-4.5 10.5q1 31 7.5 71t18.5 75.5t30.5 59.5t44.5 24q12 0 23 -6.5t19.5 -16.5t14.5 -21t8 -21q3 10 7.5 22t11 23t16.5 18.5t24 7.5q23 0 35 -16t18 -33z" />
    <glyph glyph-name="n" unicode="n" horiz-adv-x="327" 
d="M162 206q4 16 11.5 37.5t18.5 40.5t27 32t38 13q21 0 33 -21t17.5 -48.5t6.5 -55.5t1 -43q0 -6 -4 -10.5t-11 -4.5q-6 0 -10.5 4t-4.5 11q0 8 -1 30.5t-4 46.5t-9.5 42.5t-17.5 18.5q-16 0 -27.5 -15t-20.5 -39t-15 -53t-10 -56.5t-5.5 -50t-1.5 -33.5q0 -8 -5 -11.5
t-10 -3.5q-6 0 -10.5 3.5t-4.5 11.5v24.5t-1.5 42t-4 49.5t-7 47.5t-11.5 35.5t-17 14q-18 0 -31.5 -26.5t-21.5 -65t-12 -81.5t-4 -77q0 -6 -4 -10.5t-11 -4.5q-6 0 -10 4.5t-5 10.5q-1 8 -1 16v16q0 13 1.5 36.5t5 51t10.5 56t18.5 51.5t27 38t37.5 15q15 0 25 -9
t17 -22.5t11 -29t7 -28.5z" />
    <glyph glyph-name="o" unicode="o" horiz-adv-x="213" 
d="M101 360q22 0 36 -16t21.5 -39.5t10 -50.5t2.5 -49q0 -21 -3.5 -57.5t-14 -71t-30 -60t-52.5 -25.5q-17 0 -29 10.5t-20.5 25.5t-13 32.5t-6.5 32.5q-1 9 -1.5 18.5t-0.5 20.5q0 13 2 35t6.5 47.5t12 51.5t19 47t26.5 34.5t35 13.5zM75 22q20 0 33 22t20.5 52t10.5 61.5
t3 49.5q0 11 -1.5 31.5t-5.5 40.5t-12.5 35t-21.5 15q-19 0 -32.5 -24.5t-22 -57.5t-12.5 -65.5t-4 -48.5q0 -56 13.5 -83.5t31.5 -27.5z" />
    <glyph glyph-name="p" unicode="p" horiz-adv-x="260" 
d="M73 324q12 16 29 29t38 13q38 0 55 -34t17 -89q0 -47 -9.5 -92.5t-27 -81.5t-41 -58t-50.5 -22q-17 0 -30 11t-21 29q-4 -41 -6.5 -80.5t-2.5 -80.5q0 -78 9 -118.5t9 -50.5q0 -5 -4.5 -10t-11.5 -5q-10 0 -16 21t-9.5 51t-5 63t-1.5 57q0 108 13.5 218t33.5 213
q-7 -9 -19 -20t-20 -11q-6 0 -10.5 4.5t-4.5 10.5q0 7 7 13q22 17 34 35.5t23 43.5q5 11 13 11q16 0 16 -18zM85 20q17 0 31 13t25 33t18.5 45.5t12.5 50.5t7.5 47t2.5 36q0 1 -0.5 15.5t-4.5 31.5t-12.5 30.5t-24.5 13.5q-24 0 -42 -25t-29.5 -59t-17 -69t-5.5 -54
q0 -14 1.5 -33t6 -36t12 -28.5t19.5 -11.5z" />
    <glyph glyph-name="q" unicode="q" horiz-adv-x="208" 
d="M202 -58q5 0 10.5 -4t5.5 -11q-20 -51 -29 -100.5t-10 -100.5q-1 -6 -5 -10.5t-10 -4.5q-7 0 -11 4.5t-4 10.5q-8 65 -13 113.5t-7.5 83.5t-3.5 58.5t-1 39.5q0 9 0.5 16t0.5 14q-11 -26 -29.5 -44.5t-44.5 -18.5q-22 0 -35.5 13.5t-21 33t-10 42t-2.5 40.5q0 11 1.5 34
t5.5 51t10.5 57t16.5 53t24.5 39t33.5 15q17 0 32.5 -14.5t26.5 -36.5q0 20 16 20q7 0 10.5 -5.5t3.5 -13.5q-12 -81 -12 -164q0 -75 3 -148t11 -148q2 10 5.5 25t8.5 28.5t10.5 23t12.5 9.5zM73 336q-12 0 -22.5 -22t-19 -54.5t-13.5 -70.5t-5 -69q0 -12 1 -29.5t5 -33.5
t11.5 -27.5t20.5 -11.5q24 0 38.5 25.5t22.5 61.5t10.5 74t2.5 63q0 16 -5 33t-12.5 30.5t-17 22t-17.5 8.5z" />
    <glyph glyph-name="r" unicode="r" horiz-adv-x="215" 
d="M41 289q5 -1 9.5 -1.5t9.5 -0.5q17 0 32 6t30 15q4 2 7 2q6 0 11 -4t5 -11q0 -1 -0.5 -1.5t-0.5 -2.5q-10 -36 -19 -80.5t-9 -87.5q0 -13 1.5 -29t5 -30.5t9 -24t14.5 -9.5q12 0 22 14.5t17.5 34.5t13 42.5t8.5 37.5l2 9q3 11 15 11q8 0 11 -5.5t3 -13.5q-3 -15 -9.5 -42
t-18 -53t-27.5 -45.5t-37 -19.5q-20 0 -31.5 13t-17.5 32t-8 40.5t-2 38.5q0 36 5 71.5t14 70.5q-23 -9 -47 -9q-5 0 -10.5 0.5t-10.5 1.5q-2 -13 -4.5 -33t-6.5 -39t-10 -32.5t-13 -13.5q-5 0 -10 3.5t-5 11.5v4q5 27 11 53.5t9 54.5q-26 12 -45 36t-19 47q0 19 12.5 29.5
t29.5 10.5q23 0 38.5 -21t15.5 -63v-18zM11 313q0 14 -4 30t-19 18q-13 0 -13 -10q0 -17 12.5 -30t23.5 -20v12z" />
    <glyph glyph-name="s" unicode="s" horiz-adv-x="165" 
d="M57 399q7 -38 18 -76t22 -76.5t19 -78t8 -79.5q0 -27 -6 -51.5t-21 -43t-40.5 -29.5t-63.5 -11q-8 0 -11 4.5t-3 10.5q0 5 3 10t11 5q49 0 75.5 24.5t26.5 81.5q0 26 -5 55t-11.5 57t-14.5 54t-14 47q-11 -76 -32 -149q-5 -11 -15 -11q-6 0 -10.5 4t-4.5 11
q16 63 27.5 121t11.5 120q0 7 5 11t10 4q12 0 15 -15z" />
    <glyph glyph-name="t" unicode="t" horiz-adv-x="154" 
d="M52 488q54 0 90.5 1t69.5 3q20 1 39.5 3.5t39.5 2.5q6 0 9.5 -4.5t3.5 -10.5q0 -5 -3.5 -9.5t-11.5 -5.5q-44 -6 -102.5 -8t-140.5 -2q-8 -42 -13.5 -101.5t-5.5 -120.5q0 -33 1.5 -67.5t6.5 -63.5t15 -47.5t27 -18.5q18 0 30.5 25t21.5 57.5t14 63.5t8 43q3 11 14 11
q9 0 12 -5.5t3 -13.5q-3 -19 -9 -54t-18 -70t-31 -61t-46 -26q-30 0 -46 27.5t-23.5 65t-8.5 76t-1 59.5q0 57 5 111.5t13 109.5q-32 0 -64.5 1t-64.5 4q-8 1 -11.5 5.5t-3.5 9.5q0 6 4 10.5t11 4.5q33 -2 66.5 -3t68.5 -2q5 23 10.5 46t13.5 44q4 11 14 11q9 0 13 -10
q2 -4 2 -9q-5 -21 -11 -41t-11 -41z" />
    <glyph glyph-name="u" unicode="u" horiz-adv-x="266" 
d="M149 146q-5 -20 -11.5 -46.5t-16.5 -50.5t-23 -41t-29 -17q-19 0 -31 14t-19 37.5t-9.5 55t-2.5 66.5q0 25 1.5 53t4.5 52t8.5 39.5t14.5 15.5q8 0 11.5 -4.5t3.5 -10.5v-4q-8 -35 -11.5 -71.5t-3.5 -73.5q0 -9 0.5 -32t4 -46.5t10 -42t18.5 -18.5q8 0 17 19.5t18.5 50
t18.5 68.5t16.5 74t12.5 67t7 48q1 6 4.5 10.5t10.5 4.5q8 0 11 -5t3 -12q-1 -12 -2.5 -32.5t-3 -44.5t-2.5 -50.5t-1 -51.5q0 -23 1 -44t4 -36.5t7.5 -25t11.5 -9.5q18 0 29 17.5t19 38t13.5 38t12.5 17.5t10.5 -4.5t3.5 -10.5v-4q-4 -21 -11.5 -43t-18 -39.5t-25.5 -28.5
t-34 -11q-18 0 -28.5 14t-15.5 33.5t-7 41t-2 35.5z" />
    <glyph glyph-name="v" unicode="v" horiz-adv-x="214" 
d="M76 40q30 54 48 118t18 138q0 15 -0.5 29.5t-0.5 29.5q0 6 4.5 10.5t10.5 4.5q7 0 10.5 -4.5t4.5 -10.5q2 -14 2 -27.5v-26.5q-2 -72 -17 -141.5t-52 -130.5q-5 -8 -12.5 -18.5t-13.5 -10.5q-13 0 -23 14.5t-17.5 33.5t-12 38.5t-6.5 30.5q-3 17 -4.5 40.5t-1.5 49.5
q0 24 2 47.5t7 40.5q4 11 13 11q16 0 16 -19q-4 -23 -6.5 -45t-2.5 -48q0 -37 6.5 -76.5t27.5 -77.5z" />
    <glyph glyph-name="w" unicode="w" horiz-adv-x="301" 
d="M56 40q16 25 27.5 59t18 71t9.5 73t3 66q0 10 2 19.5t14 9.5q6 0 10.5 -4.5t4.5 -10.5q0 -9 -1 -18.5t-1.5 -25t-1.5 -38.5t-1 -58q0 -16 0.5 -38.5t3.5 -43t9.5 -35t17.5 -14.5q17 0 27 26.5t15 61t6.5 66t1.5 42.5q0 17 -1 37t-2.5 38t-3 33t-1.5 22q0 5 4.5 9.5
t10.5 4.5q9 0 13.5 -16t7 -38.5t3 -46t0.5 -38.5q0 -23 -2 -62t-10.5 -76.5t-25 -65t-45.5 -27.5q-15 0 -25 9t-16 21.5t-9 27t-4 25.5q-3 -11 -8.5 -28.5t-14 -34.5t-18.5 -29.5t-20 -12.5q-6 0 -10 4q-27 29 -36.5 74t-9.5 86q0 12 2 44t7 65.5t13 59.5t20 26q11 0 13 -5
t2 -13q-9 -41 -18 -84.5t-9 -93.5q0 -33 6 -65t22 -58z" />
    <glyph glyph-name="x" unicode="x" horiz-adv-x="211" 
d="M58 114q2 -7 5.5 -16.5t9 -18.5t12.5 -15.5t16 -6.5q18 0 37 18t35 39t27.5 39t14.5 18q5 0 10 -3t5 -11q-2 -13 -14 -35t-30.5 -43.5t-41 -37t-44.5 -15.5q-20 0 -33.5 14t-21.5 29q-8 -28 -11.5 -55.5t-6.5 -56.5q-2 -15 -15 -15q-6 0 -10.5 4t-4.5 11q0 38 9 79.5
t21 77.5q-14 47 -20.5 98t-6.5 97q0 7 0.5 14.5t2 14.5t5 11.5t9.5 4.5t10.5 -4t4.5 -11v-32q0 -37 2.5 -71t10.5 -73q23 53 54.5 105.5t69.5 94.5q5 5 11 5t10.5 -5t4.5 -10q0 -6 -4 -11q-43 -56 -76.5 -108t-56.5 -120z" />
    <glyph glyph-name="y" unicode="y" horiz-adv-x="230" 
d="M42 -313q21 0 38.5 24t30 57.5t20.5 71t11 64.5q-27 -17 -51.5 -37t-43 -41t-29.5 -42t-11 -39q0 -26 8 -42t27 -16zM177 -44q10 5 25.5 12t20.5 7t9 -5t4 -10q0 -4 -2.5 -8.5t-8.5 -6.5q-13 -5 -26 -11t-26 -13q-1 -17 -4.5 -43t-10 -55.5t-17 -59t-25 -53t-34 -38.5
t-44.5 -15q-26 0 -44 21.5t-18 56.5q0 22 8.5 47t28.5 51.5t52.5 53.5t79.5 53q5 53 6.5 105t1.5 105q-3 -13 -9.5 -38t-18 -50t-27 -43.5t-36.5 -18.5t-32.5 14.5t-17.5 34.5t-7.5 41.5t-1.5 36.5q0 33 3 69t8 66q4 35 11 68q2 11 15 11q14 0 14 -15q-7 -54 -14 -100.5
t-7 -94.5q0 -6 0.5 -22.5t3.5 -34t9 -31t16 -13.5q16 0 29.5 23t24.5 58t19 77t14 79.5t9 65.5t5 35q2 11 14 11q8 0 11.5 -4.5t3.5 -10.5q-10 -70 -9 -139.5t-1 -143.5q-1 -32 -2 -62.5t-3 -62.5z" />
    <glyph glyph-name="z" unicode="z" horiz-adv-x="228" 
d="M24 302q5 13 5 32q0 11 -3.5 19t-18.5 8q-8 0 -11.5 -3.5t-3.5 -8.5q0 -11 11 -26t21 -21zM101 52q-5 -28 -5 -53q0 -35 8 -67.5t26 -59t46.5 -47t68.5 -31.5q11 -4 11 -14q0 -8 -5 -11.5t-11 -3.5q-4 0 -9 1t-10 3q-6 2 -12 5q-39 15 -66 39t-44.5 54t-25 64t-7.5 69
q0 9 0.5 18.5t1.5 18.5q-6 -4 -15 -12t-17.5 -15.5t-15.5 -13.5t-9 -6q-6 0 -10.5 4t-4.5 10q0 9 8.5 19t21 20t26 18t22.5 13q9 48 28 97t47 89q-12 -4 -27.5 -5.5t-28.5 -1.5q-12 0 -25 1.5t-25 5.5l-10 -37.5t-13 -44.5t-13.5 -39.5t-10.5 -23.5q-5 -6 -9 -6
q-8 0 -11 4.5t-3 10.5q0 5 2 11q4 11 10.5 29t12.5 38t10.5 39t6.5 31q-18 11 -35 31.5t-17 43.5q0 22 13 33t32 11q30 0 40 -17.5t10 -38.5q0 -12 -2 -23.5t-5 -22.5q19 -6 41 -6q23 0 49 7t48 18q4 2 7 2q6 0 11 -4t5 -11q0 -6 -11 -17.5t-19 -22.5q-55 -76 -75 -170
q16 4 36 4q8 0 20 -1t22.5 -4t18 -7.5t7.5 -11.5q0 -6 -4 -11t-11 -5l-4 1q-27 9 -51 9q-19 0 -40 -7z" />
    <glyph glyph-name="braceleft" unicode="{" horiz-adv-x="311" 
d="M215 662q-28 -25 -40.5 -55t-12.5 -66q0 -26 3.5 -52.5t3.5 -52.5q0 -29 -9 -56.5t-38 -52.5q25 -26 40.5 -54.5t15.5 -62.5q0 -15 -3.5 -46.5t-3.5 -64.5q0 -19 2 -37t8 -32t16 -22.5t26 -8.5q8 0 12 -5.5t4 -11.5t-4 -11t-12 -5q-27 0 -43.5 12.5t-25.5 32t-12 44.5
t-3 51q0 31 2.5 58.5t2.5 44.5q0 36 -18 61t-41 47q-5 5 -5 12q0 9 8 14q26 17 37 41.5t11 53.5q0 28 -4 52t-4 47q0 48 18.5 88.5t54.5 66.5q2 2 8 2t11 -4.5t5 -11.5q0 -4 -2 -7.5t-8 -8.5z" />
    <glyph glyph-name="bar" unicode="|" horiz-adv-x="270" 
d="M185 646q-17 -119 -20.5 -239.5t-3.5 -238.5q0 -66 1.5 -125.5t11.5 -110.5q0 -7 -4 -12.5t-13 -5.5q-11 0 -17 26.5t-8.5 68.5t-3 94t-0.5 103q0 30 0.5 77t2 100.5t4.5 107.5t7.5 97.5t11.5 71t17 27.5q9 0 13 -5.5t4 -11.5q0 -3 -0.5 -8t-2.5 -16z" />
    <glyph glyph-name="braceright" unicode="}" horiz-adv-x="311" 
d="M104 662q-6 5 -8 8.5t-2 7.5q0 7 5 11.5t11 4.5t8 -2q36 -26 54.5 -66.5t18.5 -88.5q0 -23 -4 -47t-4 -52q0 -29 11 -53.5t37 -41.5q8 -5 8 -14q0 -7 -5 -12q-23 -22 -41 -47t-18 -61q0 -17 2.5 -44.5t2.5 -58.5q0 -26 -3 -51t-12 -44.5t-25.5 -32t-43.5 -12.5
q-8 0 -12 5t-4 11t4 11.5t12 5.5q16 0 26 8.5t16 22.5t8 32t2 37q0 33 -3.5 64.5t-3.5 46.5q0 34 15.5 62.5t40.5 54.5q-29 25 -38 52.5t-9 56.5q0 26 3.5 52.5t3.5 52.5q0 36 -12.5 66t-40.5 55z" />
    <glyph glyph-name="asciitilde" unicode="~" horiz-adv-x="504" 
d="M137 381q-23 0 -37 -18t-23.5 -39.5t-16.5 -39.5t-16 -18q-5 0 -11 4t-6 12l1 5q5 19 14 41.5t22.5 41.5t31 31.5t40.5 12.5q34 0 61.5 -18t53.5 -39.5t53.5 -39.5t62.5 -18q18 0 31.5 11.5t22.5 28.5t14 36t8 35l1 9q2 16 16 16q7 0 12 -4.5t5 -11.5q-2 -24 -9 -50.5
t-21 -49.5t-35 -38t-51 -15q-33 0 -62.5 18t-57.5 39.5t-53.5 39.5t-50.5 18z" />
    <glyph glyph-name="exclamdown" unicode="&#xa1;" horiz-adv-x="201" 
d="M114 17q0 -7 -5 -12t-11 -5q-8 0 -12 5t-5 12q-2 21 -3 43.5t-2.5 48t-2 55t-0.5 66.5q0 83 5.5 165t17.5 164q1 6 6 9t10 3h4q12 -4 12 -21q-11 -78 -16.5 -158t-5.5 -171q0 -51 1.5 -102t6.5 -102zM89 639q0 34 23 34q37 0 37 -39q0 -29 -29 -29q-31 0 -31 34z" />
    <glyph glyph-name="cent" unicode="&#xa2;" horiz-adv-x="245" 
d="M78 286q5 -4 12 -4q15 0 27 14.5t21.5 34.5t16 42t10.5 37q3 11 15 11q7 0 11 -5t4 -10q0 -16 -8 -40t-21 -47.5t-29.5 -42t-33.5 -23.5v-24q0 -17 -3 -30.5t-14 -13.5q-6 0 -10.5 4t-4.5 11q1 14 1.5 27.5t0.5 27.5q-34 14 -50 61t-16 103q0 30 4.5 58.5t13 52.5
t21.5 41.5t30 23.5q0 6 -0.5 13.5t-0.5 15.5q0 14 3 26t14 12q6 0 10.5 -3.5t4.5 -11.5q0 -13 -0.5 -25.5t-0.5 -24.5q15 -5 23.5 -21t8.5 -30q0 -20 -16 -20q-5 0 -8 6.5t-6 15t-6 15t-9 6.5q-13 0 -23.5 -14.5t-17.5 -37t-11 -49.5t-4 -51q0 -37 8 -70.5t25 -53.5z" />
    <glyph glyph-name="dieresis" unicode="&#xa8;" horiz-adv-x="158" 
d="M157 446q0 -34 -23 -34q-37 0 -37 39q0 29 29 29q31 0 31 -34zM60 446q0 -34 -23 -34q-37 0 -37 39q0 29 29 29q31 0 31 -34z" />
    <glyph glyph-name="copyright" unicode="&#xa9;" horiz-adv-x="768" 
d="M457 236q4 10 7.5 24t7 27.5t8 23t11.5 9.5q5 0 10 -4t5 -14q-3 -24 -12 -53.5t-23.5 -55t-36 -42.5t-50.5 -17q-31 0 -51 18t-31.5 44t-16 54.5t-4.5 48.5q0 42 11 89t31.5 87t49.5 66t65 26q26 0 41.5 -21t15.5 -53q0 -34 -16.5 -64t-42.5 -53q-5 -5 -11 -5
q-5 0 -10 4.5t-5 10.5q0 3 8.5 11.5t19 22.5t19 32.5t8.5 42.5q0 16 -6.5 29t-18.5 13q-25 0 -44 -14.5t-33.5 -37.5t-24 -51.5t-16 -55.5t-9 -50.5t-2.5 -35.5q0 -13 4 -34.5t12.5 -42.5t21 -36t30.5 -15q29 0 48.5 22.5t29.5 49.5zM772 418q0 -89 -34.5 -170.5
t-93.5 -143.5t-136.5 -99t-164.5 -37q-69 0 -125.5 25.5t-97 68t-62.5 98.5t-22 118q0 84 32.5 166t89 147.5t131.5 105.5t159 40q67 0 126.5 -27t103 -71.5t69 -102t25.5 -118.5zM740 420q0 59 -24.5 111t-65 91t-93 61.5t-108.5 22.5q-54 0 -103.5 -18.5t-91.5 -50
t-77 -73.5t-59 -89.5t-37.5 -98.5t-13.5 -99q0 -60 21.5 -111t59 -87.5t87.5 -57.5t107 -21q85 0 158 36t126.5 95t83.5 134.5t30 154.5z" />
    <glyph glyph-name="registered" unicode="&#xae;" horiz-adv-x="768" 
d="M706 556q0 -74 -29 -145t-79.5 -126.5t-119 -89.5t-148.5 -34q-58 0 -107.5 20.5t-85.5 57t-56.5 86t-20.5 108.5q0 70 27.5 141.5t76.5 129.5t115.5 95t143.5 37q56 0 107 -23t90 -61.5t62.5 -89.5t23.5 -106zM674 557q0 49 -20.5 93.5t-55 78.5t-80 54.5t-95.5 20.5
q-68 0 -128 -33t-105 -85.5t-71.5 -118.5t-26.5 -133q0 -51 18 -95t49.5 -76.5t75 -50.5t95.5 -18q70 0 132.5 29.5t109.5 80t74.5 116t27.5 137.5zM358 683q30 13 58 13q22 0 40 -8.5t30 -22.5t18.5 -32t6.5 -37q0 -22 -8.5 -43.5t-26 -39t-45 -28t-65.5 -10.5q-11 0 -22 1
t-23 3l-1 -5q30 -42 63.5 -82t71.5 -72l31 -26q4 -4 4 -10q0 -5 -3.5 -10t-10.5 -5q-6 0 -11 4q-19 13 -39 32.5t-40 40.5t-38 43t-32 40q-3 -32 -3 -61q0 -20 1 -39t3 -39v-4q0 -8 -4.5 -11.5t-9.5 -3.5q-8 0 -12 7t-5.5 17.5t-2 23.5t-0.5 25q0 36 2 67.5t4 54.5
q-5 8 -12.5 18.5t-7.5 18.5q0 14 19 14l8 -2q3 26 7.5 52t9.5 52l-8 -7q-7 -5 -12 -5q-6 0 -10 5t-4 11q0 4 5 10t12 11.5t14.5 10.5t12.5 9q1 5 2 12t3.5 13t6 10.5t9.5 4.5q5 0 10 -4t5 -11zM349 645q-15 -66 -24 -136q18 -3 39 -3t41.5 4.5t37 14.5t27 27t10.5 42
q0 41 -19.5 56.5t-42.5 15.5q-18 0 -36 -6t-33 -15z" />
    <glyph glyph-name="acute" unicode="&#xb4;" horiz-adv-x="234" 
d="M225 505q-1 -11 -13.5 -27t-29 -30.5t-32.5 -25t-25 -10.5q-12 0 -17 5.5t-5 9.5q0 6 4.5 12t17.5 11q20 8 38 26.5t29 34.5q5 7 9 9t8 2q16 0 16 -17z" />
    <glyph glyph-name="cedilla" unicode="&#xb8;" horiz-adv-x="160" 
d="M86 -49q0 14 -10.5 27.5t-21.5 21.5q-4 4 -4 10t4.5 11t10.5 5q3 0 10 -5q16 -13 28.5 -31.5t12.5 -39.5q-1 -28 -25 -36.5t-54 -8.5q-8 1 -11.5 5.5t-3.5 9.5q0 6 3.5 10.5t9.5 4.5q5 0 13.5 0.5t17 2t14.5 5t6 8.5z" />
    <glyph glyph-name="questiondown" unicode="&#xbf;" horiz-adv-x="337" 
d="M256 146q0 13 -4 25t-8.5 22t-8.5 17.5t-4 11.5q0 7 5.5 11.5t12.5 4.5q8 0 15.5 -11t13 -26t8.5 -31.5t3 -27.5q0 -32 -12 -60t-33 -48.5t-48.5 -32.5t-57.5 -12q-29 0 -54 11t-43.5 31.5t-29 48.5t-10.5 62q0 32 11.5 61.5t29 57t37.5 54t37.5 53.5t29 54.5t11.5 56.5
q0 18 -4 34l-1 5q0 6 4.5 11t13.5 5q12 0 16.5 -14.5t4.5 -33.5q0 -53 -24.5 -97t-54 -83.5t-54 -77.5t-24.5 -80q0 -21 6.5 -43t19 -40.5t31 -30t42.5 -11.5q23 0 45 9t39.5 25.5t28 39t10.5 49.5zM131 643q0 34 23 34q37 0 37 -39q0 -29 -29 -29q-31 0 -31 34z" />
    <glyph glyph-name="circumflex" unicode="&#x2c6;" horiz-adv-x="190" 
d="M97 478q-14 -14 -29 -28.5t-32 -23.5q-6 -2 -8 -2q-5 0 -10 3.5t-5 10.5q0 9 8 14q20 14 36.5 30t33.5 33q5 5 10 5q11 0 16 -12q20 -49 59 -88q5 -5 5 -11t-4.5 -10.5t-10.5 -4.5t-11 4q-17 14 -32.5 37t-25.5 43z" />
    <glyph glyph-name="tilde" unicode="&#x2dc;" horiz-adv-x="234" 
d="M15 420q-6 -8 -13 -8q-6 0 -10.5 4.5t-4.5 11.5q0 3 2 7q11 22 24.5 29t26.5 7q12 0 23 -4.5t22 -10.5t22.5 -10.5t24.5 -4.5q7 0 12 4.5t10 10t9.5 10t9.5 4.5q6 0 11 -4.5t5 -10.5q0 -4 -5 -11q-16 -19 -28 -26t-24 -7t-23.5 4.5t-23 10.5t-22.5 10.5t-22 4.5
q-9 0 -14.5 -6.5t-11.5 -14.5z" />
    <glyph glyph-name="endash" unicode="&#x2013;" horiz-adv-x="364" 
d="M84 177q-36 -4 -47 -5.5t-16 -1.5t-11 3t-6 12q0 8 18 13t42.5 7.5t50 3.5t41.5 1q27 0 52.5 1t46.5 1q29 0 46.5 -3t17.5 -14q0 -6 -3.5 -10.5t-10.5 -4.5h-90t-63 -0.5t-42 -1t-26 -1.5z" />
    <glyph glyph-name="emdash" unicode="&#x2014;" horiz-adv-x="673" 
d="M41 170q-8 0 -11 4.5t-3 10.5q0 5 3 10t11 5q61 0 122 0.5t125 1t132 2t142 3.5q7 0 10.5 -5t3.5 -10q0 -6 -3.5 -10.5t-10.5 -4.5q-132 -3 -261 -5t-260 -2z" />
    <glyph glyph-name="quoteleft" unicode="&#x2018;" horiz-adv-x="126" 
d="M40 669q11 -45 25 -87.5t30 -85.5l1 -4q0 -7 -5.5 -11t-10.5 -4q-10 0 -14 11q-16 43 -30 85.5t-25 87.5v4q0 6 5 10.5t10 4.5q11 0 14 -11z" />
    <glyph glyph-name="quoteright" unicode="&#x2019;" horiz-adv-x="126" 
d="M91 669q3 11 14 11q5 0 10 -4.5t5 -10.5v-4q-11 -45 -25 -87.5t-30 -85.5q-4 -11 -14 -11q-5 0 -10.5 4t-5.5 11l1 4q16 43 30 85.5t25 87.5z" />
    <glyph glyph-name="quotesinglbase" unicode="&#x201a;" horiz-adv-x="152" 
d="M84 118q3 11 14 11q5 0 10 -4.5t5 -10.5v-4q-11 -45 -25 -87.5t-30 -85.5q-4 -11 -14 -11q-5 0 -10.5 4t-5.5 11l1 4q16 43 30 85.5t25 87.5z" />
    <glyph glyph-name="quotedblleft" unicode="&#x201c;" horiz-adv-x="248" 
d="M139 672q10 -45 20.5 -89t27.5 -87l1 -4q0 -7 -5.5 -11t-10.5 -4q-10 0 -14 11q-17 43 -27.5 87t-20.5 89q0 7 3 13t11 6q5 0 9.5 -3t5.5 -8zM81 661q10 -51 22.5 -101t30.5 -99l1 -4q0 -7 -5.5 -11t-10.5 -4q-10 0 -14 11q-18 49 -30.5 99t-21.5 101q0 19 14 19
q5 0 9 -3t5 -8z" />
    <glyph glyph-name="quotedblright" unicode="&#x201d;" horiz-adv-x="248" 
d="M114 672q1 5 5.5 8t9.5 3q8 0 11 -6t3 -13q-10 -45 -20.5 -89t-27.5 -87q-4 -11 -14 -11q-5 0 -10.5 4t-5.5 11l1 4q17 43 27.5 87t20.5 89zM172 661q1 5 5 8t9 3q14 0 14 -19q-9 -51 -21.5 -101t-30.5 -99q-4 -11 -14 -11q-5 0 -10.5 4t-5.5 11l1 4q18 49 30.5 99
t22.5 101z" />
    <glyph glyph-name="quotedblbase" unicode="&#x201e;" horiz-adv-x="202" 
d="M77 123q1 5 5.5 8t9.5 3q8 0 11 -6t3 -13q-10 -45 -20.5 -89t-27.5 -87q-4 -11 -14 -11q-5 0 -10.5 4t-5.5 11l1 4q17 43 27.5 87t20.5 89zM135 112q1 5 5 8t9 3q14 0 14 -19q-9 -51 -21.5 -101t-30.5 -99q-4 -11 -14 -11q-5 0 -10.5 4t-5.5 11l1 4q18 49 30.5 99
t22.5 101z" />
    <glyph glyph-name="perthousand" unicode="&#x2030;" horiz-adv-x="578" 
d="M455 300q24 0 41 -14t27.5 -35.5t15 -46.5t4.5 -46q0 -23 -4 -48t-14 -46t-26 -35t-40 -14q-32 0 -53.5 15t-33.5 38q-10 -23 -26 -38t-42 -15q-27 0 -47 11.5t-32.5 29.5t-18.5 41t-6 46q0 20 6.5 47t19 51.5t31 41.5t43.5 17q29 0 47.5 -20t28.5 -48q12 28 32 48t47 20
zM202 531q49 21 88 55t76 71q7 5 11 5q7 0 12 -5t5 -12q0 -6 -4.5 -13t-8.5 -13q-65 -111 -115.5 -199t-88 -160t-63 -132.5t-41.5 -117.5q-3 -12 -15 -12q-7 0 -12 4.5t-5 11.5l1 5q6 35 22 78.5t38.5 91.5t49 98t54 98t53.5 92t47 79q-24 -18 -49.5 -34t-54.5 -27
q-2 -23 -8.5 -50t-19.5 -50t-33.5 -38.5t-48.5 -15.5q-24 0 -41.5 10t-28 25.5t-15.5 34.5t-5 38q0 27 6.5 54.5t14.5 49.5q4 10 10.5 25.5t15 29.5t18 24.5t18.5 10.5q6 0 11 -4t5 -11q0 -5 -5 -12q-11 -13 -22 -32t-20 -41.5t-14.5 -46.5t-5.5 -46q0 -32 15 -54.5
t44 -22.5q18 0 31.5 12.5t22.5 30.5t14 37.5t7 33.5q-3 0 -6 -0.5t-5 -0.5q-17 0 -29.5 6.5t-20 16.5t-11 22.5t-3.5 25.5q0 26 12.5 45.5t33.5 19.5q17 0 28.5 -9t19 -23t11 -30t4.5 -29zM170 520q0 6 -1 17t-4 22.5t-9 20t-16 8.5q-7 0 -10 -8t-3 -19q0 -42 31 -42z
M355 154q0 13 -2.5 32.5t-8.5 37.5t-17 30.5t-27 12.5q-15 0 -27.5 -13t-21.5 -32.5t-14 -41.5t-5 -39q0 -16 4 -32.5t12 -30t21.5 -22t32.5 -8.5q14 0 24 11t16.5 27t9.5 34.5t3 33.5zM510 154q0 13 -2.5 32.5t-8.5 37.5t-17 30.5t-27 12.5q-15 0 -27.5 -13t-21.5 -32.5
t-14 -41.5t-5 -39q0 -16 4 -32.5t12 -30t21.5 -22t32.5 -8.5q14 0 24 11t16.5 27t9.5 34.5t3 33.5z" />
    <glyph glyph-name="plus" unicode="+" horiz-adv-x="236" 
d="M133 356q11 1 22.5 2t22.5 1q14 0 28 -2.5t14 -14.5q0 -13 -15 -15h-37h-18t-18 -1q0 -22 2 -43l4 -42v-4q0 -8 -4.5 -11.5t-9.5 -3.5q-8 0 -12.5 9t-6.5 22t-2.5 28t-0.5 27v13q-18 -3 -38.5 -10.5t-37.5 -7.5q-7 0 -10.5 4.5t-3.5 10.5q0 8 10 13.5t24.5 9.5t29.5 6.5
t26 4.5v8q0 12 1 27t3 28.5t6 22.5t11 9q6 0 11 -4.5t5 -11.5q-1 -19 -3.5 -37.5t-2.5 -37.5z" />
    <glyph glyph-name="ellipsis" unicode="&#x2026;" horiz-adv-x="378" 
d="M87 23q0 -34 -23 -34q-37 0 -37 39q0 29 29 29q31 0 31 -34zM213 23q0 -34 -23 -34q-37 0 -37 39q0 29 29 29q31 0 31 -34zM339 23q0 -34 -23 -34q-37 0 -37 39q0 29 29 29q31 0 31 -34z" />
    <glyph glyph-name="OE" unicode="&#x152;" horiz-adv-x="678" 
d="M395 600q-7 -2 -18 -6.5t-20 -4.5q-7 0 -12 4.5t-5 12.5q0 10 12 15q54 23 121.5 32.5t130.5 9.5h27t26 -2q16 -2 16 -17q0 -16 -16 -16q-17 1 -33.5 1h-45.5q-36 -1 -72 -5.5t-71 -13.5q-26 -56 -43 -115t-29 -119q81 26 164 26q22 0 45 -3q16 -2 16 -17q0 -16 -16 -16
q-16 1 -31.5 1.5t-31.5 0.5q-78 -1 -153 -28q-11 -64 -18 -128t-7 -130v-17.5t1 -17.5q44 32 102.5 49.5t115.5 17.5h20t19 -2q7 -2 12 -5.5t5 -11.5q0 -6 -4.5 -11t-12.5 -5q-9 1 -18 1.5t-19 0.5q-59 0 -116.5 -18.5t-106.5 -61.5q-7 -5 -11 -5q-6 0 -11 4.5t-6 11.5
q-2 14 -2 30v42v24t1 24q-30 -64 -72.5 -103.5t-95.5 -39.5q-39 0 -64.5 23t-40.5 60t-21 82t-6 89q0 63 13 118.5t38 108.5q6 13 19 37t27.5 47.5t29 40.5t25.5 17q8 0 13 -5t5 -10q0 -7 -5.5 -13t-10.5 -13q-25 -30 -46.5 -70t-37 -82t-24.5 -83t-9 -73q0 -47 6 -90
t17 -77t28 -54t38 -20q42 0 78.5 37.5t63.5 94.5t42 125t15 129q0 33 -8 71.5t-26 71.5t-47.5 55t-71.5 22q-25 0 -46.5 -9t-39 -20.5t-30.5 -20.5t-21 -9q-5 0 -10.5 5t-5.5 12q0 5 5 12q30 28 69.5 46t79.5 18q75 0 121 -49t59 -133q18 60 42 120z" />
    <glyph glyph-name="dotlessi" unicode="&#x131;" horiz-adv-x="132" 
d="M44 30q9 0 18.5 10.5t17 24.5t13 29t7.5 23q2 6 6 8.5t8 2.5q5 0 10.5 -4t5.5 -11q0 -9 -7 -27.5t-18.5 -37.5t-27 -33.5t-32.5 -14.5q-18 0 -28.5 14.5t-15 34.5t-5.5 41.5t-1 35.5q0 27 2 55.5t5 54.5t7 47.5t8 35.5q3 11 15 11q8 0 11.5 -5t3.5 -10q-12 -48 -17 -93
t-5 -92q0 -11 0.5 -28t2 -33t5.5 -27.5t11 -11.5z" />
    <glyph glyph-name="ogonek" unicode="&#x2db;" horiz-adv-x="127" 
d="M52 -49q0 -5 6 -8.5t14 -5t17 -2t14 -0.5q6 0 9.5 -4.5t3.5 -10.5q0 -5 -3.5 -9.5t-11.5 -5.5q-30 0 -54 8.5t-25 36.5q0 21 12.5 39.5t28.5 31.5q7 5 10 5q6 0 10.5 -5t4.5 -11t-4 -10q-11 -8 -21.5 -21.5t-10.5 -27.5z" />
    <glyph glyph-name="commaaccent" unicode="&#xf6c3;" horiz-adv-x="97" 
d="M13 -57q0 8 4.5 11.5t10.5 3.5q10 0 14 -11t4 -27q0 -20 -7 -40.5t-21 -34.5q-5 -5 -10 -5t-10 4t-5 11q0 6 4 11q19 23 19 50q0 9 -3 27z" />
    <glyph glyph-name="macron" unicode="&#xaf;" horiz-adv-x="293" 
d="M236 449q6 0 10.5 -4t4.5 -11q0 -6 -5 -10.5t-10 -4.5q-14 2 -22.5 2.5t-22.5 0.5q-32 0 -57 -3t-57 -9q-6 0 -11.5 4t-5.5 11q0 9 14.5 14.5t34.5 8t41.5 3.5t35.5 1q16 0 25 -0.5t25 -2.5z" />
    <glyph glyph-name="dotaccent" unicode="&#x2d9;" horiz-adv-x="126" 
d="M92 455q0 -31 -21 -31q-35 0 -35 36q0 27 27 27q29 0 29 -32z" />
    <glyph glyph-name="breve" unicode="&#x2d8;" horiz-adv-x="190" 
d="M159 493q1 7 3.5 13t12.5 6q6 0 10.5 -4.5t4.5 -10.5q0 -40 -27 -64t-66 -24q-45 0 -69 26t-25 64q0 15 15 15q11 0 12.5 -9t3.5 -17q6 -24 22.5 -37t40.5 -13q53 0 62 55z" />
    <glyph glyph-name="caron" unicode="&#x2c7;" horiz-adv-x="190" 
d="M95 452q5 9 14.5 22t20.5 25t21.5 20.5t18.5 8.5t12 -4.5t4 -9.5q-1 -8 -6 -13q-22 -17 -38 -37.5t-31 -43.5q-7 -10 -15 -10q-5 0 -14 9t-20 21.5l-22 25t-18 20.5q-6 6 -6 12q1 8 5 11.5t9 3.5t13.5 -7t18.5 -16.5t19 -20t14 -17.5z" />
    <glyph glyph-name="ring" unicode="&#x2da;" horiz-adv-x="208" 
d="M43 467q0 26 18 44.5t44 18.5t44.5 -18.5t18.5 -44.5t-18.5 -44t-44.5 -18t-44 18t-18 44zM74 467q0 -14 8.5 -22.5t22.5 -8.5t23.5 8.5t9.5 22.5t-9.5 23.5t-23.5 9.5t-22.5 -9.5t-8.5 -23.5z" />
    <glyph glyph-name="AE" unicode="&#xc6;" horiz-adv-x="650" 
d="M72 275q41 94 101 182t141 160q68 23 131 34.5t131 11.5h27t26 -2q16 -2 16 -17q0 -16 -16 -16t-31.5 0.5t-31.5 0.5h-16q-35 0 -70 -5t-72 -14q-26 -56 -43.5 -115t-29.5 -119q39 11 80.5 18.5t83.5 7.5q22 0 45 -3q7 -2 12 -5.5t5 -11.5q0 -7 -5 -11.5t-12 -4.5
q-16 0 -31 1t-31 1q-40 -1 -78 -9t-76 -19q-11 -63 -17 -131.5t-6 -161.5q43 32 102 49.5t116 17.5h19.5t19.5 -2q16 -4 16 -17q0 -6 -4 -11t-12 -5q-11 0 -22 0.5t-22 0.5q-57 0 -113 -19t-103 -60q-7 -5 -12 -5q-6 0 -11 4.5t-6 11.5q-2 14 -2 29v41q0 112 18 223
q-50 -8 -97.5 -22t-94.5 -33q-25 -58 -40 -116.5t-25 -120.5q-2 -7 -5.5 -12t-11.5 -5q-6 0 -11 4.5t-5 12.5q1 22 6.5 51t13.5 59t17.5 58.5t17.5 49.5l-56 -28q-3 -2 -9 -2q-7 0 -11.5 5t-4.5 11q0 9 8 14q21 14 44.5 24t46.5 20zM295 339q11 67 28.5 132.5t43.5 128.5
l-35 -11q-32 -26 -63 -61.5t-58.5 -75.5t-51.5 -81.5t-43 -77.5q44 16 88.5 27.5t90.5 18.5z" />
    <glyph glyph-name="Eth" unicode="&#xd0;" horiz-adv-x="427" 
d="M215 342q6 0 10.5 -4t4.5 -11q0 -6 -5 -10.5t-10 -4.5q-29 3 -57 3q-13 0 -25 -0.5t-24 -1.5q-2 -26 -3.5 -53.5t-1.5 -56.5q0 -48 4.5 -96t15.5 -94q55 18 101.5 55t80 85t52.5 104t19 113q0 43 -15 90.5t-43.5 87t-68.5 65t-91 25.5q-31 0 -54.5 -12t-42 -32.5
t-31.5 -46.5t-23 -54q-3 -12 -15 -12q-7 0 -12 4.5t-5 12.5q0 5 1 7q9 30 25 60t38.5 53.5t52 38t65.5 14.5q56 0 102 -26t79 -68.5t51 -97t18 -110.5q0 -65 -21 -127t-59.5 -114.5t-92 -92t-118.5 -59.5h-4q-13 0 -17 12q-14 51 -20 103.5t-6 106.5q0 29 1 56.5t4 55.5
l-43 -7q-6 0 -11.5 4t-5.5 11q0 10 18.5 15.5t44.5 7.5q8 66 22 131t35 134q3 12 16 12q6 0 11.5 -4.5t5.5 -11.5l-1 -5q-17 -66 -31.5 -127t-22.5 -126q12 1 22 1h18q30 0 62 -3z" />
    <glyph glyph-name="Thorn" unicode="&#xde;" horiz-adv-x="0" 
 />
    <glyph glyph-name="Oslash" unicode="&#xd8;" horiz-adv-x="385" 
d="M354 705q6 0 11 -3.5t5 -11.5q0 -7 -9 -22.5t-16 -26.5l-31 -53q21 -32 32.5 -75.5t11.5 -95.5q0 -79 -16 -155.5t-46 -137t-71.5 -98t-92.5 -37.5q-22 0 -39 7.5t-31 20.5q-8 -25 -16.5 -47.5t-14.5 -22.5t-11 5t-5 16q2 11 8.5 34.5t14.5 46.5q-22 38 -30 90.5
t-8 103.5q0 63 13 118.5t38 108.5q6 13 19 37t27.5 47.5t29 40.5t25.5 17q8 0 13 -5t5 -10q0 -7 -5.5 -13t-10.5 -13q-25 -30 -46.5 -70t-37 -82t-24.5 -83t-9 -73q0 -44 5 -84.5t15 -72.5q43 124 98 241.5t117 231.5q-18 22 -42.5 35.5t-57.5 13.5q-25 0 -46.5 -9
t-39 -20.5t-30.5 -20.5t-21 -9q-5 0 -10.5 5t-5.5 12q0 5 5 12q30 28 69.5 46t79.5 18q71 0 119 -48q6 12 14.5 27.5t16.5 30t16.5 24t14.5 9.5zM325 408q0 33 -8 71t-25 70q-63 -114 -119 -237.5t-97 -251.5q21 -38 50 -38q42 0 78.5 37.5t63.5 94.5t42 125t15 129z" />
    <glyph glyph-name="yacute" unicode="&#xfd;" horiz-adv-x="240" 
d="M42 -313q21 0 38.5 24t30 57.5t20.5 71t11 64.5q-27 -17 -51.5 -37t-43 -41t-29.5 -42t-11 -39q0 -26 8 -42t27 -16zM177 -44q10 5 25.5 12t20.5 7t9 -5t4 -10q0 -4 -2.5 -8.5t-8.5 -6.5q-13 -5 -26 -11t-26 -13q-1 -17 -4.5 -43t-10 -55.5t-17 -59t-25 -53t-34 -38.5
t-44.5 -15q-26 0 -44 21.5t-18 56.5q0 22 8.5 47t28.5 51.5t52.5 53.5t79.5 53q5 53 6.5 105t1.5 105q-3 -13 -9.5 -38t-18 -50t-27 -43.5t-36.5 -18.5t-32.5 14.5t-17.5 34.5t-7.5 41.5t-1.5 36.5q0 33 3 69t8 66q4 35 11 68q2 11 15 11q14 0 14 -15q-7 -54 -14 -100.5
t-7 -94.5q0 -6 0.5 -22.5t3.5 -34t9 -31t16 -13.5q16 0 29.5 23t24.5 58t19 77t14 79.5t9 65.5t5 35q2 11 14 11q8 0 11.5 -4.5t3.5 -10.5q-10 -70 -9 -139.5t-1 -143.5q-1 -32 -2 -62.5t-3 -62.5zM184 505q-1 -11 -13.5 -27t-29 -30.5t-32.5 -25t-25 -10.5q-12 0 -17 5.5
t-5 9.5q0 6 4.5 12t17.5 11q20 8 38 26.5t29 34.5q5 7 9 9t8 2q16 0 16 -17z" />
    <glyph glyph-name="ae" unicode="&#xe6;" horiz-adv-x="362" 
d="M377 150q-10 -31 -22.5 -60.5t-27.5 -52t-32 -36.5t-36 -14q-10 0 -18 4t-15 9q-18 -21 -41 -21t-35 17t-18 37q-9 -22 -24.5 -38t-42.5 -16q-23 0 -39.5 12t-27.5 32t-16.5 46.5t-5.5 56.5q0 40 8 83.5t21 78.5t30.5 58t37.5 23q21 0 35.5 -19.5t23 -47.5t12.5 -59.5
t5 -55.5q0 -12 0.5 -41.5t4 -60t11 -54t21.5 -23.5q11 0 21 16q-17 29 -23.5 66t-6.5 62q0 32 5 70.5t15.5 71.5t26 55t36.5 22q16 0 26 -11.5t15.5 -27t7.5 -31t2 -23.5q0 -28 -8 -57t-20.5 -57t-29 -52t-33.5 -41q2 -7 5.5 -16t8 -17.5t11 -14t14.5 -5.5q12 0 24 11
t23 29.5t20.5 42t18.5 48.5q3 13 7.5 17.5t9.5 4.5q6 0 10.5 -4.5t4.5 -16.5zM61 9q20 1 31.5 16.5t17.5 36.5t8 44t2 38q0 21 -2.5 54.5t-8.5 64.5t-14.5 53.5t-20.5 22.5q-3 0 -6 -3t-6 -7q-4 -4 -7 -9q-26 -42 -37.5 -93.5t-11.5 -98.5q0 -19 2.5 -39.5t8.5 -38t16.5 -29
t27.5 -12.5zM211 105q14 16 26.5 37t22.5 43.5t15.5 45.5t5.5 44q0 8 -1 19t-3.5 21.5t-6.5 18t-10 7.5q-10 0 -19.5 -20.5t-17 -49.5t-12 -62t-4.5 -58q0 -13 1 -24.5t3 -21.5z" />
    <glyph glyph-name="ccedilla" unicode="&#xe7;" horiz-adv-x="165" 
d="M88 -49q0 12 -8.5 24.5t-18.5 20.5q-26 5 -40 30.5t-20.5 55.5t-8 57.5t-1.5 37.5q0 31 4.5 67t15 67t26 51t38.5 20q19 0 32.5 -16t13.5 -41q0 -22 -15 -22q-9 0 -11 7.5t-2.5 16.5t-3 16.5t-12.5 7.5q-12 0 -21.5 -11t-15.5 -28.5t-10 -39t-6 -42t-3 -37.5t-1 -26
q0 -12 3 -35.5t9.5 -47t18 -41t28.5 -17.5q7 0 14 6t13.5 14.5t12 18.5t9.5 18q7 16 12 33t9.5 31.5t9 23.5t10.5 11q6 0 7.5 -5.5t1.5 -10.5q-1 -18 -6.5 -43t-16 -49t-25 -44.5t-33.5 -29.5q9 -11 15 -23.5t6 -26.5q-1 -28 -25 -36.5t-54 -8.5q-8 1 -11.5 5.5t-3.5 9.5
q0 6 3.5 10.5t9.5 4.5q5 0 13.5 0.5t17 2t14.5 5t6 8.5z" />
    <glyph glyph-name="oe" unicode="&#x153;" horiz-adv-x="326" 
d="M101 360q25 0 39 -20t21 -48q11 34 26.5 56.5t36.5 22.5q16 0 26 -11.5t15.5 -27t7.5 -31t2 -23.5q0 -28 -8 -57t-20.5 -57t-29 -52t-33.5 -41q2 -7 5.5 -16t8 -17.5t11 -14t14.5 -5.5q12 0 24 11t23 29.5t20.5 42t18.5 48.5q3 13 7.5 17.5t9.5 4.5q6 0 10.5 -4.5
t4.5 -16.5q-10 -31 -22.5 -60.5t-27.5 -52t-32 -36.5t-36 -14q-28 0 -45 26t-26 59q-11 -33 -30 -57t-51 -24q-17 0 -29 10.5t-20.5 25.5t-13 32.5t-6.5 32.5q-1 9 -1.5 18.5t-0.5 20.5q0 13 2 35t6.5 47.5t12 51.5t19 47t26.5 34.5t35 13.5zM175 105q14 16 26.5 37
t22.5 43.5t15.5 45.5t5.5 44q0 8 -1 19t-3.5 21.5t-6.5 18t-10 7.5q-10 0 -19.5 -20.5t-17 -49.5t-12 -62t-4.5 -58q0 -13 1 -24.5t3 -21.5zM75 22q20 0 33 22t20.5 52t10.5 61.5t3 49.5q0 11 -1.5 31.5t-5.5 40.5t-12.5 35t-21.5 15q-19 0 -32.5 -24.5t-22 -57.5
t-12.5 -65.5t-4 -48.5q0 -56 13.5 -83.5t31.5 -27.5z" />
    <glyph glyph-name="guillemotright" unicode="&#xbb;" horiz-adv-x="349" 
d="M175 330q-30 23 -59 50t-49 60q-2 4 -2 7q0 9 8 14q4 2 7 2q8 0 13 -8q14 -18 27 -34.5t30 -31.5q14 -13 29 -23.5t29 -22.5q7 -6 7 -13t-7 -13q-16 -13 -32.5 -24.5t-32.5 -24.5q-13 -10 -25 -21t-26 -22q-4 -4 -11 -4q-6 0 -10 4t-4 11t4 11q17 18 46 39.5t58 43.5z
M302 330q-30 23 -59 50t-49 60q-2 4 -2 7q0 9 8 14q4 2 7 2q8 0 13 -8q14 -18 27 -34.5t30 -31.5q14 -13 29 -23.5t29 -22.5q7 -6 7 -13t-7 -13q-16 -13 -32.5 -24.5t-32.5 -24.5q-13 -10 -25 -21t-26 -22q-4 -4 -11 -4q-6 0 -10 4t-4 11t4 11q17 18 46 39.5t58 43.5z" />
    <glyph glyph-name="oslash" unicode="&#xf8;" horiz-adv-x="213" 
d="M193 385q3 0 6 -2t3 -7q0 -4 -5 -12.5t-9 -15.5l-29 -49q7 -23 9.5 -48.5t2.5 -45.5q0 -21 -3.5 -57.5t-14 -71t-30 -60t-52.5 -25.5q-22 0 -39 20q-2 -7 -5 -17t-6.5 -19.5t-6.5 -16t-6 -6.5t-6 3t-3 9q2 10 8.5 32.5t11.5 35.5q-8 14 -11.5 30t-5.5 30q-1 9 -1.5 18.5
t-0.5 20.5q0 13 2 35t6.5 47.5t12 51.5t19 47t26.5 34.5t35 13.5q17 0 29.5 -10.5t20.5 -27.5q1 3 5 9q4 7 8.5 16t10 17.5t10 14.5t8.5 6zM30 133q0 -17 1 -31.5t4 -26.5q21 55 45.5 108t51.5 105q-5 17 -12 29t-19 12q-19 0 -32.5 -24.5t-22 -57.5t-12.5 -65.5t-4 -48.5z
M75 22q20 0 33 22t20.5 52t10.5 61.5t3 49.5q0 8 -1 22.5t-3 30.5q-26 -51 -50 -104t-44 -108q12 -26 31 -26z" />
    <glyph glyph-name="trademark" unicode="&#x2122;" horiz-adv-x="565" 
d="M341 466q10 30 20 59.5t22 58.5q3 7 11.5 29.5t20 46.5t24 43t23.5 19q6 0 10 -5t4 -11l-13 -69q-8 -38 -13.5 -77t-5.5 -79q0 -39 4 -67t16 -54q2 -6 2 -9q0 -5 -4 -9.5t-11 -4.5q-11 0 -18 13t-11 32.5t-6 41.5t-2 40q0 42 5 83.5t10 70.5q-5 -11 -9.5 -22.5
t-9.5 -22.5q-8 -19 -16.5 -47.5t-17 -54.5t-17 -45t-14.5 -19q-11 0 -18 10t-11.5 26t-6.5 36.5t-2 40.5q0 29 2.5 56t5.5 47q-32 -66 -46 -139t-14 -146q0 -8 -5 -11t-10 -3q-6 0 -10.5 3t-4.5 11q0 69 11.5 135.5t36.5 129.5q4 11 12 29.5t18 36.5t20 31t18 13
q6 0 10.5 -4t4.5 -12l-2 -12q-5 -33 -11 -78t-6 -87q0 -14 1 -28t3 -26zM129 665q-28 -5 -54 -13.5t-53 -19.5l-8 -2q-7 0 -10.5 4.5t-3.5 10.5q0 9 7 13q51 27 108.5 37t116.5 10q9 0 20.5 -0.5t21.5 -2t17 -5t7 -10.5q0 -6 -4.5 -11t-12.5 -5q-16 2 -32 3t-34 1
q-13 0 -26 -1t-27 -3q-19 -61 -32.5 -124t-13.5 -125q0 -27 4 -45t4 -31q0 -12 -15 -15q-8 0 -13 8t-7.5 20t-3 26t-0.5 27q0 31 4.5 66t11 69t14 64.5t14.5 53.5z" />
    <glyph glyph-name="Ccedilla" unicode="&#xc7;" horiz-adv-x="366" 
d="M156 -49q0 11 -7 22t-15 19q-39 9 -65 37.5t-41 66t-21 79t-6 76.5t7.5 80t21.5 93t35.5 94t48.5 82t60.5 58t72.5 22q22 0 38.5 -10t27.5 -26.5t16.5 -37t5.5 -40.5q0 -52 -26 -101.5t-68 -84.5q-5 -5 -12 -5t-11.5 5.5t-4.5 11.5q0 7 5 11q15 13 30 31t26.5 38t19 41.5
t7.5 42.5q0 10 -2 26t-7.5 30t-16 24.5t-26.5 10.5q-33 0 -62 -22t-53 -57.5t-42.5 -79.5t-31.5 -88.5t-19.5 -85t-6.5 -68.5q0 -32 6.5 -71t22 -73.5t42 -57.5t67.5 -23q36 0 62 28t43 67t27.5 80t15.5 68q3 12 16 12q6 0 11 -4t5 -13v-4q-9 -47 -21.5 -93.5t-33 -84
t-50 -62t-73.5 -26.5q5 -9 8.5 -18.5t3.5 -20.5q-1 -28 -25 -36.5t-54 -8.5q-8 1 -11.5 5.5t-3.5 9.5q0 6 3.5 10.5t9.5 4.5q5 0 13.5 0.5t17 2t14.5 5t6 8.5z" />
    <glyph glyph-name="germandbls" unicode="&#xdf;" horiz-adv-x="423" 
d="M198 385q35 -10 68.5 -29t59.5 -45t42 -60t16 -74q0 -33 -12.5 -64t-35 -55t-53 -39.5t-65.5 -17.5q-8 0 -12.5 5t-4.5 11q0 5 4 10t13 7q28 3 52.5 15.5t42.5 32t28 44.5t10 53q0 37 -15.5 66.5t-40 51.5t-56.5 37.5t-65 23.5q-3 1 -14 2.5t-22.5 3.5t-20.5 3.5t-10 1.5
q-14 -67 -23.5 -135t-9.5 -132q0 -41 4.5 -81t15.5 -81q0 -2 0.5 -2.5t0.5 -2.5q0 -8 -5 -12t-12 -4q-12 0 -19.5 22t-11 52t-5 60t-1.5 47q0 56 6.5 111.5t16.5 110.5q3 16 8.5 43.5t13 59.5t16 65t18 60t18.5 44t18 17q7 0 12 -4.5t5 -11.5q0 -3 -1 -5q-16 -47 -31 -94.5
t-27 -95.5q28 6 66.5 15.5t73 26t59 41.5t24.5 63q0 24 -12.5 41t-32 27.5t-42.5 15.5t-44 5q-55 0 -98 -19q-10 -4 -23 -12t-25 -16.5t-22 -14.5t-14 -6q-7 0 -11.5 5t-4.5 12q0 8 5 12q37 34 88 53t102 19h13q28 -2 56 -10.5t49.5 -24.5t35 -37.5t13.5 -48.5
q0 -35 -16.5 -62t-42 -46.5t-55.5 -32.5t-58 -21z" />
    <glyph glyph-name="guilsinglleft" unicode="&#x2039;" horiz-adv-x="223" 
d="M52 331q29 -22 58 -43.5t46 -39.5q4 -4 4 -11t-4 -11t-10 -4q-7 0 -11 4q-14 11 -26 22t-25 21q-16 13 -32.5 24.5t-32.5 24.5q-7 6 -7 13t7 13q14 12 29 22.5t29 23.5q17 15 30 31.5t27 34.5q5 8 13 8q3 0 7 -2q8 -5 8 -14q0 -3 -2 -7q-20 -33 -49 -60t-59 -50z" />
    <glyph glyph-name="guilsinglright" unicode="&#x203a;" horiz-adv-x="223" 
d="M175 330q-30 23 -59 50t-49 60q-2 4 -2 7q0 9 8 14q4 2 7 2q8 0 13 -8q14 -18 27 -34.5t30 -31.5q14 -13 29 -23.5t29 -22.5q7 -6 7 -13t-7 -13q-16 -13 -32.5 -24.5t-32.5 -24.5q-13 -10 -25 -21t-26 -22q-4 -4 -11 -4q-6 0 -10 4t-4 11t4 11q17 18 46 39.5t58 43.5z
" />
    <glyph glyph-name="Euro" unicode="&#x20ac;" horiz-adv-x="460" 
d="M106 404q9 33 28 79.5t47.5 90t66.5 74t84 30.5q22 0 38.5 -11t27 -27.5t15.5 -36.5t5 -38q0 -8 -5 -12t-11 -4q-12 0 -15.5 15t-7.5 33t-13.5 33t-34.5 15q-32 0 -62.5 -26t-56 -63.5t-44.5 -79t-28 -73.5q13 -1 25.5 -1h25.5q26 0 50.5 0.5t50.5 0.5q7 0 10.5 -5
t3.5 -11q0 -13 -15.5 -16.5t-34.5 -3.5q-31 0 -61.5 0.5t-62.5 2.5q-5 -21 -8 -42t-5 -42q12 -2 23.5 -2h23.5q23 0 46.5 1t46.5 1q7 0 11 -5t4 -12q0 -12 -21 -16t-47 -4q-28 0 -53.5 2t-34.5 2v-15q0 -18 5.5 -54t20 -73t39 -64.5t63.5 -27.5q32 0 55.5 21t42.5 47
q5 8 13 8q7 0 12 -5t5 -12q0 -5 -2 -8q-20 -33 -52.5 -58.5t-74.5 -25.5q-45 0 -76 27.5t-49.5 67.5t-26.5 84.5t-8 78.5v11q-3 0 -16.5 1t-28.5 3.5t-27 7.5t-12 13q0 6 5 11.5t16 5.5q34 -6 65 -9q3 42 12 84q-12 1 -30.5 2t-35 3.5t-28.5 6.5t-12 10q0 7 4 12.5t12 5.5
q25 -2 49 -4z" />
    <glyph glyph-name="yen" unicode="&#xa5;" horiz-adv-x="402" 
d="M227 438q11 26 28 57.5t37.5 63.5t42.5 60.5t42 48.5q5 5 11 5q7 0 12 -5t5 -12q0 -5 -5 -12.5t-12.5 -16t-15.5 -17.5t-14 -16q-15 -19 -35.5 -49.5t-39 -64t-32 -67t-13.5 -59.5q23 0 45 1t45 1h15q8 -1 12.5 -6t4.5 -11q0 -7 -9.5 -10.5t-26 -5t-39.5 -2t-50 -0.5
q-1 -16 -2 -31.5t-3 -31.5q24 0 49 1.5t55 1.5h4q8 0 12.5 -5t4.5 -11q0 -17 -31 -18t-98 -2l-10 -108q-2 -14 -2.5 -36.5t-3 -43.5t-6.5 -36.5t-13 -15.5q-17 0 -17 16v8q0 34 3.5 68.5t7.5 67.5l8 80q-7 0 -15 -0.5t-17 -0.5q-13 0 -26.5 0.5t-25 2.5t-18.5 5.5t-7 9.5
t4.5 11.5t12.5 5.5h48t48 -1q2 16 3 31.5t2 31.5q-15 0 -37 0.5t-43 2t-36 5.5t-15 12q0 6 4.5 11.5t12.5 5.5q25 -1 56.5 -2.5t60.5 -1.5q1 5 1 8.5v8.5v7q-2 25 -12 51t-24.5 51t-32.5 47.5t-34 41.5q-12 13 -30 29t-34 30.5t-27.5 26.5t-11.5 18t4.5 11.5t11.5 5.5
q5 0 12 -5q26 -19 55 -46t56.5 -59t50.5 -68.5t37 -73.5z" />
    <glyph glyph-name="section" unicode="&#xa7;" horiz-adv-x="413" 
d="M110 415q-86 43 -86 121q0 30 12.5 56t33.5 44.5t49.5 29.5t60.5 11q9 0 20.5 -1t22 -3.5t17.5 -7.5t7 -13q0 -7 -4.5 -12t-11.5 -5q-14 0 -26.5 4.5t-26.5 4.5q-25 0 -47 -8t-38.5 -22.5t-26 -34t-9.5 -42.5q0 -34 18.5 -54.5t46 -34t60 -24t60 -24t46 -34.5t18.5 -55
q0 -24 -13.5 -41.5t-34.5 -29t-45.5 -17t-46.5 -5.5h-13q-7 1 -12 5t-5 12q0 6 4.5 11t10.5 5h6q15 0 34.5 3t37.5 9.5t30.5 18.5t12.5 30q0 20 -12 33.5t-30 23t-38.5 16t-36.5 12.5q-10 -3 -26 -8t-31 -14t-26 -22.5t-11 -32.5q0 -29 16 -49t40.5 -35.5t53 -29t53 -28.5
t40.5 -34t16 -47t-11 -49t-29.5 -34.5t-42.5 -20t-50 -6.5q-9 0 -28.5 2.5t-39.5 7.5t-35 12.5t-15 18.5q0 7 5 11.5t12 4.5q4 0 8 -2q17 -11 40.5 -16.5t48.5 -5.5q20 0 38.5 4t33 13.5t23.5 24.5t9 37q0 19 -16 33.5t-40.5 28t-53 27t-53 31.5t-40.5 41t-16 55
q0 33 23.5 59t58.5 41z" />
    <glyph glyph-name="sterling" unicode="&#xa3;" horiz-adv-x="486" 
d="M216 90q29 -21 55 -43t55 -40t63 -30t79 -12q7 0 11.5 -5t4.5 -12q0 -6 -4.5 -11t-11.5 -5q-92 0 -167 50q-27 18 -51 39t-50 40q-23 -33 -60.5 -48.5t-74.5 -15.5q-39 0 -68 16.5t-29 47.5q0 22 10 37.5t25 25.5t33.5 14.5t35.5 4.5q30 0 60 -9.5t56 -24.5
q12 29 15.5 64t3.5 71q0 23 -0.5 46t-1.5 43q-12 1 -30.5 2.5t-35.5 4.5t-29 8.5t-12 14.5q0 6 4 11t12 5h4q20 0 42.5 -5.5t43.5 -7.5q-1 23 -2 47.5t-1 50.5q0 45 8 85.5t26 71t47.5 49t72.5 18.5q25 0 46.5 -9t37 -25t24.5 -38t9 -47q0 -12 -2.5 -26t-16.5 -14
q-6 0 -11 4.5t-5 12.5v4q1 5 1.5 10.5t0.5 10.5q0 20 -7 35.5t-19 26.5t-27 16.5t-31 5.5q-38 0 -62 -17t-37 -44.5t-17.5 -61.5t-4.5 -68q0 -29 1.5 -55t2.5 -46q15 -1 30.5 -1.5t30.5 -0.5q24 0 48 1t48 1q8 0 12 -5t4 -11q0 -13 -24.5 -17t-56.5 -4q-29 0 -56 2t-36 2
q1 -20 1.5 -42t0.5 -45q0 -40 -4.5 -79.5t-19.5 -73.5zM172 80q-23 13 -48 21.5t-51 8.5q-11 0 -24 -3t-24 -8.5t-18 -14t-7 -20.5q0 -19 18 -26t41 -7q48 0 73 13t40 36z" />
    <glyph glyph-name="florin" unicode="&#x192;" horiz-adv-x="313" 
d="M88 478q5 43 18 86t43 75q26 28 61.5 39.5t73.5 11.5h13q11 0 21 -3t10 -14q0 -7 -4.5 -12t-11.5 -5q-8 1 -15.5 1h-15.5q-45 0 -74 -16t-47 -41.5t-26.5 -58t-12.5 -64.5q34 0 67.5 1t67.5 1q8 0 12.5 -5.5t4.5 -11.5q0 -12 -28 -15t-73 -3h-54l-6 -112t-4 -116
q-1 -38 -3 -78t-13 -78q-8 -27 -24.5 -50.5t-40 -40.5t-52 -27t-59.5 -10q-8 0 -12 5.5t-4 11.5q0 5 4 10t12 6q53 4 84 23.5t47.5 50.5t21.5 72.5t6 90.5q2 60 4.5 120.5t5.5 122.5h-31.5t-35.5 1.5t-29 5.5t-12 13q0 6 4.5 11.5t12.5 5.5q23 0 47 -1.5t47 -2.5z" />
    <glyph glyph-name="mu" unicode="&#xb5;" horiz-adv-x="266" 
d="M50 -3q3 -14 7 -28t9 -28l1 -4q0 -7 -5 -11t-11 -4q-10 0 -14 11q-17 42 -23 95t-6 107q0 25 1 48.5t3 45.5q2 21 4 42.5t8 41.5q4 11 13 11t12 -5.5t3 -13.5q-2 -10 -4 -27.5t-4 -39t-3.5 -46t-1.5 -48.5q0 -43 6 -77.5t24 -44.5q4 0 8.5 7t9 16.5t8 18t4.5 11.5
q10 29 19.5 64t17.5 71.5t14.5 72t10.5 65.5q0 6 4 10.5t11 4.5t10.5 -5t3.5 -12l-1 -15q-2 -28 -5.5 -71t-3.5 -87q0 -5 1 -24t3.5 -41t7 -39t12.5 -17q12 0 22.5 12.5t18 29t12.5 33.5t7 25q4 11 13 11t12.5 -5.5t3.5 -13.5q-3 -15 -10 -36t-17.5 -39.5t-25.5 -32
t-36 -13.5q-18 0 -28.5 12.5t-15.5 31.5t-6.5 40.5t-2.5 38.5q-3 -12 -9.5 -35t-15 -47t-19.5 -44t-23 -26q-6 -3 -13 -3q-12 0 -21 6z" />
    <glyph glyph-name="onequarter" unicode="&#xbc;" horiz-adv-x="542" 
d="M392 146q11 -4 23 -8.5t12 -15.5q0 -6 -3.5 -10.5t-10.5 -4.5q-2 0 -8 2l-13 6q0 -29 4 -58t4 -56q0 -6 -4.5 -9.5t-10.5 -3.5q-9 0 -13.5 13.5t-6.5 33t-2.5 41.5t-0.5 38v8q-7 1 -13.5 1.5t-13.5 0.5q-25 0 -48.5 -4.5t-48.5 -9.5h-4q-6 0 -10.5 3.5t-4.5 9.5q0 3 1 5
q7 26 25 62.5t41.5 73t48.5 68.5t47 49q5 4 11 4q5 0 9.5 -3.5t4.5 -10.5q-2 -57 -8.5 -112.5t-6.5 -112.5zM258 145q19 4 37.5 6.5t37.5 2.5q7 0 14 -0.5t15 -1.5q0 45 3 89t8 89q-34 -38 -64.5 -87.5t-50.5 -97.5zM486 687q13 -4 13 -18q-2 -7 -13.5 -20.5t-19.5 -23.5
q-103 -115 -201 -249.5t-176 -279.5q-7 -12 -15.5 -28.5t-16.5 -31.5t-15.5 -25t-12.5 -10q-13 4 -13 18q0 2 0.5 3t0.5 3q3 8 10.5 23.5t16.5 32.5t18 33t14 25q71 125 155 241.5t175 225.5q8 10 19 24t22 26.5t21.5 21.5t17.5 9zM55 631q-5 -5 -12 -10.5t-12 -5.5
q-6 0 -11 4.5t-5 10.5q0 7 8 13q20 14 28 26.5t13 35.5q3 11 15 11h4q11 -4 11 -15q-1 -13 -3.5 -30.5l-4.5 -31.5q-6 -66 -6 -133q0 -63 6 -126l7 -44q0 -1 0.5 -2t0.5 -2q0 -5 -4.5 -10t-11.5 -5q-11 0 -16.5 22.5t-8 53t-3 62.5t-0.5 52q0 34 1.5 64t3.5 60z" />
    <glyph glyph-name="onehalf" unicode="&#xbd;" horiz-adv-x="542" 
d="M490 687q13 -4 13 -18q-2 -7 -13.5 -20.5t-19.5 -23.5q-103 -115 -201 -249.5t-176 -279.5q-7 -12 -15.5 -28.5t-16.5 -31.5t-15.5 -25t-12.5 -10q-13 4 -13 18q0 2 0.5 3t0.5 3q3 8 10.5 23.5t16.5 32.5t18 33t14 25q71 125 155 241.5t175 225.5q8 10 19 24t22 26.5
t21.5 21.5t17.5 9zM55 631q-5 -5 -12 -10.5t-12 -5.5q-6 0 -11 4.5t-5 10.5q0 7 8 13q20 14 28 26.5t13 35.5q3 11 15 11h4q11 -4 11 -15q-1 -13 -3.5 -30.5l-4.5 -31.5q-6 -66 -6 -133q0 -63 6 -126l7 -44q0 -1 0.5 -2t0.5 -2q0 -5 -4.5 -10t-11.5 -5q-11 0 -16.5 22.5
t-8 53t-3 62.5t-0.5 52q0 34 1.5 64t3.5 60zM319 42q17 4 33 6.5t33 2.5q9 0 20 -1t20.5 -3.5t16.5 -7t7 -11.5q0 -6 -4.5 -11t-10.5 -5q-13 0 -26 4.5t-27 4.5q-25 0 -49.5 -6t-47.5 -16q-6 -2 -8 -2q-8 0 -11.5 5.5t-3.5 8.5q0 5 3.5 9.5t6.5 9.5q23 30 50.5 62.5t51 68
t39.5 73.5t16 78q0 14 -6.5 28.5t-26.5 14.5q-22 0 -40 -12t-31.5 -30t-21.5 -39.5t-10 -40.5q-1 -8 -5 -11.5t-9 -3.5q-6 0 -11 4.5t-5 10.5q1 24 12 51t28.5 49.5t41 37t50.5 14.5t45.5 -19t18.5 -54q0 -22 -7 -46.5t-17 -48t-21.5 -44.5t-20.5 -35q-17 -26 -35 -49.5
t-38 -46.5z" />
    <glyph glyph-name="threequarters" unicode="&#xbe;" horiz-adv-x="593" 
d="M445 146q11 -4 23 -8.5t12 -15.5q0 -6 -3.5 -10.5t-10.5 -4.5q-2 0 -8 2l-13 6q0 -29 4 -58t4 -56q0 -6 -4.5 -9.5t-10.5 -3.5q-9 0 -13.5 13.5t-6.5 33t-2.5 41.5t-0.5 38v8q-7 1 -13.5 1.5t-13.5 0.5q-25 0 -48.5 -4.5t-48.5 -9.5h-4q-6 0 -10.5 3.5t-4.5 9.5q0 3 1 5
q7 26 25 62.5t41.5 73t48.5 68.5t47 49q5 4 11 4q5 0 9.5 -3.5t4.5 -10.5q-2 -57 -8.5 -112.5t-6.5 -112.5zM311 145q19 4 37.5 6.5t37.5 2.5q7 0 14 -0.5t15 -1.5q0 45 3 89t8 89q-34 -38 -64.5 -87.5t-50.5 -97.5zM539 687q13 -4 13 -18q-2 -7 -13.5 -20.5t-19.5 -23.5
q-103 -115 -201 -249.5t-176 -279.5q-7 -12 -15.5 -28.5t-16.5 -31.5t-15.5 -25t-12.5 -10q-13 4 -13 18q0 2 0.5 3t0.5 3q3 8 10.5 23.5t16.5 32.5t18 33t14 25q71 125 155 241.5t175 225.5q8 10 19 24t22 26.5t21.5 21.5t17.5 9zM171 542q35 -5 50.5 -28t15.5 -54
q0 -32 -16.5 -65t-48.5 -52q-28 -17 -60 -17q-16 0 -29 4q-35 11 -53 37.5t-18 46.5q0 9 3.5 15t11.5 6q7 0 11 -4.5t4 -10.5q2 -31 22.5 -47.5t46.5 -16.5q20 0 38 9q27 12 43 40t16 55q0 20 -10 34.5t-31 17.5q-3 1 -10 1q-11 0 -22 -3t-21 -7q-3 -2 -6.5 -3t-9.5 -2
q-7 0 -11 5t-4 10q0 8 7 12q2 2 7 3.5t6 1.5l18 10t17 12q12 10 22 22q9 11 18 33t9 42q0 19 -10 29t-25 10q-7 0 -11 -1q-21 -5 -36 -18t-25 -31t-16.5 -38t-9.5 -39q-3 -11 -15 -11q-1 0 -2 0.5t-2 0.5q-10 3 -10 18q4 28 14.5 54t27.5 49q19 23 41 34.5t43 11.5
q27 0 46.5 -18t19.5 -51q0 -21 -9 -46q-6 -17 -15 -32.5t-22 -28.5z" />
    <glyph glyph-name="dagger" unicode="&#x2020;" horiz-adv-x="323" 
d="M258 428q6 0 10.5 -4t4.5 -11q0 -6 -5 -10.5t-10 -4.5q-29 3 -57 3h-16q-2 -60 -3 -118t-1 -115q0 -66 1.5 -125.5t11.5 -110.5q0 -7 -4 -12.5t-13 -5.5q-11 0 -17 26.5t-8.5 68.5t-3 94t-0.5 103q0 32 0.5 83.5t2.5 109.5q-19 -2 -37.5 -4t-38.5 -6q-6 0 -11.5 4
t-5.5 11q0 6 8.5 10.5t22 7.5t30.5 5t33 3q2 48 5 94.5t7.5 82.5t11 58t15.5 22t13 -5.5t4 -11.5q0 -3 -0.5 -8t-2.5 -16q-8 -54 -12.5 -107.5t-6.5 -107.5h10q30 0 62 -3z" />
    <glyph glyph-name="daggerdbl" unicode="&#x2021;" horiz-adv-x="282" 
d="M226 428q6 0 10.5 -4t4.5 -11q0 -6 -5 -10.5t-10 -4.5q-29 3 -57 3h-16q-2 -44 -3 -86.5t-1 -84.5q17 0 35.5 -0.5t33.5 -2t25 -6t10 -11.5q0 -6 -4 -10.5t-11 -4.5q-17 0 -39.5 2t-49.5 3v-32q0 -66 1.5 -125.5t11.5 -110.5q0 -7 -4 -12.5t-13 -5.5q-11 0 -17 25.5
t-8.5 66.5t-3 92t-0.5 101q-19 -1 -38 -4t-40 -5q-8 0 -11.5 5t-3.5 10q0 7 8 11.5t21.5 7t30 4t33.5 1.5q0 33 0.5 77t2.5 93q-19 -2 -37.5 -4t-38.5 -6q-6 0 -11.5 4t-5.5 11q0 6 8.5 10.5t22 7.5t30.5 5t33 3q2 48 5 94.5t7.5 82.5t11 58t15.5 22t13 -5.5t4 -11.5
q0 -3 -0.5 -8t-2.5 -16q-8 -54 -12.5 -107.5t-6.5 -107.5h10q30 0 62 -3z" />
    <glyph glyph-name="onesuperior" unicode="&#xb9;" horiz-adv-x="130" 
d="M55 631q-5 -5 -12 -10.5t-12 -5.5q-6 0 -11 4.5t-5 10.5q0 7 8 13q20 14 28 26.5t13 35.5q3 11 15 11h4q11 -4 11 -15q-1 -13 -3.5 -30.5l-4.5 -31.5q-6 -66 -6 -133q0 -63 6 -126l7 -44q0 -1 0.5 -2t0.5 -2q0 -5 -4.5 -10t-11.5 -5q-11 0 -16.5 22.5t-8 53t-3 62.5
t-0.5 52q0 34 1.5 64t3.5 60z" />
    <glyph glyph-name="ordfeminine" unicode="&#xaa;" horiz-adv-x="323" 
d="M139 238q0 -34 -23 -34q-37 0 -37 39q0 29 29 29q31 0 31 -34zM171 349q-9 -22 -24.5 -38t-42.5 -16q-23 0 -39.5 12t-27.5 32t-16.5 46.5t-5.5 56.5q0 40 8 83.5t21 78.5t30.5 58t37.5 23q21 0 35.5 -19.5t23 -47.5t12.5 -59.5t5 -55.5q0 -12 0.5 -41.5t4 -60t11 -54
t21.5 -23.5t23.5 21t16 47.5t10 51l4.5 31.5q2 11 15 11q14 0 14 -15v-4q-2 -24 -7 -53.5t-14.5 -56t-25 -44.5t-37.5 -18q-23 0 -35 17t-18 37zM100 325q20 1 31.5 16.5t17.5 36.5t8 44t2 38q0 21 -2.5 54.5t-8.5 64.5t-14.5 53.5t-20.5 22.5q-3 0 -6 -3t-6 -7q-4 -4 -7 -9
q-26 -42 -37.5 -93.5t-11.5 -98.5q0 -19 2.5 -39.5t8.5 -38t16.5 -29t27.5 -12.5z" />
    <glyph glyph-name="ordmasculine" unicode="&#xba;" horiz-adv-x="213" 
d="M113 238q0 -34 -23 -34q-37 0 -37 39q0 29 29 29q31 0 31 -34zM110 670q22 0 36 -16t21.5 -39.5t10 -50.5t2.5 -49q0 -21 -3.5 -57.5t-14 -71t-30 -60t-52.5 -25.5q-17 0 -29 10.5t-20.5 25.5t-13 32.5t-6.5 32.5q-1 9 -1.5 18.5t-0.5 20.5q0 13 2 35t6.5 47.5t12 51.5
t19 47t26.5 34.5t35 13.5zM84 332q20 0 33 22t20.5 52t10.5 61.5t3 49.5q0 11 -1.5 31.5t-5.5 40.5t-12.5 35t-21.5 15q-19 0 -32.5 -24.5t-22 -57.5t-12.5 -65.5t-4 -48.5q0 -56 13.5 -83.5t31.5 -27.5z" />
    <glyph glyph-name="guillemotleft" unicode="&#xab;" horiz-adv-x="349" 
d="M175 331q29 -22 58 -43.5t46 -39.5q4 -4 4 -11t-4 -11t-10 -4q-7 0 -11 4q-14 11 -26 22t-25 21q-16 13 -32.5 24.5t-32.5 24.5q-7 6 -7 13t7 13q14 12 29 22.5t29 23.5q17 15 30 31.5t27 34.5q5 8 13 8q3 0 7 -2q8 -5 8 -14q0 -3 -2 -7q-20 -33 -49 -60t-59 -50zM48 331
q29 -22 58 -43.5t46 -39.5q4 -4 4 -11t-4 -11t-10 -4q-7 0 -11 4q-14 11 -26 22t-25 21q-16 13 -32.5 24.5t-32.5 24.5q-7 6 -7 13t7 13q14 12 29 22.5t29 23.5q17 15 30 31.5t27 34.5q5 8 13 8q3 0 7 -2q8 -5 8 -14q0 -3 -2 -7q-20 -33 -49 -60t-59 -50z" />
    <glyph glyph-name="twosuperior" unicode="&#xb2;" horiz-adv-x="253" 
d="M72 375q17 4 33 6.5t33 2.5q9 0 20 -1t20.5 -3.5t16.5 -7t7 -11.5q0 -6 -4.5 -11t-10.5 -5q-13 0 -26 4.5t-27 4.5q-25 0 -49.5 -6t-47.5 -16q-6 -2 -8 -2q-8 0 -11.5 5.5t-3.5 8.5q0 5 3.5 9.5t6.5 9.5q23 30 50.5 62.5t51 68t39.5 73.5t16 78q0 14 -6.5 28.5
t-26.5 14.5q-22 0 -40 -12t-31.5 -30t-21.5 -39.5t-10 -40.5q-1 -8 -5 -11.5t-9 -3.5q-6 0 -11 4.5t-5 10.5q1 24 12 51t28.5 49.5t41 37t50.5 14.5t45.5 -19t18.5 -54q0 -22 -7 -46.5t-17 -48t-21.5 -44.5t-20.5 -35q-17 -26 -35 -49.5t-38 -46.5z" />
    <glyph glyph-name="threesuperior" unicode="&#xb3;" horiz-adv-x="259" 
d="M151 542q35 -5 50.5 -28t15.5 -54q0 -32 -16.5 -65t-48.5 -52q-28 -17 -60 -17q-16 0 -29 4q-35 11 -53 37.5t-18 46.5q0 9 3.5 15t11.5 6q7 0 11 -4.5t4 -10.5q2 -31 22.5 -47.5t46.5 -16.5q20 0 38 9q27 12 43 40t16 55q0 20 -10 34.5t-31 17.5q-3 1 -10 1
q-11 0 -22 -3t-21 -7q-3 -2 -6.5 -3t-9.5 -2q-7 0 -11 5t-4 10q0 8 7 12q2 2 7 3.5t6 1.5l18 10t17 12q12 10 22 22q9 11 18 33t9 42q0 19 -10 29t-25 10q-7 0 -11 -1q-21 -5 -36 -18t-25 -31t-16.5 -38t-9.5 -39q-3 -11 -15 -11q-1 0 -2 0.5t-2 0.5q-10 3 -10 18
q4 28 14.5 54t27.5 49q19 23 41 34.5t43 11.5q27 0 46.5 -18t19.5 -51q0 -21 -9 -46q-6 -17 -15 -32.5t-22 -28.5z" />
    <glyph glyph-name="multiply" unicode="&#xd7;" horiz-adv-x="236" 
d="M144 338q4 -3 13 -10.5t18.5 -16.5t16.5 -19t7 -17q0 -13 -14 -13q-7 0 -11 4l-52 51q-16 -15 -29.5 -31t-26.5 -33q-5 -5 -8 -6.5t-6 -1.5q-13 0 -13 13q0 14 18 34.5t40 42.5q-7 5 -19 11.5t-23.5 13.5t-20 13.5t-8.5 11.5t4 10t11 5q4 0 15 -4.5t23 -11.5t23 -14
t17 -13l5 5q7 7 16.5 15.5t19.5 16t19 12.5t15 5q7 0 9 -4t2 -9q0 -4 -7.5 -11.5t-17 -16.5t-20 -17.5t-16.5 -14.5z" />
    <glyph glyph-name="periodcentered" unicode="&#xb7;" horiz-adv-x="137" 
d="M109 170q0 -46 -32 -46q-50 0 -50 53q0 40 40 40q42 0 42 -47z" />
    <glyph glyph-name="bullet" unicode="&#x2022;" horiz-adv-x="271" 
d="M181 330q0 -69 -47 -69q-75 0 -75 79q0 59 59 59q63 0 63 -69z" />
    <glyph glyph-name="thorn" unicode="&#xfe;" horiz-adv-x="270" 
d="M148 485q22 0 36 -16t21.5 -39.5t10 -50.5t2.5 -49q0 -21 -3.5 -57.5t-14 -71t-30 -60t-52.5 -25.5q-24 0 -40 21q0 -57 2 -108.5t11 -96.5q0 -7 -4 -12.5t-13 -5.5q-11 0 -17 26.5t-8.5 68.5t-3 94t-0.5 103q0 30 0.5 77t2 100.5t4.5 107.5t7.5 97.5t11.5 71t17 27.5
q9 0 13 -5.5t4 -11.5q0 -3 -0.5 -8t-2.5 -16q-8 -54 -12.5 -108t-6.5 -109q11 24 27 40t38 16zM122 147q20 0 33 22t20.5 52t10.5 61.5t3 49.5q0 11 -1.5 31.5t-5.5 40.5t-12.5 35t-21.5 15q-19 0 -32.5 -24.5t-22 -57.5t-12.5 -65.5t-4 -48.5q0 -56 13.5 -83.5t31.5 -27.5z
" />
    <glyph glyph-name="divide" unicode="&#xf7;" horiz-adv-x="242" 
d="M213 342q14 0 14 -16q0 -6 -5.5 -10t-10.5 -4q-29 4 -57 6q-9 1 -18.5 1h-19.5q-43 0 -88 -6q-7 0 -11.5 5t-4.5 11t8.5 10t22 6.5t29.5 3t32 0.5h26.5t20.5 -1q30 -1 62 -6zM149 222q0 -34 -23 -34q-37 0 -37 39q0 29 29 29q31 0 31 -34zM149 437q0 -34 -23 -34
q-37 0 -37 39q0 29 29 29q31 0 31 -34z" />
    <glyph glyph-name="plusminus" unicode="&#xb1;" horiz-adv-x="236" 
d="M210 183q14 0 14 -16q0 -6 -5.5 -10t-10.5 -4q-29 4 -57 6q-9 1 -18.5 1h-19.5q-43 0 -88 -6q-7 0 -11.5 5t-4.5 11t8.5 10t22 6.5t29.5 3t32 0.5h26.5t20.5 -1q30 -1 62 -6zM133 356q11 1 22.5 2t22.5 1q14 0 28 -2.5t14 -14.5q0 -13 -15 -15h-37h-18t-18 -1
q0 -22 2 -43l4 -42v-4q0 -8 -4.5 -11.5t-9.5 -3.5q-8 0 -12.5 9t-6.5 22t-2.5 28t-0.5 27v13q-18 -3 -38.5 -10.5t-37.5 -7.5q-7 0 -10.5 4.5t-3.5 10.5q0 8 10 13.5t24.5 9.5t29.5 6.5t26 4.5v8q0 12 1 27t3 28.5t6 22.5t11 9q6 0 11 -4.5t5 -11.5q-1 -19 -3.5 -37.5
t-2.5 -37.5z" />
    <glyph glyph-name="degree" unicode="&#xb0;" horiz-adv-x="270" 
d="M31 584q0 43 29 73t73 30q22 0 41 -8t33 -22t22 -33t8 -40q0 -44 -30 -73.5t-74 -29.5t-73 29.5t-29 73.5zM64 584q0 -31 19 -50t50 -19q30 0 51.5 19t21.5 50q0 29 -21.5 51t-51.5 22q-31 0 -50 -22t-19 -51z" />
    <glyph glyph-name="eth" unicode="&#xf0;" horiz-adv-x="408" 
d="M186 -11q-45 0 -76 23t-50.5 57.5t-28 74.5t-8.5 74q0 31 7 66.5t23 66t41 50.5t61 20q22 0 43.5 -8t41.5 -21t37.5 -28.5t31.5 -31.5q5 -5 5 -12t-5.5 -11.5t-10.5 -4.5q-7 0 -12 5q-14 13 -28.5 27t-30.5 25.5t-34 19t-38 7.5q-30 0 -49 -19t-30 -46.5t-15.5 -57
t-4.5 -50.5q0 -31 7 -65t23 -62.5t40.5 -47t59.5 -18.5q30 0 51.5 16.5t37 43t24.5 59t14.5 65.5t7 63t1.5 50q0 18 -3 45.5t-9 59.5t-15.5 65t-23.5 62q-27 -13 -54 -32q-2 -1 -6 -1q-5 0 -9.5 2t-6.5 7q0 1 -0.5 2t-0.5 2q0 11 19.5 23.5t42.5 23.5q-17 26 -39 42.5
t-50 16.5q-25 0 -43 -12.5t-30.5 -31.5t-20.5 -41.5t-14 -41.5q-3 -12 -16 -12q-8 0 -12.5 5.5t-4.5 11.5l1 4q7 26 18.5 53t28 48.5t39 35.5t52.5 14q40 0 69.5 -21.5t51.5 -56.5l16 7q14 6 23 8.5t24 7.5q2 1 6 1q11 0 14 -9q1 -2 1 -5q0 -11 -9 -15q-14 -4 -22 -6.5
t-21 -7.5q-5 -2 -9 -3.5t-9 -3.5q15 -31 25.5 -65.5t17 -68.5t9.5 -65t3 -53q0 -28 -3 -62.5t-10 -71t-19 -71t-31 -61t-45 -43t-61 -16.5z" />
    <glyph glyph-name="Aacute" unicode="&#xc1;" horiz-adv-x="434" 
d="M130 297q81 28 163 41q-12 97 -12 196v32.5t1 32.5q-51 -68 -88.5 -144.5t-63.5 -157.5zM91 282q26 90 66 172.5t93 160.5q4 6 10.5 14t13.5 15.5t14.5 12.5t13.5 5q15 -3 15 -17v-6q0 -22 -1.5 -49.5t-1.5 -65.5q0 -125 16.5 -219.5t37 -161t37 -104.5t16.5 -48
q0 -8 -5.5 -12t-11.5 -4q-9 0 -14 8q-18 34 -32.5 73.5t-25.5 81.5t-20 84.5t-15 82.5q-46 -8 -90 -19.5t-88 -27.5q-11 -39 -21.5 -94.5t-10.5 -137.5q0 -11 -2.5 -18.5t-13.5 -7.5q-15 0 -17 17q0 61 6.5 116t20.5 109q-12 -5 -25.5 -11.5t-26.5 -13t-24 -11t-17 -4.5
q-17 0 -17 14q0 6 14 15t33.5 19t39.5 18.5t33 13.5zM406 801q-1 -11 -13.5 -27t-29 -30.5t-32.5 -25t-25 -10.5q-12 0 -17 5.5t-5 9.5q0 6 4.5 12t17.5 11q20 8 38 26.5t29 34.5q5 7 9 9t8 2q16 0 16 -17z" />
    <glyph glyph-name="Acircumflex" unicode="&#xc2;" horiz-adv-x="434" 
d="M130 297q81 28 163 41q-12 97 -12 196v32.5t1 32.5q-51 -68 -88.5 -144.5t-63.5 -157.5zM91 282q26 90 66 172.5t93 160.5q4 6 10.5 14t13.5 15.5t14.5 12.5t13.5 5q15 -3 15 -17v-6q0 -22 -1.5 -49.5t-1.5 -65.5q0 -125 16.5 -219.5t37 -161t37 -104.5t16.5 -48
q0 -8 -5.5 -12t-11.5 -4q-9 0 -14 8q-18 34 -32.5 73.5t-25.5 81.5t-20 84.5t-15 82.5q-46 -8 -90 -19.5t-88 -27.5q-11 -39 -21.5 -94.5t-10.5 -137.5q0 -11 -2.5 -18.5t-13.5 -7.5q-15 0 -17 17q0 61 6.5 116t20.5 109q-12 -5 -25.5 -11.5t-26.5 -13t-24 -11t-17 -4.5
q-17 0 -17 14q0 6 14 15t33.5 19t39.5 18.5t33 13.5zM299 774q-14 -14 -29 -28.5t-32 -23.5q-6 -2 -8 -2q-5 0 -10 3.5t-5 10.5q0 9 8 14q20 14 36.5 30t33.5 33q5 5 10 5q11 0 16 -12q20 -49 59 -88q5 -5 5 -11t-4.5 -10.5t-10.5 -4.5t-11 4q-17 14 -32.5 37t-25.5 43z" />
    <glyph glyph-name="Agrave" unicode="&#xc0;" horiz-adv-x="434" 
d="M130 297q81 28 163 41q-12 97 -12 196v32.5t1 32.5q-51 -68 -88.5 -144.5t-63.5 -157.5zM91 282q26 90 66 172.5t93 160.5q4 6 10.5 14t13.5 15.5t14.5 12.5t13.5 5q15 -3 15 -17v-6q0 -22 -1.5 -49.5t-1.5 -65.5q0 -125 16.5 -219.5t37 -161t37 -104.5t16.5 -48
q0 -8 -5.5 -12t-11.5 -4q-9 0 -14 8q-18 34 -32.5 73.5t-25.5 81.5t-20 84.5t-15 82.5q-46 -8 -90 -19.5t-88 -27.5q-11 -39 -21.5 -94.5t-10.5 -137.5q0 -11 -2.5 -18.5t-13.5 -7.5q-15 0 -17 17q0 61 6.5 116t20.5 109q-12 -5 -25.5 -11.5t-26.5 -13t-24 -11t-17 -4.5
q-17 0 -17 14q0 6 14 15t33.5 19t39.5 18.5t33 13.5zM192 801q0 17 16 17q4 0 8 -2t9 -9q11 -16 29 -34.5t38 -26.5q13 -5 17.5 -11t4.5 -12q0 -4 -5 -9.5t-17 -5.5q-9 0 -25 10.5t-32.5 25t-29 30.5t-13.5 27z" />
    <glyph glyph-name="Adieresis" unicode="&#xc4;" horiz-adv-x="434" 
d="M130 297q81 28 163 41q-12 97 -12 196v32.5t1 32.5q-51 -68 -88.5 -144.5t-63.5 -157.5zM91 282q26 90 66 172.5t93 160.5q4 6 10.5 14t13.5 15.5t14.5 12.5t13.5 5q15 -3 15 -17v-6q0 -22 -1.5 -49.5t-1.5 -65.5q0 -125 16.5 -219.5t37 -161t37 -104.5t16.5 -48
q0 -8 -5.5 -12t-11.5 -4q-9 0 -14 8q-18 34 -32.5 73.5t-25.5 81.5t-20 84.5t-15 82.5q-46 -8 -90 -19.5t-88 -27.5q-11 -39 -21.5 -94.5t-10.5 -137.5q0 -11 -2.5 -18.5t-13.5 -7.5q-15 0 -17 17q0 61 6.5 116t20.5 109q-12 -5 -25.5 -11.5t-26.5 -13t-24 -11t-17 -4.5
q-17 0 -17 14q0 6 14 15t33.5 19t39.5 18.5t33 13.5zM375 742q0 -34 -23 -34q-37 0 -37 39q0 29 29 29q31 0 31 -34zM278 742q0 -34 -23 -34q-37 0 -37 39q0 29 29 29q31 0 31 -34z" />
    <glyph glyph-name="Aring" unicode="&#xc5;" horiz-adv-x="434" 
d="M130 297q81 28 163 41q-12 97 -12 196v32.5t1 32.5q-51 -68 -88.5 -144.5t-63.5 -157.5zM91 282q26 90 66 172.5t93 160.5q4 6 10.5 14t13.5 15.5t14.5 12.5t13.5 5q15 -3 15 -17v-6q0 -22 -1.5 -49.5t-1.5 -65.5q0 -125 16.5 -219.5t37 -161t37 -104.5t16.5 -48
q0 -8 -5.5 -12t-11.5 -4q-9 0 -14 8q-18 34 -32.5 73.5t-25.5 81.5t-20 84.5t-15 82.5q-46 -8 -90 -19.5t-88 -27.5q-11 -39 -21.5 -94.5t-10.5 -137.5q0 -11 -2.5 -18.5t-13.5 -7.5q-15 0 -17 17q0 61 6.5 116t20.5 109q-12 -5 -25.5 -11.5t-26.5 -13t-24 -11t-17 -4.5
q-17 0 -17 14q0 6 14 15t33.5 19t39.5 18.5t33 13.5zM235 763q0 26 18 44.5t44 18.5t44.5 -18.5t18.5 -44.5t-18.5 -44t-44.5 -18t-44 18t-18 44zM266 763q0 -14 8.5 -22.5t22.5 -8.5t23.5 8.5t9.5 22.5t-9.5 23.5t-23.5 9.5t-22.5 -9.5t-8.5 -23.5z" />
    <glyph glyph-name="Atilde" unicode="&#xc3;" horiz-adv-x="434" 
d="M130 297q81 28 163 41q-12 97 -12 196v32.5t1 32.5q-51 -68 -88.5 -144.5t-63.5 -157.5zM91 282q26 90 66 172.5t93 160.5q4 6 10.5 14t13.5 15.5t14.5 12.5t13.5 5q15 -3 15 -17v-6q0 -22 -1.5 -49.5t-1.5 -65.5q0 -125 16.5 -219.5t37 -161t37 -104.5t16.5 -48
q0 -8 -5.5 -12t-11.5 -4q-9 0 -14 8q-18 34 -32.5 73.5t-25.5 81.5t-20 84.5t-15 82.5q-46 -8 -90 -19.5t-88 -27.5q-11 -39 -21.5 -94.5t-10.5 -137.5q0 -11 -2.5 -18.5t-13.5 -7.5q-15 0 -17 17q0 61 6.5 116t20.5 109q-12 -5 -25.5 -11.5t-26.5 -13t-24 -11t-17 -4.5
q-17 0 -17 14q0 6 14 15t33.5 19t39.5 18.5t33 13.5zM226 716q-6 -8 -13 -8q-6 0 -10.5 4.5t-4.5 11.5q0 3 2 7q11 22 24.5 29t26.5 7q12 0 23 -4.5t22 -10.5t22.5 -10.5t24.5 -4.5q7 0 12 4.5t10 10t9.5 10t9.5 4.5q6 0 11 -4.5t5 -10.5q0 -4 -5 -11q-16 -19 -28 -26
t-24 -7t-23.5 4.5t-23 10.5t-22.5 10.5t-22 4.5q-9 0 -14.5 -6.5t-11.5 -14.5z" />
    <glyph glyph-name="Iacute" unicode="&#xcd;" horiz-adv-x="208" 
d="M61 155q0 -30 2.5 -52.5t6 -38.5t7 -27t5.5 -18l1 -5q0 -8 -5 -12t-12 -4q-5 0 -9.5 2.5t-6.5 9.5q-13 32 -17.5 68t-4.5 76q0 61 8.5 125t24.5 127t39 122t51 109q5 8 14 8q7 0 12 -4t5 -12q0 -6 -2 -9q-24 -42 -45 -97t-37 -116t-26 -126t-11 -126zM279 801
q-1 -11 -13.5 -27t-29 -30.5t-32.5 -25t-25 -10.5q-12 0 -17 5.5t-5 9.5q0 6 4.5 12t17.5 11q20 8 38 26.5t29 34.5q5 7 9 9t8 2q16 0 16 -17z" />
    <glyph glyph-name="Icircumflex" unicode="&#xce;" horiz-adv-x="208" 
d="M61 155q0 -30 2.5 -52.5t6 -38.5t7 -27t5.5 -18l1 -5q0 -8 -5 -12t-12 -4q-5 0 -9.5 2.5t-6.5 9.5q-13 32 -17.5 68t-4.5 76q0 61 8.5 125t24.5 127t39 122t51 109q5 8 14 8q7 0 12 -4t5 -12q0 -6 -2 -9q-24 -42 -45 -97t-37 -116t-26 -126t-11 -126zM177 774
q-14 -14 -29 -28.5t-32 -23.5q-6 -2 -8 -2q-5 0 -10 3.5t-5 10.5q0 9 8 14q20 14 36.5 30t33.5 33q5 5 10 5q11 0 16 -12q20 -49 59 -88q5 -5 5 -11t-4.5 -10.5t-10.5 -4.5t-11 4q-17 14 -32.5 37t-25.5 43z" />
    <glyph glyph-name="Idieresis" unicode="&#xcf;" horiz-adv-x="208" 
d="M61 155q0 -30 2.5 -52.5t6 -38.5t7 -27t5.5 -18l1 -5q0 -8 -5 -12t-12 -4q-5 0 -9.5 2.5t-6.5 9.5q-13 32 -17.5 68t-4.5 76q0 61 8.5 125t24.5 127t39 122t51 109q5 8 14 8q7 0 12 -4t5 -12q0 -6 -2 -9q-24 -42 -45 -97t-37 -116t-26 -126t-11 -126zM246 742
q0 -34 -23 -34q-37 0 -37 39q0 29 29 29q31 0 31 -34zM149 742q0 -34 -23 -34q-37 0 -37 39q0 29 29 29q31 0 31 -34z" />
    <glyph glyph-name="Igrave" unicode="&#xcc;" horiz-adv-x="208" 
d="M61 155q0 -30 2.5 -52.5t6 -38.5t7 -27t5.5 -18l1 -5q0 -8 -5 -12t-12 -4q-5 0 -9.5 2.5t-6.5 9.5q-13 32 -17.5 68t-4.5 76q0 61 8.5 125t24.5 127t39 122t51 109q5 8 14 8q7 0 12 -4t5 -12q0 -6 -2 -9q-24 -42 -45 -97t-37 -116t-26 -126t-11 -126zM75 798q0 17 16 17
q4 0 8 -2t9 -9q11 -16 29 -34.5t38 -26.5q13 -5 17.5 -11t4.5 -12q0 -4 -5 -9.5t-17 -5.5q-9 0 -25 10.5t-32.5 25t-29 30.5t-13.5 27z" />
    <glyph glyph-name="Eacute" unicode="&#xc9;" horiz-adv-x="379" 
d="M96 600q-7 -2 -18 -6.5t-20 -4.5q-7 0 -12 4.5t-5 12.5q0 10 12 15q54 23 121.5 32.5t130.5 9.5h27t26 -2q16 -2 16 -17q0 -16 -16 -16q-17 1 -33.5 1h-45.5q-36 -1 -72 -5.5t-71 -13.5q-26 -56 -43 -115t-29 -119q81 26 164 26q22 0 45 -3q16 -2 16 -17q0 -16 -16 -16
q-16 1 -31.5 1.5t-31.5 0.5q-78 -1 -153 -28q-11 -64 -18 -128t-7 -130v-17.5t1 -17.5q44 32 102.5 49.5t115.5 17.5h20t19 -2q7 -2 12 -5.5t5 -11.5q0 -6 -4.5 -11t-12.5 -5q-9 1 -18 1.5t-19 0.5q-59 0 -116.5 -18.5t-106.5 -61.5q-7 -5 -11 -5q-6 0 -11 4.5t-6 11.5
q-2 14 -2 30v42q0 129 22.5 260t73.5 256zM276 801q-1 -11 -13.5 -27t-29 -30.5t-32.5 -25t-25 -10.5q-12 0 -17 5.5t-5 9.5q0 6 4.5 12t17.5 11q20 8 38 26.5t29 34.5q5 7 9 9t8 2q16 0 16 -17z" />
    <glyph glyph-name="Ecircumflex" unicode="&#xca;" horiz-adv-x="379" 
d="M96 600q-7 -2 -18 -6.5t-20 -4.5q-7 0 -12 4.5t-5 12.5q0 10 12 15q54 23 121.5 32.5t130.5 9.5h27t26 -2q16 -2 16 -17q0 -16 -16 -16q-17 1 -33.5 1h-45.5q-36 -1 -72 -5.5t-71 -13.5q-26 -56 -43 -115t-29 -119q81 26 164 26q22 0 45 -3q16 -2 16 -17q0 -16 -16 -16
q-16 1 -31.5 1.5t-31.5 0.5q-78 -1 -153 -28q-11 -64 -18 -128t-7 -130v-17.5t1 -17.5q44 32 102.5 49.5t115.5 17.5h20t19 -2q7 -2 12 -5.5t5 -11.5q0 -6 -4.5 -11t-12.5 -5q-9 1 -18 1.5t-19 0.5q-59 0 -116.5 -18.5t-106.5 -61.5q-7 -5 -11 -5q-6 0 -11 4.5t-6 11.5
q-2 14 -2 30v42q0 129 22.5 260t73.5 256zM218 774q-14 -14 -29 -28.5t-32 -23.5q-6 -2 -8 -2q-5 0 -10 3.5t-5 10.5q0 9 8 14q20 14 36.5 30t33.5 33q5 5 10 5q11 0 16 -12q20 -49 59 -88q5 -5 5 -11t-4.5 -10.5t-10.5 -4.5t-11 4q-17 14 -32.5 37t-25.5 43z" />
    <glyph glyph-name="Edieresis" unicode="&#xcb;" horiz-adv-x="379" 
d="M96 600q-7 -2 -18 -6.5t-20 -4.5q-7 0 -12 4.5t-5 12.5q0 10 12 15q54 23 121.5 32.5t130.5 9.5h27t26 -2q16 -2 16 -17q0 -16 -16 -16q-17 1 -33.5 1h-45.5q-36 -1 -72 -5.5t-71 -13.5q-26 -56 -43 -115t-29 -119q81 26 164 26q22 0 45 -3q16 -2 16 -17q0 -16 -16 -16
q-16 1 -31.5 1.5t-31.5 0.5q-78 -1 -153 -28q-11 -64 -18 -128t-7 -130v-17.5t1 -17.5q44 32 102.5 49.5t115.5 17.5h20t19 -2q7 -2 12 -5.5t5 -11.5q0 -6 -4.5 -11t-12.5 -5q-9 1 -18 1.5t-19 0.5q-59 0 -116.5 -18.5t-106.5 -61.5q-7 -5 -11 -5q-6 0 -11 4.5t-6 11.5
q-2 14 -2 30v42q0 129 22.5 260t73.5 256zM289 742q0 -34 -23 -34q-37 0 -37 39q0 29 29 29q31 0 31 -34zM192 742q0 -34 -23 -34q-37 0 -37 39q0 29 29 29q31 0 31 -34z" />
    <glyph glyph-name="Egrave" unicode="&#xc8;" horiz-adv-x="379" 
d="M96 600q-7 -2 -18 -6.5t-20 -4.5q-7 0 -12 4.5t-5 12.5q0 10 12 15q54 23 121.5 32.5t130.5 9.5h27t26 -2q16 -2 16 -17q0 -16 -16 -16q-17 1 -33.5 1h-45.5q-36 -1 -72 -5.5t-71 -13.5q-26 -56 -43 -115t-29 -119q81 26 164 26q22 0 45 -3q16 -2 16 -17q0 -16 -16 -16
q-16 1 -31.5 1.5t-31.5 0.5q-78 -1 -153 -28q-11 -64 -18 -128t-7 -130v-17.5t1 -17.5q44 32 102.5 49.5t115.5 17.5h20t19 -2q7 -2 12 -5.5t5 -11.5q0 -6 -4.5 -11t-12.5 -5q-9 1 -18 1.5t-19 0.5q-59 0 -116.5 -18.5t-106.5 -61.5q-7 -5 -11 -5q-6 0 -11 4.5t-6 11.5
q-2 14 -2 30v42q0 129 22.5 260t73.5 256zM127 801q0 17 16 17q4 0 8 -2t9 -9q11 -16 29 -34.5t38 -26.5q13 -5 17.5 -11t4.5 -12q0 -4 -5 -9.5t-17 -5.5q-9 0 -25 10.5t-32.5 25t-29 30.5t-13.5 27z" />
    <glyph glyph-name="Ntilde" unicode="&#xd1;" horiz-adv-x="423" 
d="M279 86q0 62 5 136t17 151.5t30.5 154t45.5 142.5q5 12 16 12q5 0 11 -4t6 -12q-26 -64 -44.5 -151.5t-30.5 -177.5t-17.5 -172.5t-5.5 -137.5q0 -10 -2.5 -22.5t-16.5 -12.5q-9 0 -13 8q-30 54 -55 127.5t-43.5 152.5t-28.5 156t-10 139q-50 -122 -75 -256.5t-25 -271.5
q0 -11 0.5 -22t0.5 -24q0 -17 -15 -17t-17 17q-1 8 -1.5 18.5t-0.5 22.5q0 152 29.5 307t103.5 301q6 12 16 12q5 0 10 -4t6 -12q1 -5 1 -9v-9q0 -59 7.5 -129t21.5 -142t32.5 -142.5t41.5 -128.5zM205 716q-6 -8 -13 -8q-6 0 -10.5 4.5t-4.5 11.5q0 3 2 7q11 22 24.5 29
t26.5 7q12 0 23 -4.5t22 -10.5t22.5 -10.5t24.5 -4.5q7 0 12 4.5t10 10t9.5 10t9.5 4.5q6 0 11 -4.5t5 -10.5q0 -4 -5 -11q-16 -19 -28 -26t-24 -7t-23.5 4.5t-23 10.5t-22.5 10.5t-22 4.5q-9 0 -14.5 -6.5t-11.5 -14.5z" />
    <glyph glyph-name="Oacute" unicode="&#xd3;" horiz-adv-x="385" 
d="M172 628q-25 0 -46.5 -9t-39 -20.5t-30.5 -20.5t-21 -9q-5 0 -10.5 5t-5.5 12q0 5 5 12q30 28 69.5 46t79.5 18q44 0 78.5 -18t58 -50t36 -77t12.5 -100q0 -79 -16 -155.5t-46 -137t-71.5 -98t-92.5 -37.5q-39 0 -64.5 23t-40.5 60t-21 82t-6 89q0 63 13 118.5t38 108.5
q6 13 19 37t27.5 47.5t29 40.5t25.5 17q8 0 13 -5t5 -10q0 -7 -5.5 -13t-10.5 -13q-25 -30 -46.5 -70t-37 -82t-24.5 -83t-9 -73q0 -47 6 -90t17 -77t28 -54t38 -20q42 0 78.5 37.5t63.5 94.5t42 125t15 129q0 33 -8 71.5t-26 71.5t-47.5 55t-71.5 22zM295 801
q-1 -11 -13.5 -27t-29 -30.5t-32.5 -25t-25 -10.5q-12 0 -17 5.5t-5 9.5q0 6 4.5 12t17.5 11q20 8 38 26.5t29 34.5q5 7 9 9t8 2q16 0 16 -17z" />
    <glyph glyph-name="Ocircumflex" unicode="&#xd4;" horiz-adv-x="385" 
d="M172 628q-25 0 -46.5 -9t-39 -20.5t-30.5 -20.5t-21 -9q-5 0 -10.5 5t-5.5 12q0 5 5 12q30 28 69.5 46t79.5 18q44 0 78.5 -18t58 -50t36 -77t12.5 -100q0 -79 -16 -155.5t-46 -137t-71.5 -98t-92.5 -37.5q-39 0 -64.5 23t-40.5 60t-21 82t-6 89q0 63 13 118.5t38 108.5
q6 13 19 37t27.5 47.5t29 40.5t25.5 17q8 0 13 -5t5 -10q0 -7 -5.5 -13t-10.5 -13q-25 -30 -46.5 -70t-37 -82t-24.5 -83t-9 -73q0 -47 6 -90t17 -77t28 -54t38 -20q42 0 78.5 37.5t63.5 94.5t42 125t15 129q0 33 -8 71.5t-26 71.5t-47.5 55t-71.5 22zM213 774
q-14 -14 -29 -28.5t-32 -23.5q-6 -2 -8 -2q-5 0 -10 3.5t-5 10.5q0 9 8 14q20 14 36.5 30t33.5 33q5 5 10 5q11 0 16 -12q20 -49 59 -88q5 -5 5 -11t-4.5 -10.5t-10.5 -4.5t-11 4q-17 14 -32.5 37t-25.5 43z" />
    <glyph glyph-name="Odieresis" unicode="&#xd6;" horiz-adv-x="385" 
d="M172 628q-25 0 -46.5 -9t-39 -20.5t-30.5 -20.5t-21 -9q-5 0 -10.5 5t-5.5 12q0 5 5 12q30 28 69.5 46t79.5 18q44 0 78.5 -18t58 -50t36 -77t12.5 -100q0 -79 -16 -155.5t-46 -137t-71.5 -98t-92.5 -37.5q-39 0 -64.5 23t-40.5 60t-21 82t-6 89q0 63 13 118.5t38 108.5
q6 13 19 37t27.5 47.5t29 40.5t25.5 17q8 0 13 -5t5 -10q0 -7 -5.5 -13t-10.5 -13q-25 -30 -46.5 -70t-37 -82t-24.5 -83t-9 -73q0 -47 6 -90t17 -77t28 -54t38 -20q42 0 78.5 37.5t63.5 94.5t42 125t15 129q0 33 -8 71.5t-26 71.5t-47.5 55t-71.5 22zM280 742
q0 -34 -23 -34q-37 0 -37 39q0 29 29 29q31 0 31 -34zM183 742q0 -34 -23 -34q-37 0 -37 39q0 29 29 29q31 0 31 -34z" />
    <glyph glyph-name="Ograve" unicode="&#xd2;" horiz-adv-x="385" 
d="M172 628q-25 0 -46.5 -9t-39 -20.5t-30.5 -20.5t-21 -9q-5 0 -10.5 5t-5.5 12q0 5 5 12q30 28 69.5 46t79.5 18q44 0 78.5 -18t58 -50t36 -77t12.5 -100q0 -79 -16 -155.5t-46 -137t-71.5 -98t-92.5 -37.5q-39 0 -64.5 23t-40.5 60t-21 82t-6 89q0 63 13 118.5t38 108.5
q6 13 19 37t27.5 47.5t29 40.5t25.5 17q8 0 13 -5t5 -10q0 -7 -5.5 -13t-10.5 -13q-25 -30 -46.5 -70t-37 -82t-24.5 -83t-9 -73q0 -47 6 -90t17 -77t28 -54t38 -20q42 0 78.5 37.5t63.5 94.5t42 125t15 129q0 33 -8 71.5t-26 71.5t-47.5 55t-71.5 22zM118 801q0 17 16 17
q4 0 8 -2t9 -9q11 -16 29 -34.5t38 -26.5q13 -5 17.5 -11t4.5 -12q0 -4 -5 -9.5t-17 -5.5q-9 0 -25 10.5t-32.5 25t-29 30.5t-13.5 27z" />
    <glyph glyph-name="Otilde" unicode="&#xd5;" horiz-adv-x="385" 
d="M172 628q-25 0 -46.5 -9t-39 -20.5t-30.5 -20.5t-21 -9q-5 0 -10.5 5t-5.5 12q0 5 5 12q30 28 69.5 46t79.5 18q44 0 78.5 -18t58 -50t36 -77t12.5 -100q0 -79 -16 -155.5t-46 -137t-71.5 -98t-92.5 -37.5q-39 0 -64.5 23t-40.5 60t-21 82t-6 89q0 63 13 118.5t38 108.5
q6 13 19 37t27.5 47.5t29 40.5t25.5 17q8 0 13 -5t5 -10q0 -7 -5.5 -13t-10.5 -13q-25 -30 -46.5 -70t-37 -82t-24.5 -83t-9 -73q0 -47 6 -90t17 -77t28 -54t38 -20q42 0 78.5 37.5t63.5 94.5t42 125t15 129q0 33 -8 71.5t-26 71.5t-47.5 55t-71.5 22zM127 716q-6 -8 -13 -8
q-6 0 -10.5 4.5t-4.5 11.5q0 3 2 7q11 22 24.5 29t26.5 7q12 0 23 -4.5t22 -10.5t22.5 -10.5t24.5 -4.5q7 0 12 4.5t10 10t9.5 10t9.5 4.5q6 0 11 -4.5t5 -10.5q0 -4 -5 -11q-16 -19 -28 -26t-24 -7t-23.5 4.5t-23 10.5t-22.5 10.5t-22 4.5q-9 0 -14.5 -6.5t-11.5 -14.5z
" />
    <glyph glyph-name="Scaron" unicode="&#x160;" horiz-adv-x="376" 
d="M250 179q-29 38 -63 67.5t-62.5 61.5t-47.5 71.5t-19 98.5q0 35 16.5 68.5t43.5 59t62 41t73 15.5q47 0 74.5 -27t27.5 -70q0 -37 -15.5 -69.5t-38 -57t-49 -38.5t-48.5 -14q-6 0 -12 4.5t-6 12.5q0 11 13 15q21 3 42.5 17.5t39.5 35t29.5 45t11.5 47.5q0 27 -18.5 47
t-47.5 20q-32 0 -62 -13t-52.5 -34.5t-36 -50.5t-13.5 -61q0 -44 18 -78.5t45 -65t58 -59t57 -60.5q17 -21 28 -47.5t11 -58.5q0 -27 -10 -46.5t-26.5 -31.5t-39 -18t-46.5 -6q-42 0 -76 10t-59 28.5t-38.5 44t-13.5 56.5q0 26 16 49t33 37q7 5 14 5t11 -5t4 -11t-6 -12
q-38 -38 -38 -66q0 -21 12 -40t33.5 -32.5t51.5 -21.5t66 -8q13 0 27 4.5t26 13.5t19.5 21.5t7.5 28.5q0 26 -6.5 43t-20.5 34zM231 748q5 9 14.5 22t20.5 25t21.5 20.5t18.5 8.5t12 -4.5t4 -9.5q-1 -8 -6 -13q-22 -17 -38 -37.5t-31 -43.5q-7 -10 -15 -10q-5 0 -14 9
t-20 21.5l-22 25t-18 20.5q-6 6 -6 12q1 8 5 11.5t9 3.5t13.5 -7t18.5 -16.5t19 -20t14 -17.5z" />
    <glyph glyph-name="Uacute" unicode="&#xda;" horiz-adv-x="442" 
d="M328 216q0 42 2 77.5t5.5 69.5t9 66.5t13.5 68.5q-3 -11 -14 -52.5t-28.5 -97.5t-40.5 -118.5t-50.5 -115t-58 -87t-62.5 -34.5q-29 0 -46 23.5t-26.5 56t-12.5 67t-3 55.5q0 117 34 236.5t101 222.5q6 8 15 8q6 0 11 -4t5 -12q0 -3 -2 -9q-67 -112 -99.5 -219.5
t-32.5 -218.5q0 -9 2 -37t8 -58.5t17 -54t29 -23.5q21 0 42.5 24.5t43 66t42.5 96t41.5 114.5t40 121.5t38.5 117.5q2 7 7 21t12.5 27.5t18 24t22.5 10.5q7 0 12 -4.5t5 -11.5l-1 -5q-3 -12 -7 -23.5t-7 -22.5q-23 -87 -38 -179.5t-15 -180.5q0 -32 1.5 -58.5t5.5 -51.5
t10 -50.5t14 -54.5q1 -2 1 -5q0 -8 -5 -12t-12 -4q-5 0 -9.5 3t-6.5 9q-17 51 -24.5 101.5t-7.5 116.5zM366 801q-1 -11 -13.5 -27t-29 -30.5t-32.5 -25t-25 -10.5q-12 0 -17 5.5t-5 9.5q0 6 4.5 12t17.5 11q20 8 38 26.5t29 34.5q5 7 9 9t8 2q16 0 16 -17z" />
    <glyph glyph-name="Ucircumflex" unicode="&#xdb;" horiz-adv-x="442" 
d="M328 216q0 42 2 77.5t5.5 69.5t9 66.5t13.5 68.5q-3 -11 -14 -52.5t-28.5 -97.5t-40.5 -118.5t-50.5 -115t-58 -87t-62.5 -34.5q-29 0 -46 23.5t-26.5 56t-12.5 67t-3 55.5q0 117 34 236.5t101 222.5q6 8 15 8q6 0 11 -4t5 -12q0 -3 -2 -9q-67 -112 -99.5 -219.5
t-32.5 -218.5q0 -9 2 -37t8 -58.5t17 -54t29 -23.5q21 0 42.5 24.5t43 66t42.5 96t41.5 114.5t40 121.5t38.5 117.5q2 7 7 21t12.5 27.5t18 24t22.5 10.5q7 0 12 -4.5t5 -11.5l-1 -5q-3 -12 -7 -23.5t-7 -22.5q-23 -87 -38 -179.5t-15 -180.5q0 -32 1.5 -58.5t5.5 -51.5
t10 -50.5t14 -54.5q1 -2 1 -5q0 -8 -5 -12t-12 -4q-5 0 -9.5 3t-6.5 9q-17 51 -24.5 101.5t-7.5 116.5zM290 774q-14 -14 -29 -28.5t-32 -23.5q-6 -2 -8 -2q-5 0 -10 3.5t-5 10.5q0 9 8 14q20 14 36.5 30t33.5 33q5 5 10 5q11 0 16 -12q20 -49 59 -88q5 -5 5 -11t-4.5 -10.5
t-10.5 -4.5t-11 4q-17 14 -32.5 37t-25.5 43z" />
    <glyph glyph-name="Udieresis" unicode="&#xdc;" horiz-adv-x="442" 
d="M328 216q0 42 2 77.5t5.5 69.5t9 66.5t13.5 68.5q-3 -11 -14 -52.5t-28.5 -97.5t-40.5 -118.5t-50.5 -115t-58 -87t-62.5 -34.5q-29 0 -46 23.5t-26.5 56t-12.5 67t-3 55.5q0 117 34 236.5t101 222.5q6 8 15 8q6 0 11 -4t5 -12q0 -3 -2 -9q-67 -112 -99.5 -219.5
t-32.5 -218.5q0 -9 2 -37t8 -58.5t17 -54t29 -23.5q21 0 42.5 24.5t43 66t42.5 96t41.5 114.5t40 121.5t38.5 117.5q2 7 7 21t12.5 27.5t18 24t22.5 10.5q7 0 12 -4.5t5 -11.5l-1 -5q-3 -12 -7 -23.5t-7 -22.5q-23 -87 -38 -179.5t-15 -180.5q0 -32 1.5 -58.5t5.5 -51.5
t10 -50.5t14 -54.5q1 -2 1 -5q0 -8 -5 -12t-12 -4q-5 0 -9.5 3t-6.5 9q-17 51 -24.5 101.5t-7.5 116.5zM365 742q0 -34 -23 -34q-37 0 -37 39q0 29 29 29q31 0 31 -34zM268 742q0 -34 -23 -34q-37 0 -37 39q0 29 29 29q31 0 31 -34z" />
    <glyph glyph-name="Ugrave" unicode="&#xd9;" horiz-adv-x="442" 
d="M328 216q0 42 2 77.5t5.5 69.5t9 66.5t13.5 68.5q-3 -11 -14 -52.5t-28.5 -97.5t-40.5 -118.5t-50.5 -115t-58 -87t-62.5 -34.5q-29 0 -46 23.5t-26.5 56t-12.5 67t-3 55.5q0 117 34 236.5t101 222.5q6 8 15 8q6 0 11 -4t5 -12q0 -3 -2 -9q-67 -112 -99.5 -219.5
t-32.5 -218.5q0 -9 2 -37t8 -58.5t17 -54t29 -23.5q21 0 42.5 24.5t43 66t42.5 96t41.5 114.5t40 121.5t38.5 117.5q2 7 7 21t12.5 27.5t18 24t22.5 10.5q7 0 12 -4.5t5 -11.5l-1 -5q-3 -12 -7 -23.5t-7 -22.5q-23 -87 -38 -179.5t-15 -180.5q0 -32 1.5 -58.5t5.5 -51.5
t10 -50.5t14 -54.5q1 -2 1 -5q0 -8 -5 -12t-12 -4q-5 0 -9.5 3t-6.5 9q-17 51 -24.5 101.5t-7.5 116.5zM202 801q0 17 16 17q4 0 8 -2t9 -9q11 -16 29 -34.5t38 -26.5q13 -5 17.5 -11t4.5 -12q0 -4 -5 -9.5t-17 -5.5q-9 0 -25 10.5t-32.5 25t-29 30.5t-13.5 27z" />
    <glyph glyph-name="Yacute" unicode="&#xdd;" horiz-adv-x="402" 
d="M181 598q-62 -60 -99 -136t-37 -158q0 -12 2 -25t7.5 -24t15.5 -19.5t26 -11.5q20 0 41.5 16t41.5 41.5t38.5 57t34 62t27.5 57t19 42.5q15 37 28.5 73.5t26.5 73.5q4 12 17 12q6 0 11 -4t5 -12q-16 -72 -40.5 -149t-48 -155t-40.5 -154.5t-17 -145.5q0 -26 4.5 -52
t15.5 -50q2 -6 2 -8q0 -6 -4.5 -11.5t-12.5 -5.5q-10 0 -17.5 16t-12 37t-6.5 42.5t-2 32.5q0 41 6 83.5t16 84.5t21.5 83t23.5 80q-12 -23 -30 -53.5t-41 -59t-50.5 -48t-57.5 -19.5q-23 0 -39 10.5t-25.5 27t-14 37t-4.5 40.5q0 38 11 84t31.5 91t48.5 83.5t61 61.5
q3 2 8 2q7 0 12 -4.5t5 -11.5t-8 -14zM363 801q-1 -11 -13.5 -27t-29 -30.5t-32.5 -25t-25 -10.5q-12 0 -17 5.5t-5 9.5q0 6 4.5 12t17.5 11q20 8 38 26.5t29 34.5q5 7 9 9t8 2q16 0 16 -17z" />
    <glyph glyph-name="Ydieresis" unicode="&#x178;" horiz-adv-x="402" 
d="M181 598q-62 -60 -99 -136t-37 -158q0 -12 2 -25t7.5 -24t15.5 -19.5t26 -11.5q20 0 41.5 16t41.5 41.5t38.5 57t34 62t27.5 57t19 42.5q15 37 28.5 73.5t26.5 73.5q4 12 17 12q6 0 11 -4t5 -12q-16 -72 -40.5 -149t-48 -155t-40.5 -154.5t-17 -145.5q0 -26 4.5 -52
t15.5 -50q2 -6 2 -8q0 -6 -4.5 -11.5t-12.5 -5.5q-10 0 -17.5 16t-12 37t-6.5 42.5t-2 32.5q0 41 6 83.5t16 84.5t21.5 83t23.5 80q-12 -23 -30 -53.5t-41 -59t-50.5 -48t-57.5 -19.5q-23 0 -39 10.5t-25.5 27t-14 37t-4.5 40.5q0 38 11 84t31.5 91t48.5 83.5t61 61.5
q3 2 8 2q7 0 12 -4.5t5 -11.5t-8 -14zM338 742q0 -34 -23 -34q-37 0 -37 39q0 29 29 29q31 0 31 -34zM241 742q0 -34 -23 -34q-37 0 -37 39q0 29 29 29q31 0 31 -34z" />
    <glyph glyph-name="Zcaron" unicode="&#x17d;" horiz-adv-x="413" 
d="M330 618q-37 -7 -91.5 -15.5t-106.5 -8.5q-29 0 -55 3.5t-46 12.5q-12 5 -12 15q0 15 17 17h4q15 -5 29.5 -9t30.5 -4q51 0 87.5 3.5t67 8.5t59.5 10.5t66 10.5q5 0 7 -1q8 -5 8 -14q0 -7 -5 -12q-55 -58 -110.5 -132.5t-103.5 -156t-84.5 -166t-54.5 -163.5
q44 3 79.5 11.5t68.5 22t66 30.5t72 36q6 2 8 2q9 0 14 -8q3 -5 3 -9q0 -9 -10 -14.5t-17 -9.5q-35 -18 -71 -35.5t-74.5 -30.5t-78 -21t-81.5 -8q-8 0 -12 5t-4 13q10 74 43.5 157.5t80.5 166t101 158.5t105 135zM200 748q5 9 14.5 22t20.5 25t21.5 20.5t18.5 8.5t12 -4.5
t4 -9.5q-1 -8 -6 -13q-22 -17 -38 -37.5t-31 -43.5q-7 -10 -15 -10q-5 0 -14 9t-20 21.5l-22 25t-18 20.5q-6 6 -6 12q1 8 5 11.5t9 3.5t13.5 -7t18.5 -16.5t19 -20t14 -17.5z" />
    <glyph glyph-name="aacute" unicode="&#xe1;" horiz-adv-x="265" 
d="M132 33q-9 -22 -24.5 -38t-42.5 -16q-23 0 -39.5 12t-27.5 32t-16.5 46.5t-5.5 56.5q0 40 8 83.5t21 78.5t30.5 58t37.5 23q21 0 35.5 -19.5t23 -47.5t12.5 -59.5t5 -55.5q0 -12 0.5 -41.5t4 -60t11 -54t21.5 -23.5t23.5 21t16 47.5t10 51l4.5 31.5q2 11 15 11
q14 0 14 -15v-4q-2 -24 -7 -53.5t-14.5 -56t-25 -44.5t-37.5 -18q-23 0 -35 17t-18 37zM61 9q20 1 31.5 16.5t17.5 36.5t8 44t2 38q0 21 -2.5 54.5t-8.5 64.5t-14.5 53.5t-20.5 22.5q-3 0 -6 -3t-6 -7q-4 -4 -7 -9q-26 -42 -37.5 -93.5t-11.5 -98.5q0 -19 2.5 -39.5t8.5 -38
t16.5 -29t27.5 -12.5zM174 505q-1 -11 -13.5 -27t-29 -30.5t-32.5 -25t-25 -10.5q-12 0 -17 5.5t-5 9.5q0 6 4.5 12t17.5 11q20 8 38 26.5t29 34.5q5 7 9 9t8 2q16 0 16 -17z" />
    <glyph glyph-name="acircumflex" unicode="&#xe2;" horiz-adv-x="265" 
d="M132 33q-9 -22 -24.5 -38t-42.5 -16q-23 0 -39.5 12t-27.5 32t-16.5 46.5t-5.5 56.5q0 40 8 83.5t21 78.5t30.5 58t37.5 23q21 0 35.5 -19.5t23 -47.5t12.5 -59.5t5 -55.5q0 -12 0.5 -41.5t4 -60t11 -54t21.5 -23.5t23.5 21t16 47.5t10 51l4.5 31.5q2 11 15 11
q14 0 14 -15v-4q-2 -24 -7 -53.5t-14.5 -56t-25 -44.5t-37.5 -18q-23 0 -35 17t-18 37zM61 9q20 1 31.5 16.5t17.5 36.5t8 44t2 38q0 21 -2.5 54.5t-8.5 64.5t-14.5 53.5t-20.5 22.5q-3 0 -6 -3t-6 -7q-4 -4 -7 -9q-26 -42 -37.5 -93.5t-11.5 -98.5q0 -19 2.5 -39.5t8.5 -38
t16.5 -29t27.5 -12.5zM76 478q-14 -14 -29 -28.5t-32 -23.5q-6 -2 -8 -2q-5 0 -10 3.5t-5 10.5q0 9 8 14q20 14 36.5 30t33.5 33q5 5 10 5q11 0 16 -12q20 -49 59 -88q5 -5 5 -11t-4.5 -10.5t-10.5 -4.5t-11 4q-17 14 -32.5 37t-25.5 43z" />
    <glyph glyph-name="adieresis" unicode="&#xe4;" horiz-adv-x="265" 
d="M132 33q-9 -22 -24.5 -38t-42.5 -16q-23 0 -39.5 12t-27.5 32t-16.5 46.5t-5.5 56.5q0 40 8 83.5t21 78.5t30.5 58t37.5 23q21 0 35.5 -19.5t23 -47.5t12.5 -59.5t5 -55.5q0 -12 0.5 -41.5t4 -60t11 -54t21.5 -23.5t23.5 21t16 47.5t10 51l4.5 31.5q2 11 15 11
q14 0 14 -15v-4q-2 -24 -7 -53.5t-14.5 -56t-25 -44.5t-37.5 -18q-23 0 -35 17t-18 37zM61 9q20 1 31.5 16.5t17.5 36.5t8 44t2 38q0 21 -2.5 54.5t-8.5 64.5t-14.5 53.5t-20.5 22.5q-3 0 -6 -3t-6 -7q-4 -4 -7 -9q-26 -42 -37.5 -93.5t-11.5 -98.5q0 -19 2.5 -39.5t8.5 -38
t16.5 -29t27.5 -12.5zM154 446q0 -34 -23 -34q-37 0 -37 39q0 29 29 29q31 0 31 -34zM57 446q0 -34 -23 -34q-37 0 -37 39q0 29 29 29q31 0 31 -34z" />
    <glyph glyph-name="agrave" unicode="&#xe0;" horiz-adv-x="265" 
d="M132 33q-9 -22 -24.5 -38t-42.5 -16q-23 0 -39.5 12t-27.5 32t-16.5 46.5t-5.5 56.5q0 40 8 83.5t21 78.5t30.5 58t37.5 23q21 0 35.5 -19.5t23 -47.5t12.5 -59.5t5 -55.5q0 -12 0.5 -41.5t4 -60t11 -54t21.5 -23.5t23.5 21t16 47.5t10 51l4.5 31.5q2 11 15 11
q14 0 14 -15v-4q-2 -24 -7 -53.5t-14.5 -56t-25 -44.5t-37.5 -18q-23 0 -35 17t-18 37zM61 9q20 1 31.5 16.5t17.5 36.5t8 44t2 38q0 21 -2.5 54.5t-8.5 64.5t-14.5 53.5t-20.5 22.5q-3 0 -6 -3t-6 -7q-4 -4 -7 -9q-26 -42 -37.5 -93.5t-11.5 -98.5q0 -19 2.5 -39.5t8.5 -38
t16.5 -29t27.5 -12.5zM-3 505q0 17 16 17q4 0 8 -2t9 -9q11 -16 29 -34.5t38 -26.5q13 -5 17.5 -11t4.5 -12q0 -4 -5 -9.5t-17 -5.5q-9 0 -25 10.5t-32.5 25t-29 30.5t-13.5 27z" />
    <glyph glyph-name="aring" unicode="&#xe5;" horiz-adv-x="265" 
d="M132 33q-9 -22 -24.5 -38t-42.5 -16q-23 0 -39.5 12t-27.5 32t-16.5 46.5t-5.5 56.5q0 40 8 83.5t21 78.5t30.5 58t37.5 23q21 0 35.5 -19.5t23 -47.5t12.5 -59.5t5 -55.5q0 -12 0.5 -41.5t4 -60t11 -54t21.5 -23.5t23.5 21t16 47.5t10 51l4.5 31.5q2 11 15 11
q14 0 14 -15v-4q-2 -24 -7 -53.5t-14.5 -56t-25 -44.5t-37.5 -18q-23 0 -35 17t-18 37zM61 9q20 1 31.5 16.5t17.5 36.5t8 44t2 38q0 21 -2.5 54.5t-8.5 64.5t-14.5 53.5t-20.5 22.5q-3 0 -6 -3t-6 -7q-4 -4 -7 -9q-26 -42 -37.5 -93.5t-11.5 -98.5q0 -19 2.5 -39.5t8.5 -38
t16.5 -29t27.5 -12.5zM14 467q0 26 18 44.5t44 18.5t44.5 -18.5t18.5 -44.5t-18.5 -44t-44.5 -18t-44 18t-18 44zM45 467q0 -14 8.5 -22.5t22.5 -8.5t23.5 8.5t9.5 22.5t-9.5 23.5t-23.5 9.5t-22.5 -9.5t-8.5 -23.5z" />
    <glyph glyph-name="atilde" unicode="&#xe3;" horiz-adv-x="265" 
d="M132 33q-9 -22 -24.5 -38t-42.5 -16q-23 0 -39.5 12t-27.5 32t-16.5 46.5t-5.5 56.5q0 40 8 83.5t21 78.5t30.5 58t37.5 23q21 0 35.5 -19.5t23 -47.5t12.5 -59.5t5 -55.5q0 -12 0.5 -41.5t4 -60t11 -54t21.5 -23.5t23.5 21t16 47.5t10 51l4.5 31.5q2 11 15 11
q14 0 14 -15v-4q-2 -24 -7 -53.5t-14.5 -56t-25 -44.5t-37.5 -18q-23 0 -35 17t-18 37zM61 9q20 1 31.5 16.5t17.5 36.5t8 44t2 38q0 21 -2.5 54.5t-8.5 64.5t-14.5 53.5t-20.5 22.5q-3 0 -6 -3t-6 -7q-4 -4 -7 -9q-26 -42 -37.5 -93.5t-11.5 -98.5q0 -19 2.5 -39.5t8.5 -38
t16.5 -29t27.5 -12.5zM2 420q-6 -8 -13 -8q-6 0 -10.5 4.5t-4.5 11.5q0 3 2 7q11 22 24.5 29t26.5 7q12 0 23 -4.5t22 -10.5t22.5 -10.5t24.5 -4.5q7 0 12 4.5t10 10t9.5 10t9.5 4.5q6 0 11 -4.5t5 -10.5q0 -4 -5 -11q-16 -19 -28 -26t-24 -7t-23.5 4.5t-23 10.5t-22.5 10.5
t-22 4.5q-9 0 -14.5 -6.5t-11.5 -14.5z" />
    <glyph glyph-name="eacute" unicode="&#xe9;" horiz-adv-x="179" 
d="M28 105q14 16 26.5 37t22.5 43.5t15.5 45.5t5.5 44q0 8 -1 19t-3.5 21.5t-6.5 18t-10 7.5q-10 0 -19.5 -20.5t-17 -49.5t-12 -62t-4.5 -58q0 -13 1 -24.5t3 -21.5zM194 150q-10 -31 -22.5 -60.5t-27.5 -52t-32 -36.5t-36 -14q-23 0 -38.5 18.5t-25.5 45t-14 54.5t-4 47
q0 32 5 70.5t15.5 71.5t26 55t36.5 22q16 0 26 -11.5t15.5 -27t7.5 -31t2 -23.5q0 -28 -8 -57t-20.5 -57t-29 -52t-33.5 -41q2 -7 5.5 -16t8 -17.5t11 -14t14.5 -5.5q12 0 24 11t23 29.5t20.5 42t18.5 48.5q3 13 7.5 17.5t9.5 4.5q6 0 10.5 -4.5t4.5 -16.5zM163 505
q-1 -11 -13.5 -27t-29 -30.5t-32.5 -25t-25 -10.5q-12 0 -17 5.5t-5 9.5q0 6 4.5 12t17.5 11q20 8 38 26.5t29 34.5q5 7 9 9t8 2q16 0 16 -17z" />
    <glyph glyph-name="ecircumflex" unicode="&#xea;" horiz-adv-x="179" 
d="M28 105q14 16 26.5 37t22.5 43.5t15.5 45.5t5.5 44q0 8 -1 19t-3.5 21.5t-6.5 18t-10 7.5q-10 0 -19.5 -20.5t-17 -49.5t-12 -62t-4.5 -58q0 -13 1 -24.5t3 -21.5zM194 150q-10 -31 -22.5 -60.5t-27.5 -52t-32 -36.5t-36 -14q-23 0 -38.5 18.5t-25.5 45t-14 54.5t-4 47
q0 32 5 70.5t15.5 71.5t26 55t36.5 22q16 0 26 -11.5t15.5 -27t7.5 -31t2 -23.5q0 -28 -8 -57t-20.5 -57t-29 -52t-33.5 -41q2 -7 5.5 -16t8 -17.5t11 -14t14.5 -5.5q12 0 24 11t23 29.5t20.5 42t18.5 48.5q3 13 7.5 17.5t9.5 4.5q6 0 10.5 -4.5t4.5 -16.5zM77 478
q-14 -14 -29 -28.5t-32 -23.5q-6 -2 -8 -2q-5 0 -10 3.5t-5 10.5q0 9 8 14q20 14 36.5 30t33.5 33q5 5 10 5q11 0 16 -12q20 -49 59 -88q5 -5 5 -11t-4.5 -10.5t-10.5 -4.5t-11 4q-17 14 -32.5 37t-25.5 43z" />
    <glyph glyph-name="edieresis" unicode="&#xeb;" horiz-adv-x="179" 
d="M28 105q14 16 26.5 37t22.5 43.5t15.5 45.5t5.5 44q0 8 -1 19t-3.5 21.5t-6.5 18t-10 7.5q-10 0 -19.5 -20.5t-17 -49.5t-12 -62t-4.5 -58q0 -13 1 -24.5t3 -21.5zM194 150q-10 -31 -22.5 -60.5t-27.5 -52t-32 -36.5t-36 -14q-23 0 -38.5 18.5t-25.5 45t-14 54.5t-4 47
q0 32 5 70.5t15.5 71.5t26 55t36.5 22q16 0 26 -11.5t15.5 -27t7.5 -31t2 -23.5q0 -28 -8 -57t-20.5 -57t-29 -52t-33.5 -41q2 -7 5.5 -16t8 -17.5t11 -14t14.5 -5.5q12 0 24 11t23 29.5t20.5 42t18.5 48.5q3 13 7.5 17.5t9.5 4.5q6 0 10.5 -4.5t4.5 -16.5zM156 446
q0 -34 -23 -34q-37 0 -37 39q0 29 29 29q31 0 31 -34zM59 446q0 -34 -23 -34q-37 0 -37 39q0 29 29 29q31 0 31 -34z" />
    <glyph glyph-name="egrave" unicode="&#xe8;" horiz-adv-x="179" 
d="M28 105q14 16 26.5 37t22.5 43.5t15.5 45.5t5.5 44q0 8 -1 19t-3.5 21.5t-6.5 18t-10 7.5q-10 0 -19.5 -20.5t-17 -49.5t-12 -62t-4.5 -58q0 -13 1 -24.5t3 -21.5zM194 150q-10 -31 -22.5 -60.5t-27.5 -52t-32 -36.5t-36 -14q-23 0 -38.5 18.5t-25.5 45t-14 54.5t-4 47
q0 32 5 70.5t15.5 71.5t26 55t36.5 22q16 0 26 -11.5t15.5 -27t7.5 -31t2 -23.5q0 -28 -8 -57t-20.5 -57t-29 -52t-33.5 -41q2 -7 5.5 -16t8 -17.5t11 -14t14.5 -5.5q12 0 24 11t23 29.5t20.5 42t18.5 48.5q3 13 7.5 17.5t9.5 4.5q6 0 10.5 -4.5t4.5 -16.5zM-3 505
q0 17 16 17q4 0 8 -2t9 -9q11 -16 29 -34.5t38 -26.5q13 -5 17.5 -11t4.5 -12q0 -4 -5 -9.5t-17 -5.5q-9 0 -25 10.5t-32.5 25t-29 30.5t-13.5 27z" />
    <glyph glyph-name="iacute" unicode="&#xed;" horiz-adv-x="132" 
d="M44 30q9 0 18.5 10.5t17 24.5t13 29t7.5 23q2 6 6 8.5t8 2.5q5 0 10.5 -4t5.5 -11q0 -9 -7 -27.5t-18.5 -37.5t-27 -33.5t-32.5 -14.5q-18 0 -28.5 14.5t-15 34.5t-5.5 41.5t-1 35.5q0 27 2 55.5t5 54.5t7 47.5t8 35.5q3 11 15 11q8 0 11.5 -5t3.5 -10q-12 -48 -17 -93
t-5 -92q0 -11 0.5 -28t2 -33t5.5 -27.5t11 -11.5zM134 505q-1 -11 -13.5 -27t-29 -30.5t-32.5 -25t-25 -10.5q-12 0 -17 5.5t-5 9.5q0 6 4.5 12t17.5 11q20 8 38 26.5t29 34.5q5 7 9 9t8 2q16 0 16 -17z" />
    <glyph glyph-name="icircumflex" unicode="&#xee;" horiz-adv-x="132" 
d="M44 30q9 0 18.5 10.5t17 24.5t13 29t7.5 23q2 6 6 8.5t8 2.5q5 0 10.5 -4t5.5 -11q0 -9 -7 -27.5t-18.5 -37.5t-27 -33.5t-32.5 -14.5q-18 0 -28.5 14.5t-15 34.5t-5.5 41.5t-1 35.5q0 27 2 55.5t5 54.5t7 47.5t8 35.5q3 11 15 11q8 0 11.5 -5t3.5 -10q-12 -48 -17 -93
t-5 -92q0 -11 0.5 -28t2 -33t5.5 -27.5t11 -11.5zM48 478q-14 -14 -29 -28.5t-32 -23.5q-6 -2 -8 -2q-5 0 -10 3.5t-5 10.5q0 9 8 14q20 14 36.5 30t33.5 33q5 5 10 5q11 0 16 -12q20 -49 59 -88q5 -5 5 -11t-4.5 -10.5t-10.5 -4.5t-11 4q-17 14 -32.5 37t-25.5 43z" />
    <glyph glyph-name="idieresis" unicode="&#xef;" horiz-adv-x="132" 
d="M44 30q9 0 18.5 10.5t17 24.5t13 29t7.5 23q2 6 6 8.5t8 2.5q5 0 10.5 -4t5.5 -11q0 -9 -7 -27.5t-18.5 -37.5t-27 -33.5t-32.5 -14.5q-18 0 -28.5 14.5t-15 34.5t-5.5 41.5t-1 35.5q0 27 2 55.5t5 54.5t7 47.5t8 35.5q3 11 15 11q8 0 11.5 -5t3.5 -10q-12 -48 -17 -93
t-5 -92q0 -11 0.5 -28t2 -33t5.5 -27.5t11 -11.5zM114 446q0 -34 -23 -34q-37 0 -37 39q0 29 29 29q31 0 31 -34zM17 446q0 -34 -23 -34q-37 0 -37 39q0 29 29 29q31 0 31 -34z" />
    <glyph glyph-name="igrave" unicode="&#xec;" horiz-adv-x="132" 
d="M44 30q9 0 18.5 10.5t17 24.5t13 29t7.5 23q2 6 6 8.5t8 2.5q5 0 10.5 -4t5.5 -11q0 -9 -7 -27.5t-18.5 -37.5t-27 -33.5t-32.5 -14.5q-18 0 -28.5 14.5t-15 34.5t-5.5 41.5t-1 35.5q0 27 2 55.5t5 54.5t7 47.5t8 35.5q3 11 15 11q8 0 11.5 -5t3.5 -10q-12 -48 -17 -93
t-5 -92q0 -11 0.5 -28t2 -33t5.5 -27.5t11 -11.5zM-53 505q0 17 16 17q4 0 8 -2t9 -9q11 -16 29 -34.5t38 -26.5q13 -5 17.5 -11t4.5 -12q0 -4 -5 -9.5t-17 -5.5q-9 0 -25 10.5t-32.5 25t-29 30.5t-13.5 27z" />
    <glyph glyph-name="ntilde" unicode="&#xf1;" horiz-adv-x="300" 
d="M162 206q4 16 11.5 37.5t18.5 40.5t27 32t38 13q21 0 33 -21t17.5 -48.5t6.5 -55.5t1 -43q0 -6 -4 -10.5t-11 -4.5q-6 0 -10.5 4t-4.5 11q0 8 -1 30.5t-4 46.5t-9.5 42.5t-17.5 18.5q-16 0 -27.5 -15t-20.5 -39t-15 -53t-10 -56.5t-5.5 -50t-1.5 -33.5q0 -8 -5 -11.5
t-10 -3.5q-6 0 -10.5 3.5t-4.5 11.5v24.5t-1.5 42t-4 49.5t-7 47.5t-11.5 35.5t-17 14q-18 0 -31.5 -26.5t-21.5 -65t-12 -81.5t-4 -77q0 -6 -4 -10.5t-11 -4.5q-6 0 -10 4.5t-5 10.5q-1 8 -1 16v16q0 13 1.5 36.5t5 51t10.5 56t18.5 51.5t27 38t37.5 15q15 0 25 -9
t17 -22.5t11 -29t7 -28.5zM81 396q-6 -8 -13 -8q-6 0 -10.5 4.5t-4.5 11.5q0 3 2 7q11 22 24.5 29t26.5 7q12 0 23 -4.5t22 -10.5t22.5 -10.5t24.5 -4.5q7 0 12 4.5t10 10t9.5 10t9.5 4.5q6 0 11 -4.5t5 -10.5q0 -4 -5 -11q-16 -19 -28 -26t-24 -7t-23.5 4.5t-23 10.5
t-22.5 10.5t-22 4.5q-9 0 -14.5 -6.5t-11.5 -14.5z" />
    <glyph glyph-name="oacute" unicode="&#xf3;" horiz-adv-x="213" 
d="M101 360q22 0 36 -16t21.5 -39.5t10 -50.5t2.5 -49q0 -21 -3.5 -57.5t-14 -71t-30 -60t-52.5 -25.5q-17 0 -29 10.5t-20.5 25.5t-13 32.5t-6.5 32.5q-1 9 -1.5 18.5t-0.5 20.5q0 13 2 35t6.5 47.5t12 51.5t19 47t26.5 34.5t35 13.5zM75 22q20 0 33 22t20.5 52t10.5 61.5
t3 49.5q0 11 -1.5 31.5t-5.5 40.5t-12.5 35t-21.5 15q-19 0 -32.5 -24.5t-22 -57.5t-12.5 -65.5t-4 -48.5q0 -56 13.5 -83.5t31.5 -27.5zM200 505q-1 -11 -13.5 -27t-29 -30.5t-32.5 -25t-25 -10.5q-12 0 -17 5.5t-5 9.5q0 6 4.5 12t17.5 11q20 8 38 26.5t29 34.5q5 7 9 9
t8 2q16 0 16 -17z" />
    <glyph glyph-name="ocircumflex" unicode="&#xf4;" horiz-adv-x="213" 
d="M101 360q22 0 36 -16t21.5 -39.5t10 -50.5t2.5 -49q0 -21 -3.5 -57.5t-14 -71t-30 -60t-52.5 -25.5q-17 0 -29 10.5t-20.5 25.5t-13 32.5t-6.5 32.5q-1 9 -1.5 18.5t-0.5 20.5q0 13 2 35t6.5 47.5t12 51.5t19 47t26.5 34.5t35 13.5zM75 22q20 0 33 22t20.5 52t10.5 61.5
t3 49.5q0 11 -1.5 31.5t-5.5 40.5t-12.5 35t-21.5 15q-19 0 -32.5 -24.5t-22 -57.5t-12.5 -65.5t-4 -48.5q0 -56 13.5 -83.5t31.5 -27.5zM115 478q-14 -14 -29 -28.5t-32 -23.5q-6 -2 -8 -2q-5 0 -10 3.5t-5 10.5q0 9 8 14q20 14 36.5 30t33.5 33q5 5 10 5q11 0 16 -12
q20 -49 59 -88q5 -5 5 -11t-4.5 -10.5t-10.5 -4.5t-11 4q-17 14 -32.5 37t-25.5 43z" />
    <glyph glyph-name="odieresis" unicode="&#xf6;" horiz-adv-x="213" 
d="M101 360q22 0 36 -16t21.5 -39.5t10 -50.5t2.5 -49q0 -21 -3.5 -57.5t-14 -71t-30 -60t-52.5 -25.5q-17 0 -29 10.5t-20.5 25.5t-13 32.5t-6.5 32.5q-1 9 -1.5 18.5t-0.5 20.5q0 13 2 35t6.5 47.5t12 51.5t19 47t26.5 34.5t35 13.5zM75 22q20 0 33 22t20.5 52t10.5 61.5
t3 49.5q0 11 -1.5 31.5t-5.5 40.5t-12.5 35t-21.5 15q-19 0 -32.5 -24.5t-22 -57.5t-12.5 -65.5t-4 -48.5q0 -56 13.5 -83.5t31.5 -27.5zM185 446q0 -34 -23 -34q-37 0 -37 39q0 29 29 29q31 0 31 -34zM88 446q0 -34 -23 -34q-37 0 -37 39q0 29 29 29q31 0 31 -34z" />
    <glyph glyph-name="ograve" unicode="&#xf2;" horiz-adv-x="213" 
d="M101 360q22 0 36 -16t21.5 -39.5t10 -50.5t2.5 -49q0 -21 -3.5 -57.5t-14 -71t-30 -60t-52.5 -25.5q-17 0 -29 10.5t-20.5 25.5t-13 32.5t-6.5 32.5q-1 9 -1.5 18.5t-0.5 20.5q0 13 2 35t6.5 47.5t12 51.5t19 47t26.5 34.5t35 13.5zM75 22q20 0 33 22t20.5 52t10.5 61.5
t3 49.5q0 11 -1.5 31.5t-5.5 40.5t-12.5 35t-21.5 15q-19 0 -32.5 -24.5t-22 -57.5t-12.5 -65.5t-4 -48.5q0 -56 13.5 -83.5t31.5 -27.5zM9 505q0 17 16 17q4 0 8 -2t9 -9q11 -16 29 -34.5t38 -26.5q13 -5 17.5 -11t4.5 -12q0 -4 -5 -9.5t-17 -5.5q-9 0 -25 10.5t-32.5 25
t-29 30.5t-13.5 27z" />
    <glyph glyph-name="otilde" unicode="&#xf5;" horiz-adv-x="213" 
d="M101 360q22 0 36 -16t21.5 -39.5t10 -50.5t2.5 -49q0 -21 -3.5 -57.5t-14 -71t-30 -60t-52.5 -25.5q-17 0 -29 10.5t-20.5 25.5t-13 32.5t-6.5 32.5q-1 9 -1.5 18.5t-0.5 20.5q0 13 2 35t6.5 47.5t12 51.5t19 47t26.5 34.5t35 13.5zM75 22q20 0 33 22t20.5 52t10.5 61.5
t3 49.5q0 11 -1.5 31.5t-5.5 40.5t-12.5 35t-21.5 15q-19 0 -32.5 -24.5t-22 -57.5t-12.5 -65.5t-4 -48.5q0 -56 13.5 -83.5t31.5 -27.5zM38 420q-6 -8 -13 -8q-6 0 -10.5 4.5t-4.5 11.5q0 3 2 7q11 22 24.5 29t26.5 7q12 0 23 -4.5t22 -10.5t22.5 -10.5t24.5 -4.5
q7 0 12 4.5t10 10t9.5 10t9.5 4.5q6 0 11 -4.5t5 -10.5q0 -4 -5 -11q-16 -19 -28 -26t-24 -7t-23.5 4.5t-23 10.5t-22.5 10.5t-22 4.5q-9 0 -14.5 -6.5t-11.5 -14.5z" />
    <glyph glyph-name="ydieresis" unicode="&#xff;" horiz-adv-x="240" 
d="M42 -313q21 0 38.5 24t30 57.5t20.5 71t11 64.5q-27 -17 -51.5 -37t-43 -41t-29.5 -42t-11 -39q0 -26 8 -42t27 -16zM177 -44q10 5 25.5 12t20.5 7t9 -5t4 -10q0 -4 -2.5 -8.5t-8.5 -6.5q-13 -5 -26 -11t-26 -13q-1 -17 -4.5 -43t-10 -55.5t-17 -59t-25 -53t-34 -38.5
t-44.5 -15q-26 0 -44 21.5t-18 56.5q0 22 8.5 47t28.5 51.5t52.5 53.5t79.5 53q5 53 6.5 105t1.5 105q-3 -13 -9.5 -38t-18 -50t-27 -43.5t-36.5 -18.5t-32.5 14.5t-17.5 34.5t-7.5 41.5t-1.5 36.5q0 33 3 69t8 66q4 35 11 68q2 11 15 11q14 0 14 -15q-7 -54 -14 -100.5
t-7 -94.5q0 -6 0.5 -22.5t3.5 -34t9 -31t16 -13.5q16 0 29.5 23t24.5 58t19 77t14 79.5t9 65.5t5 35q2 11 14 11q8 0 11.5 -4.5t3.5 -10.5q-10 -70 -9 -139.5t-1 -143.5q-1 -32 -2 -62.5t-3 -62.5zM181 446q0 -34 -23 -34q-37 0 -37 39q0 29 29 29q31 0 31 -34zM84 446
q0 -34 -23 -34q-37 0 -37 39q0 29 29 29q31 0 31 -34z" />
    <glyph glyph-name="zcaron" unicode="&#x17e;" horiz-adv-x="274" 
d="M24 302q5 13 5 32q0 11 -3.5 19t-18.5 8q-8 0 -11.5 -3.5t-3.5 -8.5q0 -11 11 -26t21 -21zM101 52q-5 -28 -5 -53q0 -35 8 -67.5t26 -59t46.5 -47t68.5 -31.5q11 -4 11 -14q0 -8 -5 -11.5t-11 -3.5q-4 0 -9 1t-10 3q-6 2 -12 5q-39 15 -66 39t-44.5 54t-25 64t-7.5 69
q0 9 0.5 18.5t1.5 18.5q-6 -4 -15 -12t-17.5 -15.5t-15.5 -13.5t-9 -6q-6 0 -10.5 4t-4.5 10q0 9 8.5 19t21 20t26 18t22.5 13q9 48 28 97t47 89q-12 -4 -27.5 -5.5t-28.5 -1.5q-12 0 -25 1.5t-25 5.5l-10 -37.5t-13 -44.5t-13.5 -39.5t-10.5 -23.5q-5 -6 -9 -6
q-8 0 -11 4.5t-3 10.5q0 5 2 11q4 11 10.5 29t12.5 38t10.5 39t6.5 31q-18 11 -35 31.5t-17 43.5q0 22 13 33t32 11q30 0 40 -17.5t10 -38.5q0 -12 -2 -23.5t-5 -22.5q19 -6 41 -6q23 0 49 7t48 18q4 2 7 2q6 0 11 -4t5 -11q0 -6 -11 -17.5t-19 -22.5q-55 -76 -75 -170
q16 4 36 4q8 0 20 -1t22.5 -4t18 -7.5t7.5 -11.5q0 -6 -4 -11t-11 -5l-4 1q-27 9 -51 9q-19 0 -40 -7zM131 452q5 9 14.5 22t20.5 25t21.5 20.5t18.5 8.5t12 -4.5t4 -9.5q-1 -8 -6 -13q-22 -17 -38 -37.5t-31 -43.5q-7 -10 -15 -10q-5 0 -14 9t-20 21.5l-22 25t-18 20.5
q-6 6 -6 12q1 8 5 11.5t9 3.5t13.5 -7t18.5 -16.5t19 -20t14 -17.5z" />
    <glyph glyph-name="uacute" unicode="&#xfa;" horiz-adv-x="266" 
d="M149 146q-5 -20 -11.5 -46.5t-16.5 -50.5t-23 -41t-29 -17q-19 0 -31 14t-19 37.5t-9.5 55t-2.5 66.5q0 25 1.5 53t4.5 52t8.5 39.5t14.5 15.5q8 0 11.5 -4.5t3.5 -10.5v-4q-8 -35 -11.5 -71.5t-3.5 -73.5q0 -9 0.5 -32t4 -46.5t10 -42t18.5 -18.5q8 0 17 19.5t18.5 50
t18.5 68.5t16.5 74t12.5 67t7 48q1 6 4.5 10.5t10.5 4.5q8 0 11 -5t3 -12q-1 -12 -2.5 -32.5t-3 -44.5t-2.5 -50.5t-1 -51.5q0 -23 1 -44t4 -36.5t7.5 -25t11.5 -9.5q18 0 29 17.5t19 38t13.5 38t12.5 17.5t10.5 -4.5t3.5 -10.5v-4q-4 -21 -11.5 -43t-18 -39.5t-25.5 -28.5
t-34 -11q-18 0 -28.5 14t-15.5 33.5t-7 41t-2 35.5zM186 505q-1 -11 -13.5 -27t-29 -30.5t-32.5 -25t-25 -10.5q-12 0 -17 5.5t-5 9.5q0 6 4.5 12t17.5 11q20 8 38 26.5t29 34.5q5 7 9 9t8 2q16 0 16 -17z" />
    <glyph glyph-name="ucircumflex" unicode="&#xfb;" horiz-adv-x="266" 
d="M149 146q-5 -20 -11.5 -46.5t-16.5 -50.5t-23 -41t-29 -17q-19 0 -31 14t-19 37.5t-9.5 55t-2.5 66.5q0 25 1.5 53t4.5 52t8.5 39.5t14.5 15.5q8 0 11.5 -4.5t3.5 -10.5v-4q-8 -35 -11.5 -71.5t-3.5 -73.5q0 -9 0.5 -32t4 -46.5t10 -42t18.5 -18.5q8 0 17 19.5t18.5 50
t18.5 68.5t16.5 74t12.5 67t7 48q1 6 4.5 10.5t10.5 4.5q8 0 11 -5t3 -12q-1 -12 -2.5 -32.5t-3 -44.5t-2.5 -50.5t-1 -51.5q0 -23 1 -44t4 -36.5t7.5 -25t11.5 -9.5q18 0 29 17.5t19 38t13.5 38t12.5 17.5t10.5 -4.5t3.5 -10.5v-4q-4 -21 -11.5 -43t-18 -39.5t-25.5 -28.5
t-34 -11q-18 0 -28.5 14t-15.5 33.5t-7 41t-2 35.5zM100 478q-14 -14 -29 -28.5t-32 -23.5q-6 -2 -8 -2q-5 0 -10 3.5t-5 10.5q0 9 8 14q20 14 36.5 30t33.5 33q5 5 10 5q11 0 16 -12q20 -49 59 -88q5 -5 5 -11t-4.5 -10.5t-10.5 -4.5t-11 4q-17 14 -32.5 37t-25.5 43z" />
    <glyph glyph-name="udieresis" unicode="&#xfc;" horiz-adv-x="266" 
d="M149 146q-5 -20 -11.5 -46.5t-16.5 -50.5t-23 -41t-29 -17q-19 0 -31 14t-19 37.5t-9.5 55t-2.5 66.5q0 25 1.5 53t4.5 52t8.5 39.5t14.5 15.5q8 0 11.5 -4.5t3.5 -10.5v-4q-8 -35 -11.5 -71.5t-3.5 -73.5q0 -9 0.5 -32t4 -46.5t10 -42t18.5 -18.5q8 0 17 19.5t18.5 50
t18.5 68.5t16.5 74t12.5 67t7 48q1 6 4.5 10.5t10.5 4.5q8 0 11 -5t3 -12q-1 -12 -2.5 -32.5t-3 -44.5t-2.5 -50.5t-1 -51.5q0 -23 1 -44t4 -36.5t7.5 -25t11.5 -9.5q18 0 29 17.5t19 38t13.5 38t12.5 17.5t10.5 -4.5t3.5 -10.5v-4q-4 -21 -11.5 -43t-18 -39.5t-25.5 -28.5
t-34 -11q-18 0 -28.5 14t-15.5 33.5t-7 41t-2 35.5zM180 446q0 -34 -23 -34q-37 0 -37 39q0 29 29 29q31 0 31 -34zM83 446q0 -34 -23 -34q-37 0 -37 39q0 29 29 29q31 0 31 -34z" />
    <glyph glyph-name="ugrave" unicode="&#xf9;" horiz-adv-x="266" 
d="M149 146q-5 -20 -11.5 -46.5t-16.5 -50.5t-23 -41t-29 -17q-19 0 -31 14t-19 37.5t-9.5 55t-2.5 66.5q0 25 1.5 53t4.5 52t8.5 39.5t14.5 15.5q8 0 11.5 -4.5t3.5 -10.5v-4q-8 -35 -11.5 -71.5t-3.5 -73.5q0 -9 0.5 -32t4 -46.5t10 -42t18.5 -18.5q8 0 17 19.5t18.5 50
t18.5 68.5t16.5 74t12.5 67t7 48q1 6 4.5 10.5t10.5 4.5q8 0 11 -5t3 -12q-1 -12 -2.5 -32.5t-3 -44.5t-2.5 -50.5t-1 -51.5q0 -23 1 -44t4 -36.5t7.5 -25t11.5 -9.5q18 0 29 17.5t19 38t13.5 38t12.5 17.5t10.5 -4.5t3.5 -10.5v-4q-4 -21 -11.5 -43t-18 -39.5t-25.5 -28.5
t-34 -11q-18 0 -28.5 14t-15.5 33.5t-7 41t-2 35.5zM0 505q0 17 16 17q4 0 8 -2t9 -9q11 -16 29 -34.5t38 -26.5q13 -5 17.5 -11t4.5 -12q0 -4 -5 -9.5t-17 -5.5q-9 0 -25 10.5t-32.5 25t-29 30.5t-13.5 27z" />
    <glyph glyph-name="scaron" unicode="&#x161;" horiz-adv-x="165" 
d="M57 399q7 -38 18 -76t22 -76.5t19 -78t8 -79.5q0 -27 -6 -51.5t-21 -43t-40.5 -29.5t-63.5 -11q-8 0 -11 4.5t-3 10.5q0 5 3 10t11 5q49 0 75.5 24.5t26.5 81.5q0 26 -5 55t-11.5 57t-14.5 54t-14 47q-11 -76 -32 -149q-5 -11 -15 -11q-6 0 -10.5 4t-4.5 11
q16 63 27.5 121t11.5 120q0 7 5 11t10 4q12 0 15 -15zM85 452q5 9 14.5 22t20.5 25t21.5 20.5t18.5 8.5t12 -4.5t4 -9.5q-1 -8 -6 -13q-22 -17 -38 -37.5t-31 -43.5q-7 -10 -15 -10q-5 0 -14 9t-20 21.5l-22 25t-18 20.5q-6 6 -6 12q1 8 5 11.5t9 3.5t13.5 -7t18.5 -16.5
t19 -20t14 -17.5z" />
    <glyph glyph-name="exclamdbl" unicode="&#x203c;" horiz-adv-x="309" 
d="M108 645q0 7 5 12t11 5q8 0 12 -5t5 -12q1 -21 2.5 -43.5t3 -48t2 -55t0.5 -66.5q0 -83 -5.5 -165t-17.5 -164q-1 -6 -6 -9t-10 -3h-4q-12 4 -12 21q11 78 16.5 158t5.5 171q0 51 -1.5 102t-6.5 102zM133 23q0 -34 -23 -34q-37 0 -37 39q0 29 29 29q31 0 31 -34zM215 645
q0 7 5 12t11 5q8 0 12 -5t5 -12q1 -21 2.5 -43.5t3 -48t2 -55t0.5 -66.5q0 -83 -5.5 -165t-17.5 -164q-1 -6 -6 -9t-10 -3h-4q-12 4 -12 21q11 78 16.5 158t5.5 171q0 51 -1.5 102t-6.5 102zM240 23q0 -34 -23 -34q-37 0 -37 39q0 29 29 29q31 0 31 -34z" />
    <glyph glyph-name="brokenbar" unicode="&#xa6;" horiz-adv-x="270" 
d="M168 454q4 -36 5.5 -47t1.5 -16t-3 -11t-12 -6q-8 0 -13 18t-7.5 42.5t-3.5 50t-1 41.5q0 27 -1 52.5t-1 46.5q0 29 3 46.5t14 17.5q6 0 10.5 -3.5t4.5 -10.5v-90t0.5 -63t1 -42t1.5 -26zM168 8q4 -36 5.5 -47t1.5 -16t-3 -11t-12 -6q-8 0 -13 18t-7.5 42.5t-3.5 50
t-1 41.5q0 27 -1 52.5t-1 46.5q0 29 3 46.5t14 17.5q6 0 10.5 -3.5t4.5 -10.5v-90t0.5 -63t1 -42t1.5 -26z" />
    <glyph glyph-name="logicalnot" unicode="&#xac;" horiz-adv-x="352" 
d="M332 126q0 -6 -4 -10.5t-11 -4.5q-6 0 -10.5 5t-4.5 10q3 28 3 57t-3 58t-8 59h-84.5t-60.5 -0.5t-40.5 -1t-24.5 -1.5q-36 -4 -47 -5.5t-16 -1.5t-11 3t-6 12q0 8 18 13t42.5 7.5t50 3.5t41.5 1q27 0 52.5 1t46.5 1h18q13 0 27 -2.5t18 -11.5q4 -10 7 -27.5t5.5 -36
t3.5 -36.5t1 -30q0 -31 -3 -62z" />
    <glyph glyph-name="paragraph" unicode="&#xb6;" horiz-adv-x="427" 
d="M196 688q6 0 11.5 -16t10 -42t7.5 -57.5t5.5 -63t3.5 -58.5t1 -43q0 -60 2 -114t2 -87q0 -51 -0.5 -103t-3 -94t-8.5 -68.5t-17 -26.5q-9 0 -13 5.5t-4 12.5q10 51 11.5 110.5t1.5 125.5v71t-1 73q-34 12 -62 33t-48 49t-31 61t-11 68q0 30 9.5 59.5t27.5 52.5t43 37
t56 14q2 1 7 1zM265 647q-2 11 -2.5 16t-0.5 8q0 6 4 11.5t13 5.5q10 0 17 -27.5t11.5 -71t7.5 -97.5t4.5 -107.5t2 -100.5t0.5 -77q0 -51 -0.5 -103t-3 -94t-8.5 -68.5t-17 -26.5q-9 0 -13 5.5t-4 12.5q10 51 11.5 110.5t1.5 125.5q0 118 -3.5 238.5t-20.5 239.5z" />
    <glyph glyph-name="currency" unicode="&#xa4;" horiz-adv-x="396" 
d="M42 411q0 50 29 84l-10 12q-9 11 -19.5 24t-12.5 20q0 14 13 18q9 0 24 -14.5t30 -33.5q35 26 81 26q26 0 49 -9t41 -24q17 17 30.5 33t24.5 16q5 -2 9 -6.5t4 -12.5q-2 -6 -13 -20.5t-21 -25.5l-11 -12q11 -16 17.5 -35t6.5 -40q0 -32 -12.5 -58.5t-34.5 -44.5l30 -40
t15 -26q0 -14 -6 -18q-3 -3 -5 -2q-5 0 -12 6t-15.5 16t-17.5 22t-17 23q-30 -14 -62 -14q-36 0 -61 13q-8 -9 -17.5 -19.5t-18.5 -19.5t-18 -15.5t-15 -6.5q-3 0 -5 2q-4 4 -4 14q2 8 10 19l16 22q10 11 21 24q-20 19 -31.5 45.5t-11.5 57.5zM78 411q0 -44 27.5 -71
t71.5 -27q43 0 73 27t30 71q0 21 -8 39.5t-22 32.5t-33 22.5t-40 8.5q-22 0 -40 -8.5t-31 -22.5t-20.5 -32.5t-7.5 -39.5z" />
    <glyph glyph-name="apple" unicode="&#xf8ff;" 
d="M638 55q4 0 6 -0.5t8 -0.5q23 0 32 10.5t9 25.5q0 17 -7.5 40.5t-9.5 41.5q-12 -11 -25 -15t-29 -5q13 -13 21.5 -28t8.5 -32q0 -20 -14 -37zM343 197q9 -18 14 -28.5t9.5 -17.5t10 -13t13.5 -15q12 -13 30.5 -29t40 -30.5t44 -24t43.5 -9.5q15 0 31 5.5t29 14t21.5 20
t8.5 23.5q0 14 -11.5 29.5t-26.5 28.5h-27q-9 0 -18.5 1t-16.5 3q-31 -14 -58 -14q-28 0 -53 13.5t-44 39.5q-12 5 -23.5 10t-23.5 11v-4zM282 52q8 -8 18 -18.5t21.5 -20t23.5 -16t24 -6.5t23 6.5t21 16t17.5 21.5t13.5 23q-23 17 -45 35.5t-38 41.5q-10 -18 -26 -29.5
t-34 -19.5q-2 -8 -8 -17.5t-11 -16.5zM117 136q0 -19 9.5 -36t24.5 -30.5t34 -21.5t37 -8q21 0 35.5 11t24.5 28q-15 -4 -32 -4q-39 0 -72 19.5t-61 45.5v-4zM50 350q-5 -14 -8.5 -31.5t-3.5 -34.5q0 -24 8.5 -52t29.5 -44q5 -4 9 -5.5t7 -2.5t6 -2.5t8 -5.5
q32 -32 65.5 -57t74.5 -25q13 0 28.5 3t30 10t26.5 18.5t20 27.5q-6 10 -11.5 20t-10.5 21l-5 -9q0 -4 0.5 -6t0.5 -8q0 -35 -20 -50.5t-48 -15.5t-57 13t-53 32.5t-39.5 42.5t-15.5 43q0 14 7 27.5t20 24.5q-23 8 -40.5 26.5t-28.5 39.5zM239 501q-8 4 -19.5 10t-24.5 11.5
t-27 9.5t-26 4h-4q-50 0 -72.5 -30t-22.5 -69q0 -23 6.5 -45.5t18.5 -42t29 -34t38 -20.5q9 5 18 7t19 4l-7 3q-8 5 -14 17t-9.5 26t-5.5 27.5t-2 22.5q0 39 26 64t81 30zM317 638q-7 9 -27 17t-34 8h-4q-11 0 -39 -13t-57.5 -32.5t-53 -41.5t-24.5 -40q27 15 57 15
q24 0 49 -8.5t47 -19.5l-4 16t-2 16q0 18 12.5 29.5t38.5 11.5q10 0 18 -2q5 12 10 23t13 21zM464 606q0 1 -0.5 1.5t-0.5 1.5l-2 4q-4 8 -10 17.5t-14 18t-18.5 14t-24.5 5.5q-21 0 -38 -12.5t-29.5 -31t-19 -40t-6.5 -40.5q9 25 28 41.5t44 16.5q18 0 36 -9l17 -9
q3 5 17.5 12.5t20.5 9.5zM513 617q-6 25 -17 43t-33 18q-14 0 -29 -7q18 -11 26.5 -27t18.5 -33q17 5 34 6zM573 552q1 4 1 11q0 22 -14.5 30.5t-34.5 8.5q-23 0 -47 -8t-38 -17q2 0 5 -1.5t5 -1.5q6 0 9.5 1.5t11.5 1.5q18 0 34.5 -10t30.5 -21l16 4t16 2h5zM393 317
q5 -17 5 -29q0 -14 -5.5 -26t-16.5 -26l15 -3q7 16 22.5 25.5t34.5 16t39 12.5t37 15t27.5 23.5t10.5 38.5q0 11 -4 28q-9 0 -16 3q-3 -6 -10 -15t-17 -18t-23 -15t-28 -6q-2 0 -3 0.5t-3 0.5q-15 -9 -31.5 -14.5t-33.5 -10.5zM428 344q0 3 0.5 4t0.5 5q0 12 -7 21.5t-18 16
t-24.5 10.5t-25.5 5q8 -19 16.5 -37t16.5 -38q11 3 21 5.5t20 7.5zM480 390q-9 -3 -17 -3q-11 0 -21.5 3.5t-22.5 6.5q11 -8 18 -19.5t7 -26.5q12 6 22 15.5t14 23.5zM481 361q23 10 40 28.5t17 47.5q0 15 -6.5 24.5t-26.5 9.5q-4 -19 -5 -37t-9 -33q5 -3 5 -9q0 -8 -6 -18
t-9 -13zM409 488q15 5 28 5q15 0 29 -6t23 -20q1 2 1 6.5v8.5q0 13 -10 22.5t-24 9.5q-13 0 -25 -8.5t-22 -17.5zM274 465q5 -11 9.5 -20t4.5 -27q0 -25 -6.5 -40t-6.5 -26q0 -9 7 -26.5t18.5 -35.5t27 -33t32.5 -18l3 4q8 12 14 22.5t6 21.5t-6.5 30t-15.5 39.5t-18 39.5
t-14 31q-2 6 -6 14.5t-9.5 16.5t-11.5 14t-12 6q-9 0 -16 -13zM585 424q-2 -8 -4.5 -15t-8.5 -12q5 -18 5 -36q0 -25 -9.5 -40.5t-25 -26t-34 -17t-37.5 -12.5t-36 -14t-28 -21q19 -4 31.5 -10.5t33.5 -6.5q28 0 54 14t46.5 36.5t33 51t12.5 57.5q0 18 -6.5 34.5t-26.5 17.5
zM290 580q-4 0 -6 0.5t-8 0.5q-14 0 -25 -5.5t-11 -22.5q0 -9 3 -19.5t7.5 -21t8.5 -19t7 -12.5q4 5 9.5 9t13.5 4q11 0 20.5 -9t16.5 -20.5t12 -23t8 -16.5l2 -4h4q8 0 16.5 -2t16.5 -4q0 1 5.5 10t14 19t19 18t21.5 8q12 0 20.5 -11t8.5 -25v-4q-2 -7 -5.5 -13.5
t-7.5 -6.5q-8 0 -8 8q0 5 3.5 8t3.5 8q0 2 -3.5 12t-11.5 10q-5 0 -11 -5t-12.5 -12t-11.5 -14t-8 -11q2 0 3 0.5t4 0.5q11 0 26.5 -6.5t27.5 -6.5q14 0 17.5 9.5t3.5 18.5q0 20 -11.5 33.5t-34.5 13.5q-14 0 -30 -6t-23 -18l-3 -9q-2 -6 -7 -6q-7 0 -7 9q2 12 11 26.5
t21.5 26.5t27 20t29.5 8q18 0 31.5 -12t18.5 -30q24 0 35 -14.5t11 -34.5q0 -13 -5 -28q6 -2 9 -2q8 0 11.5 13.5t3.5 23.5q0 17 -8 36t-21.5 36.5t-30.5 30t-35 15.5h-6q-11 0 -27.5 -6t-33.5 -18t-32.5 -30.5t-24.5 -43.5q-3 -8 -8 -8q-7 0 -7 10q0 12 8.5 26.5t21.5 28.5
t29.5 26t31.5 19q-12 5 -26.5 13t-28.5 8h-5q-27 -5 -41.5 -25.5t-18.5 -45.5q0 -4 -3.5 -7t-7.5 -3q-8 0 -10 13t-2 24t1 20t3 17zM189 468q1 -1 1 -4q-3 -20 -3 -38q0 -39 13.5 -72.5t45.5 -63.5q33 -32 68.5 -48.5t69.5 -31.5q10 -5 25.5 -10.5t26.5 -5.5h4l4 2t2 3
q-14 11 -22.5 13t-10.5 2q-27 4 -44.5 8t-30 10t-23 16t-22.5 27q-11 16 -22 36t-11 37q0 16 7 33t7 33q0 15 -7.5 30.5t-18.5 37.5q-15 -1 -30 -4t-29 -10zM213 304q-1 -4 -11 -15.5t-10 -32.5q0 -15 7 -30t18.5 -27t26.5 -20t32 -8q15 0 23.5 6t13 14.5t6 16.5t3.5 13
q-31 15 -59.5 35t-49.5 48zM174 459q-14 -11 -19.5 -26t-5.5 -32q0 -16 3.5 -32.5t10.5 -30.5l7 -14q5 -5 12.5 -7.5t14.5 -2.5l10 -2q-18 26 -26.5 54.5t-8.5 58.5q0 9 0.5 17.5t1.5 16.5zM187 293q-14 0 -28 -4.5t-25.5 -12t-19 -18.5t-7.5 -24q0 -19 14.5 -40t37 -38
t49.5 -28.5t51 -11.5q23 0 36.5 11.5t14.5 39.5q-8 -6 -17.5 -8.5t-18.5 -2.5q-18 0 -35.5 8.5t-31 23t-21.5 32.5t-8 37q0 18 9 36zM412 183q30 -27 68 -27q27 0 50.5 11.5t43.5 31t35.5 43.5t26.5 50q-8 -7 -17 -12t-19 -9q-10 -14 -25 -26.5t-32.5 -23t-36.5 -16.5
t-37 -6l-9 -2q0 -11 -7.5 -14.5t-16.5 -3.5q-7 0 -13 1t-11 3zM614 295q23 14 37 35t14 58q0 24 -6.5 50.5t-18.5 48.5t-29.5 36.5t-39.5 14.5q-9 0 -24 -4q17 -19 28.5 -41.5t11.5 -48.5v-5q26 -2 35.5 -21t9.5 -44q0 -22 -5.5 -43.5t-12.5 -35.5zM681 391q14 -1 29.5 -6
t29 -13.5t22.5 -21.5t9 -30t-8.5 -36t-21 -37.5t-26.5 -34.5t-24 -26q2 -14 3.5 -26.5t5.5 -26.5q0 -10 4.5 -22t4.5 -25q0 -20 -16.5 -33.5t-43.5 -13.5q-6 0 -12.5 0.5t-12.5 1.5q-35 -26 -72 -26q-24 0 -48.5 9.5t-47.5 24.5q-6 -13 -15.5 -26t-21 -23.5t-25 -17
t-26.5 -6.5q-14 0 -27 7t-25.5 17t-23.5 21.5t-21 20.5q-21 -17 -50 -17q-22 0 -43 9t-38 24.5t-27.5 35.5t-10.5 41q0 5 0.5 9t1.5 9l-13 13q-16 1 -28.5 12.5t-21 28t-13 37t-4.5 41.5q0 22 5 44t13 40q-14 34 -14 71q0 24 7.5 46t27.5 39v4q0 18 12 36.5t31 35t42.5 30.5
t45.5 24t40.5 16t27.5 6q5 0 13.5 -2t18 -5.5t18.5 -8.5t14 -11q14 15 31 24.5t35 9.5q11 0 26 -5q24 14 45 14q26 0 42 -20.5t23 -55.5q27 -2 44 -15.5t17 -39.5q0 -8 -1 -12q23 -6 40.5 -23t29 -40t17.5 -48.5t6 -47.5zM558 167q7 -1 15.5 -1.5t18.5 -0.5q17 0 32 2t21 4
q12 4 31 21.5t37 40t30.5 46t12.5 40.5q0 20 -21 37t-55 17q1 -3 1 -9q0 -7 -3 -12.5t-6.5 -10.5t-6.5 -10.5t-3 -12.5q-13 -45 -39.5 -85t-64.5 -66z" />
    <glyph glyph-name="interrobang" unicode="&#x203d;" horiz-adv-x="337" 
d="M34 520q0 -13 4 -25t8.5 -22t8.5 -17.5t4 -11.5q0 -7 -5.5 -11.5t-12.5 -4.5q-8 0 -15.5 11t-13 26t-8.5 31.5t-3 27.5q0 27 9 52t25 44.5t38 33t47 19.5q-1 17 -2 33.5t-3 33.5q0 7 5 12t11 5q8 0 12 -5t5 -12l4 -63q29 0 54 -11.5t43.5 -31.5t29 -48t10.5 -62
q0 -32 -11.5 -61.5t-29 -57t-37.5 -54t-37.5 -53.5t-29 -54.5t-11.5 -56.5q0 -18 4 -34l1 -5q0 -6 -4.5 -11t-13.5 -5q-12 0 -16.5 14.5t-4.5 33.5q0 17 3 32q11 76 16 155t5 169q0 26 -0.5 50.5t-1.5 50.5q-35 -11 -61 -42.5t-26 -74.5zM156 527q0 -105 -9 -210
q17 27 36.5 51.5t35.5 49t26.5 49.5t10.5 51q0 21 -6.5 43t-19.5 40.5t-32 30t-44 11.5q1 -25 1.5 -53t0.5 -63zM159 23q0 -34 -23 -34q-37 0 -37 39q0 29 29 29q31 0 31 -34z" />
    <glyph glyph-name="asterism" unicode="&#x2042;" horiz-adv-x="417" 
d="M123 536q16 -10 31.5 -19.5t32.5 -17.5l28 -12q5 -3 5 -8q0 -11 -10 -11q-4 0 -6 1q-21 8 -42 19.5t-41 24.5q1 -32 6 -67q0 -2 0.5 -4t0.5 -4q0 -12 -10 -12q-6 0 -9 9t-5 22t-3 27.5t-1 25.5v9q-12 -10 -24.5 -19.5t-23.5 -21.5l-18 -19q-3 -3 -6 -3q-11 0 -11 10
q0 6 7.5 15t18 18.5t22 18t19.5 14.5l5 4q-20 15 -40 33t-36 38q-3 4 -3 8q0 10 10 10q3 0 7 -4l10 -10q14 -17 30 -30.5t33 -27.5q0 13 1 35.5t4 44.5t8 38.5t13 16.5q10 0 10 -12q-8 -32 -11.5 -58.5t-3.5 -59.5q17 11 36 22t39 18q1 1 3 1q9 0 9 -11q0 -6 -8 -10
q-20 -9 -39 -19.5t-38 -22.5zM123 111q16 -10 31.5 -19.5t32.5 -17.5l28 -12q5 -3 5 -8q0 -11 -10 -11q-4 0 -6 1q-21 8 -42 19.5t-41 24.5q1 -32 6 -67q0 -2 0.5 -4t0.5 -4q0 -12 -10 -12q-6 0 -9 9t-5 22t-3 27.5t-1 25.5v9q-12 -10 -24.5 -19.5t-23.5 -21.5l-18 -19
q-3 -3 -6 -3q-11 0 -11 10q0 6 7.5 15t18 18.5t22 18t19.5 14.5l5 4q-20 15 -40 33t-36 38q-3 4 -3 8q0 10 10 10q3 0 7 -4l10 -10q14 -17 30 -30.5t33 -27.5q0 13 1 35.5t4 44.5t8 38.5t13 16.5q10 0 10 -12q-8 -32 -11.5 -58.5t-3.5 -59.5q17 11 36 22t39 18q1 1 3 1
q9 0 9 -11q0 -6 -8 -10q-20 -9 -39 -19.5t-38 -22.5zM286 311q16 -10 31.5 -19.5t32.5 -17.5l28 -12q5 -3 5 -8q0 -11 -10 -11q-4 0 -6 1q-21 8 -42 19.5t-41 24.5q1 -32 6 -67q0 -2 0.5 -4t0.5 -4q0 -12 -10 -12q-6 0 -9 9t-5 22t-3 27.5t-1 25.5v9q-12 -10 -24.5 -19.5
t-23.5 -21.5l-18 -19q-3 -3 -6 -3q-11 0 -11 10q0 6 7.5 15t18 18.5t22 18t19.5 14.5l5 4q-20 15 -40 33t-36 38q-3 4 -3 8q0 10 10 10q3 0 7 -4l10 -10q14 -17 30 -30.5t33 -27.5q0 13 1 35.5t4 44.5t8 38.5t13 16.5q10 0 10 -12q-8 -32 -11.5 -58.5t-3.5 -59.5
q17 11 36 22t39 18q1 1 3 1q9 0 9 -11q0 -6 -8 -10q-20 -9 -39 -19.5t-38 -22.5z" />
    <glyph glyph-name="rupiah" unicode="&#xf6dd;" horiz-adv-x="602" 
d="M67 314q25 -36 52.5 -71t60 -70.5t70.5 -72.5t83 -76q5 -5 5 -11t-4.5 -11.5t-11.5 -5.5q-5 0 -12 5q-69 48 -131 118.5t-117 145.5q-6 -65 -6 -120q0 -30 1.5 -60.5t5.5 -65.5q0 -8 -4 -14.5t-14 -6.5q-8 0 -12.5 13.5t-6.5 32t-2.5 39.5t-0.5 36q0 55 1.5 99.5
t6.5 88.5q-8 10 -19.5 27t-11.5 27q0 16 17 16q8 -2 13.5 -3t10.5 -2q7 49 15 97.5t19 96.5q-17 -12 -31 -25q-7 -5 -12 -5q-7 0 -11.5 5t-4.5 11q0 5 5 12q11 13 30 27t34 23l11 49q2 6 6.5 9t9.5 3q11 0 13.5 -6t2.5 -11v-4l-4 -18q23 12 49 19t52 7q69 0 107.5 -42
t38.5 -108q0 -34 -13 -67.5t-40.5 -60t-70 -43t-101.5 -16.5q-18 0 -37 1.5t-40 5.5zM73 365q17 -3 35.5 -5t37.5 -2q39 0 73.5 9.5t60.5 29.5t41 51t16 74q-3 51 -33 79.5t-77 28.5q-30 0 -58.5 -10t-54.5 -27q-13 -57 -23 -113.5t-18 -114.5zM415 324q12 16 29 29t38 13
q38 0 55 -34t17 -89q0 -47 -9.5 -92.5t-27 -81.5t-41 -58t-50.5 -22q-17 0 -30 11t-21 29q-4 -41 -6.5 -80.5t-2.5 -80.5q0 -78 9 -118.5t9 -50.5q0 -5 -4.5 -10t-11.5 -5q-10 0 -16 21t-9.5 51t-5 63t-1.5 57q0 108 13.5 218t33.5 213q-7 -9 -19 -20t-20 -11
q-6 0 -10.5 4.5t-4.5 10.5q0 7 7 13q22 17 34 35.5t23 43.5q5 11 13 11q16 0 16 -18zM427 20q17 0 31 13t25 33t18.5 45.5t12.5 50.5t7.5 47t2.5 36q0 1 -0.5 15.5t-4.5 31.5t-12.5 30.5t-24.5 13.5q-24 0 -42 -25t-29.5 -59t-17 -69t-5.5 -54q0 -14 1.5 -33t6 -36t12 -28.5
t19.5 -11.5z" />
    </font>
</defs>
</svg>
